<svg xmlns="http://www.w3.org/2000/svg" viewBox="0 0 500 500"><defs><style>.cls-1{fill:#cce1f2;}.cls-10,.cls-12,.cls-2,.cls-31,.cls-6{fill:none;}.cls-2,.cls-6{stroke:#3f7e96;stroke-miterlimit:10;}.cls-2{stroke-width:6px;}.cls-3{fill:#3f7e96;}.cls-4{fill:#67b4e3;}.cls-5{fill:#fff;}.cls-10,.cls-31,.cls-6{stroke-width:3px;}.cls-7{fill:#bfe5ff;}.cls-8{fill:#e6f3fb;}.cls-9{fill:#5b6b7c;}.cls-10{stroke:#5b6b7c;}.cls-10,.cls-12,.cls-31{stroke-linecap:round;stroke-linejoin:round;}.cls-11{fill:#83c4ec;}.cls-12{stroke:#97afd3;}.cls-13{fill:#49809c;}.cls-14{fill:#c0dcea;}.cls-15{fill:#99ccec;}.cls-16{fill:#f74b39;}.cls-17{fill:#d13b23;}.cls-18{fill:#a01c0e;}.cls-19{fill:#f7987c;}.cls-20{fill:#92a3b7;}.cls-21{fill:#b8c7dd;}.cls-22{fill:#e2edff;}.cls-23{fill:#571010;}.cls-24{fill:#da6549;}.cls-25{fill:#d56849;}.cls-26{fill:#cff7ff;}.cls-27{fill:#89d1d6;}.cls-28{fill:#77bdc6;}.cls-29{fill:#cecece;}.cls-30{fill:#a8a8a8;}.cls-31{stroke:#545454;}.cls-32{fill:#5190f9;}.cls-33{fill:#004183;}.cls-34{fill:#f79878;}.cls-35{fill:#874529;}.cls-36{fill:#97afd3;}.cls-37{fill:#aacbf8;}.cls-38{fill:#e98166;}.cls-39{fill:#42183d;}.cls-40{fill:#a9caf7;}.cls-41{fill:#c0cbd8;}.cls-42{fill:#929fad;}.cls-43{fill:#6194d1;}.cls-44{fill:#a1c9d6;}.cls-45{fill:#e7e6e7;}.cls-46{fill:#5d204e;}.cls-47{fill:#ab527f;}.cls-48{fill:#841d5d;}.cls-49{fill:#ab537f;}.cls-50{fill:#831c5d;}.cls-51{fill:#800057;}.cls-52{fill:#811159;}.cls-53{fill:#561347;}.cls-54{fill:#cdacc3;}.cls-55{fill:#841c5d;}.cls-56{fill:#800954;}.cls-57{fill:#cca9c0;}</style></defs><g id="OBJECTS"><path class="cls-1" d="M224.59,99.76c-18.17,14.79-39.93-.77-59.81,7.27-22.65,9.15-3.24,34.9,12,40.07,28.95,9.82,61.18,2.42,84.35-17.19,11.18-9.46,23.73-31,12.37-44.77-6-7.35-16.75-7.48-25.12-4.76-10.83,3.53-15.26,12.38-23.62,19.27Z"/><path class="cls-1" d="M316.19,361.13c17.81-15.21,39.93-.17,59.61-8.68,22.43-9.69,2.42-35-12.92-39.77-29.18-9.14-61.22-1-83.91,19.18-11,9.73-23,31.53-11.31,45.06,6.22,7.2,16.93,7.08,25.23,4.15,10.75-3.78,15-12.73,23.16-19.82Z"/><path class="cls-1" d="M370.51,144.26A101.81,101.81,0,0,0,305,132.73c-24.94,4.15-46,16.87-69.46,25-25,8.65-51.76,10.49-77.18,17.58C114.06,187.68,78,228.71,86.5,276.93a87.05,87.05,0,0,0,35.09,55.39C165,363,211.07,337.17,252.17,316c26.11-13.42,50.52-19.31,79.75-20.75,32.65-1.6,62.81-11.66,76.39-43.93,11.94-28.35,6.41-63.17-13.16-86.78A87.35,87.35,0,0,0,370.51,144.26Z"/><path class="cls-2" d="M357.79,410.84V136.66a22,22,0,0,0-9.48-18.1L290.62,78.62A18.34,18.34,0,0,0,272.53,77l-64.12,29.46"/><path class="cls-2" d="M357.79,264.38H395a14,14,0,0,0,14-14v-4.28"/><path class="cls-3" d="M340.67,388.45h35.18a12.74,12.74,0,0,1,12.74,12.74v9.65a0,0,0,0,1,0,0H327a0,0,0,0,1,0,0v-8.71A13.68,13.68,0,0,1,340.67,388.45Z"/><path class="cls-4" d="M357.23,276.24h0a5.29,5.29,0,0,1-5.29-5.29V259.64a5.29,5.29,0,0,1,5.29-5.29h0a5.29,5.29,0,0,1,5.3,5.29V271A5.29,5.29,0,0,1,357.23,276.24Z"/><path class="cls-4" d="M224.64,130.91h0l-41.45-37.3h0a14.65,14.65,0,0,1,20.7-1.09l19.66,17.69A14.65,14.65,0,0,1,224.64,130.91Z"/><path class="cls-5" d="M220.87,127.52h0a7.81,7.81,0,0,1-11,.58l-22.69-20.42a7.81,7.81,0,0,1-.58-11h0Z"/><line class="cls-6" x1="357.79" y1="166.03" x2="337.49" y2="166.03"/><line class="cls-6" x1="357.79" y1="190.5" x2="337.49" y2="190.5"/><rect class="cls-4" x="275.51" y="157.43" width="62.24" height="43.42" rx="8.24"/><rect class="cls-7" x="287.93" y="151.02" width="37.42" height="56.24" rx="5.24" transform="translate(127.49 485.78) rotate(-90)"/><rect class="cls-3" x="299.97" y="170.57" width="30.66" height="1.96"/><rect class="cls-3" x="299.97" y="175.95" width="30.66" height="1.96"/><rect class="cls-3" x="299.97" y="181.33" width="30.66" height="1.96"/><rect class="cls-8" x="282.48" y="167.43" width="13.47" height="19.13"/><path class="cls-9" d="M385,239.3l3.15-1.82a1.41,1.41,0,0,0,.71-1.22V222.89a1.39,1.39,0,0,0-.29-.86L386,218.68a1.38,1.38,0,0,1-.3-.85v-6.7h0a1.41,1.41,0,0,0-2.81,0h0v6.7a1.38,1.38,0,0,1-.3.85L380,222a1.39,1.39,0,0,0-.29.86v13.37a1.41,1.41,0,0,0,.71,1.22l3.15,1.82A1.42,1.42,0,0,0,385,239.3Z"/><path class="cls-10" d="M384.29,210.06h15.92a5.57,5.57,0,0,1,5.57,5.57v2.75"/><rect class="cls-11" x="376.04" y="236.66" width="62.72" height="9.45"/><rect class="cls-7" x="376.04" y="232.74" width="62.72" height="3.92"/><rect class="cls-9" x="424.78" y="222.81" width="5.39" height="30.73" rx="2.7"/><path class="cls-12" d="M427.48,250.62s0,.57,0,1.56c-.72,24.19-34.61,28.93-42.37,6a51.86,51.86,0,0,1-2.9-16.51"/><path class="cls-9" d="M418.71,253.55h0a2.7,2.7,0,0,1-2.69-2.7V225.51a2.7,2.7,0,0,1,2.69-2.7h0a2.7,2.7,0,0,1,2.7,2.7v25.34A2.7,2.7,0,0,1,418.71,253.55Z"/><path class="cls-12" d="M378.07,241.68s0,32.09,16.77,37.24a15.18,15.18,0,0,0,12.61-1.8c4.93-3.18,11.26-10.51,11.26-27.12"/><path class="cls-4" d="M357.23,172.53h0a5.29,5.29,0,0,1-5.29-5.29v-2.43a5.29,5.29,0,0,1,5.29-5.29h0a5.29,5.29,0,0,1,5.3,5.29v2.43A5.29,5.29,0,0,1,357.23,172.53Z"/><path class="cls-4" d="M357.23,197h0a5.29,5.29,0,0,1-5.29-5.29v-2.43a5.29,5.29,0,0,1,5.29-5.29h0a5.29,5.29,0,0,1,5.3,5.29v2.43A5.29,5.29,0,0,1,357.23,197Z"/><path class="cls-11" d="M349.69,410.84H233.92a2.75,2.75,0,0,1-2.77-2.79,2.69,2.69,0,0,1,1.26-2.29,46.6,46.6,0,0,0,21.12-39V346.13h22l-1.61,31.16a22.79,22.79,0,0,0,22.76,24h43.45a9.56,9.56,0,0,1,9.58,9.59Z"/><path class="cls-3" d="M312.31,401.25H296.66a22.79,22.79,0,0,1-22.76-24l1.61-31.16h12.76v31.08a24,24,0,0,0,24,24Z"/><path class="cls-8" d="M319.9,328.62l7.84,10.81-.59.86A13.52,13.52,0,0,1,316,346.13H245.86a13.52,13.52,0,0,1-11.13-5.84l-4.43-6.42.37-.14,11-4.77a10.87,10.87,0,0,0,9,5.17h60.1A11,11,0,0,0,319.9,328.62Z"/><path class="cls-11" d="M314.33,321l5.57,7.66a11,11,0,0,1-9.18,5.51h-60.1a10.87,10.87,0,0,1-9-5.17L260,321l.18-.08Z"/><path class="cls-3" d="M303.61,306.19,314.33,321H260.16l37.7-16.33A4.78,4.78,0,0,1,303.61,306.19Z"/><path class="cls-13" d="M241.67,329a12.58,12.58,0,0,0,3.69,3.47,9.77,9.77,0,0,0,4.76,1.44l10.25-.12,20.51-.12,20.51.12c3.41,0,6.86.14,10.23.09a9.9,9.9,0,0,0,4.7-1.63,13,13,0,0,0,3.58-3.59,11.25,11.25,0,0,1-8.23,5.71c-3.47.15-6.85.12-10.28.19l-20.51.11-20.51-.12c-3.43-.05-6.83-.07-10.27-.15A11.1,11.1,0,0,1,241.67,329Z"/><path class="cls-4" d="M308.69,299.46a9.75,9.75,0,0,0-11.77-3.22L265.13,310l-6.4,2.77-3.62,1.57h0l-7.2,3.13-14.48,6.26a7.5,7.5,0,0,1-9.09-2.52l-68.49-95.31c-.38,0-.76.1-1.14.17a15.58,15.58,0,0,0-4,1.26,16.18,16.18,0,0,0-2.62,1.54l73.54,102.35a7.52,7.52,0,0,0,8.73,2.64l.37-.14,11-4.77L260,321l.18-.08,37.7-16.33a4.78,4.78,0,0,1,5.75,1.56L314.33,321l5.57,7.66,7.84,10.81,23.81,32.78a16.13,16.13,0,0,0,13.08,6.65,15.57,15.57,0,0,0,1.67-.09Z"/><path class="cls-3" d="M148,216.52l6.67,9.56a15.58,15.58,0,0,0-4,1.26l-5.87-8.5Z"/><path class="cls-4" d="M144.78,218.84h0a3.12,3.12,0,0,1-4.35-.72L127.49,200a3.12,3.12,0,0,1,.72-4.35l7.18-5.13a12.59,12.59,0,0,0,1.82,4.39c-1.82,11.81,5.55,17.84,12,20.8l-1.16.83Z"/><path class="cls-7" d="M372.79,374l-3.37-4.63-9.46-13-9.41-12.95-37.4-51.48a14.39,14.39,0,0,0-1.71-1.94,13.44,13.44,0,0,0-14.51-2.5l-32.85,14.22-6.83,3-7.11,3.08-5.87,2.55-8.08,3.5a7.51,7.51,0,0,1-9.1-2.5l-17.27-24-23.61-32.86-15.65-21.78a16.19,16.19,0,0,0-13.13-6.74c-.53,0-1.06,0-1.59.08l68.49,95.31a7.5,7.5,0,0,0,9.09,2.52l14.48-6.26,7.2-3.13h0l3.62-1.57,6.4-2.77,31.79-13.77a9.75,9.75,0,0,1,11.77,3.22l57.61,79.31a16.06,16.06,0,0,0,7.8-3Z"/><path class="cls-13" d="M308.69,299.46c5,6.49,9.84,13,14.71,19.6l14.5,19.76,14.31,19.9,7.09,10,7,10.06h0L358.9,369l-7.31-9.83-14.5-19.76-14.31-19.9C318,312.86,313.32,306.19,308.69,299.46Z"/><path class="cls-13" d="M155.84,225.91c5.88,7.83,11.66,15.71,17.44,23.61l17.21,23.76,17,23.89,8.45,12,8.36,12.05-8.76-11.77-8.67-11.83-17.22-23.76-17-23.9C167,242,161.38,234,155.84,225.91Z"/><path class="cls-14" d="M255.57,276.39a7.64,7.64,0,0,0-4,7.65l2.33,20.18a4.94,4.94,0,0,1,1.1-.12,5,5,0,0,1,2.22.51,5.12,5.12,0,0,1-2.14,9.74h0l.63,5.57c.22,0,.44-.05.66-.08a10.42,10.42,0,0,0,8.74-9.83A9.45,9.45,0,0,0,265,308l-1-6.31-1.51-10-.84-5.54a6.17,6.17,0,0,1,3.13-6.35L288,267a15.34,15.34,0,0,0,7.88-12.21Z"/><path class="cls-8" d="M295.13,248.6l-6.95,3.77-2.5,1.38-3.2,1.73-36,19.54a9.19,9.19,0,0,0-4.76,8.94l1,11,1.46,15.3,0,.27A10.43,10.43,0,0,0,254.68,320a9.37,9.37,0,0,0,1-.06l-.63-5.57H255a5.13,5.13,0,0,1-5.12-5.13,5.2,5.2,0,0,1,.23-1.53,5.1,5.1,0,0,1,3.79-3.47L251.6,284a7.64,7.64,0,0,1,4-7.65l40.33-21.63c0-.33.05-.67.05-1v-.21A15.19,15.19,0,0,0,295.13,248.6Z"/><path class="cls-13" d="M253.93,304.22c-.92-6.2-1.74-12.42-2.53-18.64-.1-.78-.24-1.53-.27-2.38a8.05,8.05,0,0,1,3.11-6.48,13.82,13.82,0,0,1,2.07-1.26l2.07-1.12,4.13-2.24c5.54-2.93,11.07-5.89,16.63-8.79l8.35-4.32c2.8-1.41,5.59-2.85,8.4-4.23h0c-2.71,1.58-5.45,3.11-8.18,4.66L279.5,264c-5.48,3-11,6-16.52,9l-4.15,2.2-2.08,1.1a12.82,12.82,0,0,0-2,1.16A7.21,7.21,0,0,0,252.3,281a7.36,7.36,0,0,0-.33,2.19c0,.72.12,1.52.19,2.29C252.8,291.73,253.42,298,253.93,304.22Z"/><path class="cls-15" d="M258.73,312.78a5.12,5.12,0,0,0-1.48-8.17,5,5,0,0,0-2.22-.51,4.94,4.94,0,0,0-1.1.12,5.1,5.1,0,0,0-3.79,3.47,5.2,5.2,0,0,0-.23,1.53,5.13,5.13,0,0,0,5.12,5.13h.08A5.13,5.13,0,0,0,258.73,312.78Z"/><path class="cls-16" d="M311.07,271.67a9.89,9.89,0,0,0-9.8-.36l-38.7,20.29-.84-5.54a6.17,6.17,0,0,1,3.13-6.35L288,267a15.34,15.34,0,0,0,7.88-12.21c0-.33.05-.67.05-1l4.72-2.09a13.72,13.72,0,0,1,16.1,3.81l56,67.57s-3.28,4.09-8.07,8.89c-1,1-2.14,2.09-3.29,3.15L313.66,274A9.6,9.6,0,0,0,311.07,271.67Z"/><path class="cls-17" d="M313.66,274l47.78,61.1a65.17,65.17,0,0,1-10.89,8.27l-37.4-51.48a14.39,14.39,0,0,0-1.71-1.94,72,72,0,0,1-.37-18.26A9.6,9.6,0,0,1,313.66,274Z"/><path class="cls-17" d="M311.07,271.67a72,72,0,0,0,.37,18.26,13.44,13.44,0,0,0-14.51-2.5l-32.85,14.22-1.51-10,38.7-20.29A9.89,9.89,0,0,1,311.07,271.67Z"/><path class="cls-17" d="M242.81,294.94l1.46,15.3-8.08,3.5a7.56,7.56,0,0,1-7.1-.59h0S240.26,302,242.81,294.94Z"/><path class="cls-18" d="M312.17,265.57c-.34,2-.52,4.05-.7,6.07s-.27,4.05-.3,6.08c-.1,4.06.09,8.11.27,12.21h0a48.34,48.34,0,0,1-1.27-12.23,47,47,0,0,1,.53-6.15A30.74,30.74,0,0,1,312.17,265.57Z"/><path class="cls-19" d="M364.73,331.93l9.77,11.58A74.88,74.88,0,0,0,360,356.3l-9.41-12.95a65.17,65.17,0,0,0,10.89-8.27C362.59,334,363.7,332.94,364.73,331.93Z"/><polygon class="cls-20" points="400.64 343.35 404.04 347.35 372.8 373.97 372.79 373.97 369.42 369.34 369.43 369.34 388.23 353.68 400.64 343.35"/><path class="cls-21" d="M400.64,343.35l-12.41,10.33c-7.53-7.52-2-15.19-2-15.19A15.08,15.08,0,0,1,400.64,343.35Z"/><path class="cls-22" d="M388.23,353.68l-18.8,15.66h0l-9.46-13a74.88,74.88,0,0,1,14.54-12.79,32.27,32.27,0,0,1,11.77-5S380.7,346.16,388.23,353.68Z"/><path class="cls-23" d="M166.1,161.55c2,3.14,3.24,7.8-.73,13.3a32.56,32.56,0,0,1-8.94,7.9,2.94,2.94,0,0,0-1.53,2.58,2.89,2.89,0,0,0,.34,1.39l1.29,2.36.93,3.64a1.9,1.9,0,0,1-.9,2.14,1.86,1.86,0,0,1-1,.27,1.94,1.94,0,0,1-1.77-1.14l-.82-1.84a4.21,4.21,0,0,0-4.5,1.76,4.64,4.64,0,0,0-.5,3.61c.6,2.39,2.41,6.29,7.85,3.74,0,0,9.88,9.23,2,17.12a34.27,34.27,0,0,1-8.62-2.69c-6.43-3-13.8-9-12-20.8a12.59,12.59,0,0,1-1.82-4.39c-1-4.81.21-12.7,15.26-19.12,0,0-.33-5.64,2.13-9.83A7.8,7.8,0,0,1,166.1,161.55Z"/><path class="cls-19" d="M171.79,212.83s5.71,6.65,8.25,9.18a15.1,15.1,0,0,0-10.22,4l-3,2.79a16.26,16.26,0,0,0-4.8-2.32l-4.18-8.11c7.91-7.89-2-17.12-2-17.12-5.44,2.55-7.25-1.35-7.85-3.74a4.64,4.64,0,0,1,.5-3.61,4.21,4.21,0,0,1,4.5-1.76l.82,1.84a1.94,1.94,0,0,0,1.77,1.14,1.86,1.86,0,0,0,1-.27,1.9,1.9,0,0,0,.9-2.14l-.93-3.64-1.29-2.36a2.89,2.89,0,0,1-.34-1.39,2.94,2.94,0,0,1,1.53-2.58,32.56,32.56,0,0,0,8.94-7.9,13.71,13.71,0,0,1,5.55,3.17,8.93,8.93,0,0,0,3.2,1.88l8,2.83-3.41,3h0l1.27,1.43-.78.73L168,198.32a7.17,7.17,0,0,0,2.44,1.48c2.16.84,5.69,1.26,10.42-1.48a21.11,21.11,0,0,1-5.07,11A20.53,20.53,0,0,1,171.79,212.83ZM171,184.39c.56-.47.3-1.67-.56-2.69s-2-1.44-2.56-1-.3,1.67.56,2.69S170.4,184.86,171,184.39Z"/><path class="cls-5" d="M181.1,189.71,170.42,199.8a7.17,7.17,0,0,1-2.44-1.48l11.28-10.41Z"/><path class="cls-23" d="M170.39,181.7c.86,1,1.12,2.22.56,2.69s-1.71,0-2.56-1-1.12-2.21-.56-2.69S169.52,180.7,170.39,181.7Z"/><path class="cls-24" d="M180.84,198.32a19,19,0,0,1-15.21,17.41,26.74,26.74,0,0,0,5.35-2.82,23.38,23.38,0,0,0,4.45-4A24.69,24.69,0,0,0,180.84,198.32Z"/><path class="cls-24" d="M165.37,195a5.39,5.39,0,0,1,2.06,1.74,7,7,0,0,1,1.18,2.48,7.86,7.86,0,0,1,.16,2.73,8.37,8.37,0,0,1-.28,1.32,9.76,9.76,0,0,1-.51,1.24c0-.45,0-.88,0-1.31s0-.86,0-1.28a12.58,12.58,0,0,0-.35-2.46,11,11,0,0,0-.87-2.31A12.35,12.35,0,0,0,165.37,195Z"/><path class="cls-25" d="M165.92,179.14a19.32,19.32,0,0,1-.34,2.75c-.09.44-.18.87-.3,1.32a8.55,8.55,0,0,1-.45,1.35,4.93,4.93,0,0,1-.23-2.86,6,6,0,0,1,.45-1.37A3.48,3.48,0,0,1,165.92,179.14Z"/><path class="cls-26" d="M234.78,265.57l-8.42,5.54L200,241.68l2.64-2.42-11.36-12.35a14.18,14.18,0,0,0-2.57-2.23C188.75,224.68,201.24,224.75,234.78,265.57Z"/><path class="cls-26" d="M191.24,226.91l11.36,12.35L200,241.68l-13.75,12.67-15.65-21.78a16.21,16.21,0,0,0-3.77-3.76l3-2.79a15.14,15.14,0,0,1,18.85-1.34A14.18,14.18,0,0,1,191.24,226.91Z"/><path class="cls-27" d="M241.77,284l1,11c-2.55,7.1-13.71,18.2-13.71,18.2h0a7.55,7.55,0,0,1-2-1.91l-17.27-24h0l7.57,4.91a9.53,9.53,0,0,0,10,.22Z"/><path class="cls-28" d="M186.21,254.35c1.3-1.33,2.64-2.63,3.95-3.93s2.68-2.58,4-3.87c2.66-2.59,5.39-5.11,8.11-7.64l0,.67c-3.36-3.56-6.59-7.23-9.9-10.84-.82-.91-1.58-1.87-2.46-2.67A14.76,14.76,0,0,0,187,224a15.75,15.75,0,0,0-6.94-2,14.87,14.87,0,0,1,7.19,1.49,16,16,0,0,1,3.12,2.05c1,.82,1.77,1.75,2.62,2.62,3.33,3.59,6.72,7.12,10,10.77l.32.36-.35.31c-2.76,2.48-5.48,5-8.28,7.44-1.4,1.23-2.78,2.47-4.19,3.68S187.64,253.16,186.21,254.35Z"/><path class="cls-19" d="M285.68,253.75l-3.2,1.73-36,19.54a9.19,9.19,0,0,0-4.76,8.94l-14.37,8.38a9.53,9.53,0,0,1-10-.22l-7.57-4.91h0l-23.61-32.86L200,241.68l26.4,29.43,8.42-5.54,31-20.43a12.47,12.47,0,0,1,14.92.91l7.44,6.32Z"/><path class="cls-24" d="M285.68,253.75c-1.52-1-2.88-2.19-4.25-3.3-.68-.57-1.38-1.11-2.07-1.64a8.91,8.91,0,0,0-2.28-1.33,4.8,4.8,0,0,1,2.69.67,13.59,13.59,0,0,1,2.29,1.52A16.79,16.79,0,0,1,285.68,253.75Z"/><path class="cls-24" d="M282.48,255.48a41.65,41.65,0,0,0-3.39-2.83c-.57-.44-1.17-.86-1.76-1.29s-1.22-.84-1.82-1.34a9.63,9.63,0,0,1,4.19,1.83,10.11,10.11,0,0,1,1.66,1.61A5.82,5.82,0,0,1,282.48,255.48Z"/><path class="cls-24" d="M251.84,254.35c-2.43,1.84-4.92,3.59-7.42,5.33s-5,3.44-7.56,5.12-5.1,3.32-7.69,4.92l-3.89,2.39c-1.31.77-2.61,1.57-3.94,2.31,1.2-.93,2.45-1.81,3.67-2.72l3.74-2.62c2.49-1.75,5-3.43,7.56-5.12s5.1-3.32,7.69-4.92S249.18,255.85,251.84,254.35Z"/><rect class="cls-29" x="286.1" y="308.76" width="11.77" height="24.82"/><path class="cls-30" d="M286.48,333.59h11a2.85,2.85,0,0,1,2.85,2.85v56.11a0,0,0,0,1,0,0h-16.7a0,0,0,0,1,0,0V336.43A2.85,2.85,0,0,1,286.48,333.59Z"/><path class="cls-31" d="M257.9,410.18h0a17.64,17.64,0,0,1,17.64-17.64h32.89a17.64,17.64,0,0,1,17.64,17.64h0"/><rect class="cls-32" x="256.23" y="293.08" width="71.51" height="15.68" rx="6.8"/><line class="cls-31" x1="291.99" y1="392.54" x2="291.99" y2="411.22"/><circle class="cls-33" cx="257.9" cy="415.72" r="5.53"/><circle class="cls-33" cx="326.07" cy="415.72" r="5.53"/><circle class="cls-33" cx="291.99" cy="415.72" r="5.53"/><path class="cls-34" d="M272.38,142.15a8.94,8.94,0,0,1-.56-1.21,7.61,7.61,0,0,0-4.75-4.29c-3.51-1.21-3.26-4.05-3.26-4.05a3.64,3.64,0,0,0,1.67-3,4.44,4.44,0,0,0-1.93-3.55c-1.55-1.16-4-2-5.64,2.21,0,0-4.78-1.09-6.13-7.79,0,0-5.24,12.49-18.58,16.42a21.48,21.48,0,0,0,8.53,11.94,1.3,1.3,0,0,1,.19-.22l12-10.91a4.11,4.11,0,0,0,.17.6,3.34,3.34,0,0,0,4.48,1.87,7,7,0,0,0,3-2.47,57.52,57.52,0,0,1-1.21,11.08,12.31,12.31,0,0,1-1.13,3.2l.68-.19,4.66,12.07,1.87-4.9a15.87,15.87,0,0,1,11.59-9.9h0C275.12,147.41,272.38,142.15,272.38,142.15Z"/><path class="cls-25" d="M259.18,152c1.67-.83,3.28-1.56,4.84-2.44s3.05-1.82,4.65-2.78a12.85,12.85,0,0,1-9.49,5.22Z"/><path class="cls-23" d="M275.18,117.81a9.28,9.28,0,0,1-2.58,2.67,21.53,21.53,0,0,0-9.85-9,8.62,8.62,0,0,1,2.59-3.57h0a5.1,5.1,0,0,1,5.42-.44,8.87,8.87,0,0,1,4.4,4.08A6.13,6.13,0,0,1,275.18,117.81Z"/><path class="cls-35" d="M272.6,120.48a21.51,21.51,0,0,1-.22,21.67,8.94,8.94,0,0,1-.56-1.21,7.61,7.61,0,0,0-4.75-4.29c-3.51-1.21-3.26-4.05-3.26-4.05a3.64,3.64,0,0,0,1.67-3,4.44,4.44,0,0,0-1.93-3.55c-1.55-1.16-4-2-5.64,2.21,0,0-4.78-1.09-6.13-7.79,0,0-5.24,12.49-18.58,16.42a21.12,21.12,0,0,1-.79-5.78,21.51,21.51,0,0,1,21.51-21.51,21.29,21.29,0,0,1,8.83,1.9A21.53,21.53,0,0,1,272.6,120.48Z"/><path class="cls-35" d="M318.85,118.27s2.58,15.4-9.89,21.47a20.39,20.39,0,0,1-22.55-3.46c-3.87-3.58-8.05-9.3-11.23-18.47a6.13,6.13,0,0,0,0-6.24,8.87,8.87,0,0,0-4.4-4.08,5.1,5.1,0,0,0-5.42.44c.15-.59,2.7-10.15,12-10.82,4.11-.29,9.48,2.43,11.9,5.76s3.73,5.66,6.76,9.9c1,1.34,1.89,2.69,2.76,4.08C301.31,120.91,309.34,131.34,318.85,118.27Z"/><path class="cls-23" d="M257.91,128.27a8.14,8.14,0,0,1-4.33-2.88,12.06,12.06,0,0,1-1.35-2.3c-.19-.4-.32-.83-.48-1.25s-.24-.86-.36-1.29l.76.08a28.37,28.37,0,0,1-3.75,6.21,31.06,31.06,0,0,1-5.07,5.18,25.94,25.94,0,0,1-6.21,3.71,26.61,26.61,0,0,1-6.93,1.9c1.14-.38,2.3-.64,3.41-1.06l1.65-.66c.55-.21,1.07-.5,1.61-.75a29.44,29.44,0,0,0,5.88-3.87,34.85,34.85,0,0,0,4.89-5,32.63,32.63,0,0,0,3.78-5.92l.52-1.06.25,1.14.27,1.23c.13.4.22.82.39,1.21a10.58,10.58,0,0,0,1.16,2.24A8.35,8.35,0,0,0,257.91,128.27Z"/><path class="cls-23" d="M240.28,142.76c.75,1.1,1.84,1.65,2.44,1.24s.48-1.63-.27-2.73-1.84-1.65-2.44-1.23S239.53,141.67,240.28,142.76Z"/><path class="cls-25" d="M239,137.78a3.54,3.54,0,0,1,1.38-.53,6.3,6.3,0,0,1,1.44-.08,5.07,5.07,0,0,1,2.7,1,7.74,7.74,0,0,1-1.42.09c-.46,0-.91,0-1.36-.06A18.81,18.81,0,0,1,239,137.78Z"/><path class="cls-22" d="M261.52,137.71a57.52,57.52,0,0,1-1.21,11.08,12.31,12.31,0,0,1-1.13,3.2c-.18.32-.36.63-.56.93a11.68,11.68,0,0,1-3.08,3.23,8.23,8.23,0,0,1-6.93,1.31l-.51-.14a8.27,8.27,0,0,1-5.28-4.26l-1.26-2.48a1.63,1.63,0,0,1,.17-1.74,1.3,1.3,0,0,1,.19-.22l12-10.91a4.11,4.11,0,0,0,.17.6,3.34,3.34,0,0,0,4.48,1.87A7,7,0,0,0,261.52,137.71Z"/><path class="cls-9" d="M263.81,132.6a13.14,13.14,0,0,1-2.57,6.07,6.61,6.61,0,0,1-2.79,2,3.93,3.93,0,0,1-3.56-.48,3.7,3.7,0,0,1-1.17-1.46,5.07,5.07,0,0,1-.38-1.77,8.14,8.14,0,0,1,.77-3.34,18.39,18.39,0,0,1,3.8-5.39,27.64,27.64,0,0,0-1.72,2.77,17.35,17.35,0,0,0-1.36,2.9,8.29,8.29,0,0,0-.54,3,2.92,2.92,0,0,0,3.86,2.85,6.48,6.48,0,0,0,2.52-1.66,11.6,11.6,0,0,0,1.82-2.59A22,22,0,0,0,263.81,132.6Z"/><path class="cls-36" d="M253.91,144.45a11.89,11.89,0,0,1-1.74,3.21,23.29,23.29,0,0,1-2.4,2.75,27,27,0,0,1-2.76,2.36,22.37,22.37,0,0,1-3.08,1.93c.83-.89,1.71-1.7,2.57-2.53s1.74-1.63,2.57-2.47,1.68-1.68,2.5-2.54S253.17,145.41,253.91,144.45Z"/><path class="cls-36" d="M255.58,144.45a13.23,13.23,0,0,1-1.33,7.67,11.56,11.56,0,0,1-2.35,3.2,10.43,10.43,0,0,1-3.29,2.14,20.29,20.29,0,0,0,2.72-2.68,15.55,15.55,0,0,0,2-3.11,21.08,21.08,0,0,0,1.37-3.49A28.47,28.47,0,0,0,255.58,144.45Z"/><path class="cls-25" d="M261.86,133.49a5.11,5.11,0,0,0,3-2.69,3.61,3.61,0,0,0-.77-3.57,5.2,5.2,0,0,0-1.51-1.24,2.79,2.79,0,0,0-1.79-.42c-1.24.18-2.16,1.48-2.86,2.7a7.65,7.65,0,0,1,.84-2,3.26,3.26,0,0,1,1.86-1.43,3.45,3.45,0,0,1,2.39.35,6.12,6.12,0,0,1,1.84,1.44,4.73,4.73,0,0,1,1,2.15,3.94,3.94,0,0,1-.32,2.37A4.62,4.62,0,0,1,261.86,133.49Z"/><path class="cls-5" d="M229.83,414.87v6.37H175a32.61,32.61,0,0,1,1.58-6.37h53.26Z"/><path class="cls-37" d="M229.83,393.86v21H176.57a30.18,30.18,0,0,1,1.35-3.17c8.3-16.73,29-17.84,29-17.84Z"/><rect class="cls-38" x="206.89" y="372.14" width="22.94" height="21.72"/><path class="cls-34" d="M187.27,362.38h0l-5.21,22.16-22.32-5.24,5.63-22.93C167.55,357.09,177.11,360.12,187.27,362.38Z"/><path class="cls-37" d="M182.06,384.55,177.26,405l-51.85-12.17c11.42-17.63,34.33-13.54,34.33-13.54Z"/><path class="cls-5" d="M177.26,405l-1.46,6.2-53.39-12.54a33.18,33.18,0,0,1,3-5.83Z"/><path class="cls-39" d="M264.52,259l-40.78,13.66a32.44,32.44,0,0,0-22.13,30l-1.32,54.27L168.15,348l22.13-56.46a34,34,0,0,1,22.44-20.3l44.53-12.5A29.86,29.86,0,0,1,264.52,259Z"/><path class="cls-39" d="M200.29,356.89l-.14,6h0l0,1.77h-.19a122.31,122.31,0,0,1-12.65-2.24c-10.16-2.26-19.72-5.29-21.9-6l-.47-.15,3.25-8.26Z"/><path class="cls-39" d="M298.93,275.4a41.66,41.66,0,0,0,11.58,6.71c-11.62,17.35-44.87,25.13-61.85,28.06a30.61,30.61,0,0,1-18.83-2.83L226,305.4c4.87-16.07,37.56-21,43.35-21.79.72-.1,1.46-.21,2.18-.33A59.45,59.45,0,0,0,296,273.08C296.94,273.82,297.92,274.59,298.93,275.4Z"/><path class="cls-39" d="M226,305.4l3.85,1.94s-8.62,6.76-5.53,55.51H200.15l.14-6,1.32-54.27a32.44,32.44,0,0,1,22.13-30L264.52,259c6.91.95,18.2,4.13,31.44,14.1a59.45,59.45,0,0,1-24.45,10.2c-.72.12-1.46.23-2.18.33C263.54,284.36,230.85,289.33,226,305.4Z"/><path class="cls-39" d="M238.42,310.16s-2.54,32.73-4.81,52.69H224.3c-3.09-48.75,5.53-55.51,5.53-55.51A30.08,30.08,0,0,0,238.42,310.16Z"/><path class="cls-39" d="M224.3,362.85h9.29c-.4,3.6-.8,6.79-1.18,9.29H199.92l.19-7.52,0-1.77H224.3Z"/><path class="cls-39" d="M219.46,302.11,226,305.4l3.85,1.94a30.61,30.61,0,0,0,18.83,2.83c5.32-.91,12.23-2.31,19.58-4.32"/><path class="cls-39" d="M200.59,344.82l1-42.2a32.44,32.44,0,0,1,22.13-30l31.58-10.58"/><path class="cls-40" d="M324.36,284.15a30.12,30.12,0,0,1-13.85-2,41.66,41.66,0,0,1-11.58-6.71c-1-.81-2-1.58-3-2.32-13.24-10-24.53-13.15-31.44-14.1a29.86,29.86,0,0,0-7.27-.27l-1-34.93a16.64,16.64,0,0,0,17.23-6.62c3.13-4.48,6.31-11.46,8.58-22.33l4.15,1.58,10-26.09A15.85,15.85,0,0,0,294.62,156C315.55,184.91,324.36,284.15,324.36,284.15Z"/><path class="cls-22" d="M192.83,167.39a37.67,37.67,0,0,1,11.28-7.24,31.48,31.48,0,0,1,5.5-1.64,3.39,3.39,0,0,1,3.66,1.76l1.87,3.49,1.41,2.66s-1.82-.58-4.27-1.12a30.56,30.56,0,0,0-8.86-.9,7,7,0,0,0-2.85.76,3.45,3.45,0,0,0-2,3.62c.24,1.11,1.1,2.29,3.56,2.54l-5.64,2.06a3.59,3.59,0,0,1-3.47-.57l0,0A3.56,3.56,0,0,1,192.83,167.39Z"/><path class="cls-9" d="M208.54,142.31l-8.2,41.07,5.24-41.55a1.5,1.5,0,1,1,3,.37S208.54,142.27,208.54,142.31Z"/><path class="cls-41" d="M221,174.73l6,5.37c-3.58,6.58-15.1,10.62-15.1,10.62-2-3.67-3-6.13-3-6.13l-.48-.32-1.26-.8a10.85,10.85,0,0,1-5-9l0-2.36v-.78c-2.46-.25-3.32-1.43-3.56-2.54a3.45,3.45,0,0,1,2-3.62,7,7,0,0,1,2.85-.76,30.56,30.56,0,0,1,8.86.9c2.45.54,4.27,1.12,4.27,1.12l1.83,3.46Z"/><path class="cls-42" d="M216.55,166.42c-1.06-.16-2.1-.38-3.14-.57s-2.07-.42-3.11-.56a33.68,33.68,0,0,0-6.23-.44,8.3,8.3,0,0,0-2.93.56,4,4,0,0,0-2,1.89,2.53,2.53,0,0,0,.38,2.65,4.48,4.48,0,0,0,2.69,1.37,4.42,4.42,0,0,1-3-1,3.14,3.14,0,0,1-.73-3.27,4.5,4.5,0,0,1,2.37-2.48,9,9,0,0,1,3.27-.68,24.59,24.59,0,0,1,6.42.67A48,48,0,0,1,216.55,166.42Z"/><path class="cls-38" d="M249.35,220.93a16.84,16.84,0,0,1-8.47-1c-14.63-5.74-24.42-20.71-29-29.21a45.22,45.22,0,0,0,8.74-4.35l1.34.88a67.94,67.94,0,0,0,2.91,6.17C228.92,201.11,237.11,214.11,249.35,220.93Z"/><path class="cls-42" d="M214.53,195.29c-.58-.82-1.13-1.67-1.69-2.52s-1.1-1.7-1.6-2.57a51.24,51.24,0,0,1-2.76-5.43l.19.22L207,183.93a11.86,11.86,0,0,1-1.64-1.28,10.84,10.84,0,0,1-2.42-3.35,11.21,11.21,0,0,1-1-4,19.3,19.3,0,0,1,.06-2c0-.66.07-1.33.12-2,.16,1.32.18,2.68.35,4a10.5,10.5,0,0,0,1.18,3.65,11,11,0,0,0,2.32,3,11.44,11.44,0,0,0,1.52,1.15l1.67,1.09.12.08.06.14c.76,1.83,1.62,3.66,2.47,5.47.42.92.93,1.78,1.36,2.69S214.11,194.37,214.53,195.29Z"/><path class="cls-43" d="M264.52,163.87l-8.09,21.19,5.76,2.19-4.94,11.28-8-7.29C250.88,178.11,264.52,163.87,264.52,163.87Z"/><path class="cls-43" d="M261.09,252.07a57.24,57.24,0,0,1,7.84.6,78.27,78.27,0,0,1,7.72,1.59,60.78,60.78,0,0,1,14.58,6.05,47.8,47.8,0,0,1,6.47,4.57c1.05.82,2,1.7,3,2.51s2,1.63,3.07,2.41a53.09,53.09,0,0,0,6.6,4.16,22.67,22.67,0,0,0,7.28,2.73,13.69,13.69,0,0,1-3.84-.8,34.27,34.27,0,0,1-3.66-1.5,49.88,49.88,0,0,1-6.82-4c-2.19-1.46-4.2-3.21-6.22-4.84a47.53,47.53,0,0,0-6.4-4.41A63.62,63.62,0,0,0,276.45,255,76.89,76.89,0,0,0,261.09,252.07Z"/><path class="cls-9" d="M199.22,187.63a8,8,0,0,0,6.15-.75,7.92,7.92,0,0,0,2.33-2c.6-.84,1.17-1.79,1.76-2.67l7-10.81,14-21.63a1.5,1.5,0,1,1,2.52,1.64l-.05.07L217.69,172.2l-7.61,10.38c-.65.87-1.24,1.73-1.94,2.6a8.36,8.36,0,0,1-2.59,2A8.21,8.21,0,0,1,199.22,187.63Z"/><path class="cls-39" d="M297.2,164.65a16,16,0,0,1-1.05,5.67l-10,26.09L282,194.83l-19.84-7.58-5.76-2.19,10-26.09a15.93,15.93,0,0,1,30.81,5.68Z"/><path class="cls-34" d="M257.25,198.53l4.94-11.28L282,194.83c-2.27,10.87-5.45,17.85-8.58,22.33a16.64,16.64,0,0,1-17.23,6.62,16.45,16.45,0,0,1-2.67-.83C239,217,229.36,202,224.9,193.42c0,0,11.57-3.91,15.21-10.46Z"/><path class="cls-25" d="M229.26,200.88c1.11,1.5,2.21,3,3.39,4.43s2.35,2.87,3.61,4.23a62.69,62.69,0,0,0,8.12,7.51,42.45,42.45,0,0,0,4.56,3.09,39.89,39.89,0,0,0,4.91,2.52,17.65,17.65,0,0,0,10.81.82,16.17,16.17,0,0,1-5.53.92,16.88,16.88,0,0,1-5.56-1,38.83,38.83,0,0,1-9.8-5.53,51.42,51.42,0,0,1-8.08-7.8A62.58,62.58,0,0,1,229.26,200.88Z"/><path class="cls-25" d="M262.19,187.25a50.14,50.14,0,0,1-2.53,7,47.7,47.7,0,0,1-3.44,6.61,56.16,56.16,0,0,1,6-13.63Z"/><path class="cls-22" d="M215.37,173.9l-5.66,2a3.56,3.56,0,0,1-3.48-.61l0,0a3.57,3.57,0,0,1-.14-5.4,35.7,35.7,0,0,1,16.88-8.7,3.41,3.41,0,0,1,3.64,1.8l6.47,12.49a12.88,12.88,0,0,0,2.8,3.63l4.25,3.86c-3.64,6.55-15.21,10.46-15.21,10.46a67.94,67.94,0,0,1-2.91-6.17l-1.74-1.14a10.79,10.79,0,0,1-4.88-9Z"/><path class="cls-36" d="M215.37,173.9c-1.48.66-3,1.26-4.48,1.87l-1.14.44a3.78,3.78,0,0,1-1.29.24,4,4,0,0,1-2.49-.83h0l0,0,0,0,0,0a4,4,0,0,1-1.51-3.1,4.06,4.06,0,0,1,1.46-3.13,36.07,36.07,0,0,1,5.12-3.85,31.87,31.87,0,0,1,5.75-2.81,26.5,26.5,0,0,1,6.18-1.53,40.75,40.75,0,0,0-5.95,2.1,39.88,39.88,0,0,0-5.47,3,43.74,43.74,0,0,0-5,3.79,3.15,3.15,0,0,0-.09,4.86l0,0h0l0,0,0,0a3.26,3.26,0,0,0,2,.8,3.09,3.09,0,0,0,1.09-.14l1.15-.36C212.26,174.81,213.81,174.33,215.37,173.9Z"/><path class="cls-36" d="M215.37,171.23c.12,1.55.18,3.1.26,4.65a12.5,12.5,0,0,0,.68,4.47,10.89,10.89,0,0,0,2.33,3.77,10.13,10.13,0,0,0,1.69,1.44l1.93,1.28.13.08.06.15c.94,2.36,2.07,4.68,3.19,7s2.37,4.56,3.62,6.82A60.2,60.2,0,0,1,225,194.4a58.06,58.06,0,0,1-3.48-7l.19.23c-.65-.43-1.3-.83-1.95-1.29a10.73,10.73,0,0,1-1.84-1.59,11,11,0,0,1-2.39-4.17,11.93,11.93,0,0,1-.44-2.37,20.61,20.61,0,0,1,0-2.36C215.19,174.33,215.25,172.78,215.37,171.23Z"/><path class="cls-44" d="M51.72,421.24c16.52-.33,33.05-.48,49.57-.73l49.57-.41c16.52-.18,33-.15,49.57-.22l49.57-.13,49.57.13c16.52.07,33.05,0,49.57.21l49.57.42c16.52.25,33.05.39,49.57.73-16.52.35-33,.49-49.57.74l-49.57.42c-16.52.18-33.05.14-49.57.21l-49.57.13-49.57-.13c-16.52-.07-33.05,0-49.57-.22L101.29,422C84.77,421.73,68.24,421.58,51.72,421.24Z"/><path class="cls-45" d="M313.78,257.53v1.06l-.13,0a1,1,0,0,0-.6.05c-.13,0-.3-.1-.37.11a5.44,5.44,0,0,0-1.95,1,7.18,7.18,0,0,0-2.16,4.78.17.17,0,0,0,0,.12v.38l0,.13a1.58,1.58,0,0,1-1,.06c.09,0,.11-.1.1-.19.05-.53.08-1.07.17-1.6.13-.83.1-.87-.69-.7l-1.29.05a18.75,18.75,0,0,1-2.8.32,3.38,3.38,0,0,1-1.61-.15,4.74,4.74,0,0,1-2.56-2.46l-.08-.14a.15.15,0,0,0,0-.11,8,8,0,0,1-.37-1.75,3.44,3.44,0,0,1,0-1.53,7.22,7.22,0,0,1,.61-2.63.12.12,0,0,0,0-.11l.09-.14a5.39,5.39,0,0,1,1.49-1.87,9.26,9.26,0,0,1,2.13-1,7,7,0,0,1,.68-2.44,4.64,4.64,0,0,1,3.14-2.76c.23,0,.35-.27.59-.22.23.22.51.08.76.08a3.4,3.4,0,0,1,2.43.82,5.88,5.88,0,0,1,1.75,4.86c-.11,1.91-.18,3.81-.29,5.71,0,.44.09.57.51.43A4.14,4.14,0,0,1,313.78,257.53Zm-10-4.84-1.06.07c-.31.13-.64.24-.94.39a3.14,3.14,0,0,0-1,.72,5.64,5.64,0,0,0-1.26,4.55c.19,2.07,1.46,3.55,3.68,3.23.66-.09,1.33-.09,2-.13l.15,0,.38-.07,2.48-.13a.56.56,0,0,0,.52-.36,5.69,5.69,0,0,1,1.46-1.9,1.34,1.34,0,0,0,.42-.87c.17-1.06,0-2.14.2-3.19.05-1.4.13-2.81.14-4.21a3.68,3.68,0,0,0-1.59-3.14c-1.24-.87-3.77-.14-4.59,1.18a6.41,6.41,0,0,0-.91,3.77Z"/><path class="cls-46" d="M308.57,264.58a7.18,7.18,0,0,1,2.16-4.78,5.44,5.44,0,0,1,1.95-1,.47.47,0,0,0,.37-.11,1,1,0,0,1,.6-.05l.12.16c0,1.28,0,2.56,0,3.83a2.88,2.88,0,0,0,.83,2.15v.45c-2,.06-4,.05-6,0l-.11-.13v-.38l0,0A.24.24,0,0,0,308.57,264.58Z"/><path class="cls-47" d="M313.78,257.53a4.14,4.14,0,0,0-1.44.19c-.42.14-.53,0-.51-.43.11-1.9.18-3.8.29-5.71a5.88,5.88,0,0,0-1.75-4.86,3.4,3.4,0,0,0-2.43-.82c-.25,0-.53.14-.76-.08.39-.3.83-.13,1.23-.13a6,6,0,0,1,2.56.23,4.56,4.56,0,0,1,2.79,4.32C313.86,252.66,313.78,255.1,313.78,257.53Z"/><path class="cls-48" d="M307.16,262.78c.79-.17.82-.13.69.7-.09.53-.12,1.07-.17,1.6h-5.19a.88.88,0,0,0-.63.12h-.26l-.1,0a4.52,4.52,0,0,1-3-3.15,6.09,6.09,0,0,1-.17-.85l0,0,0-.08v-.26a.45.45,0,0,0,0-.63v-.24c.25,0,.25.34.47.37a.15.15,0,0,1,0,.11l.08.14a4.74,4.74,0,0,0,2.56,2.46,3.38,3.38,0,0,0,1.61.15,18.75,18.75,0,0,0,2.8-.32c.38.48.89.13,1.34.23.08,0,.24,0,.23-.12S307.26,262.83,307.16,262.78Z"/><path class="cls-49" d="M306.59,246a4.64,4.64,0,0,0-3.14,2.76,7,7,0,0,0-.68,2.44,22.81,22.81,0,0,1-2-2.39c-.83-.88-1.41-2-2.32-2.8l-.17-.12c-.09-.34.17-.26.33-.26h7.57C306.43,245.67,306.64,245.7,306.59,246Z"/><path class="cls-50" d="M298.45,246.05c.91.81,1.49,1.92,2.32,2.8a22.81,22.81,0,0,0,2,2.39,9.26,9.26,0,0,0-2.13,1,5.39,5.39,0,0,0-1.49,1.87l-.09.14a.12.12,0,0,1,0,.11c-.42.14-.26.76-.7.89-.1-1.71,0-3.42,0-5.13,0-1.32,0-2.63,0-3.95Z"/><path class="cls-51" d="M301.86,265.2a.88.88,0,0,1,.63-.12h5.19c0,.09,0,.16-.1.19l-4.82,0Z"/><path class="cls-52" d="M298.32,255.27c.44-.13.28-.75.7-.89a7.22,7.22,0,0,0-.61,2.63l-.12,0Z"/><path class="cls-52" d="M298.78,260.29c-.22,0-.22-.37-.47-.37l0-1.34.13,0A8,8,0,0,0,298.78,260.29Z"/><path class="cls-49" d="M298.41,258.54l-.13,0a3.5,3.5,0,0,1,0-1.61l.12,0A3.44,3.44,0,0,0,298.41,258.54Z"/><path class="cls-53" d="M314.63,265.21v-.45c.22,0,.25.29.44.37C314.92,265.29,314.77,265.22,314.63,265.21Z"/><path class="cls-52" d="M298.31,260.16a.45.45,0,0,1,0,.63C298.32,260.58,298.32,260.37,298.31,260.16Z"/><path class="cls-52" d="M298.45,246.05l-.14.14,0-.26Z"/><path class="cls-53" d="M313.77,258.78l-.12-.16.13,0Z"/><path class="cls-52" d="M298.34,261.05l0,.08,0,0A.17.17,0,0,1,298.34,261.05Z"/><path class="cls-51" d="M301.5,265.17l.1,0h-.05Z"/><path class="cls-53" d="M308.56,265.08l.11.13h-.13Z"/><path class="cls-54" d="M310.84,255c-.2,1,0,2.13-.2,3.19a1.34,1.34,0,0,1-.42.87,5.69,5.69,0,0,0-1.46,1.9.56.56,0,0,1-.52.36l-2.48.13c-.33-.42-.64-.84-1-1.25a1.79,1.79,0,0,1-.43-1.58c.24-1.44.39-2.89.57-4.33.07-.08.13-.19.22-.22a24.61,24.61,0,0,1,3.81-.82.71.71,0,0,1,.76.38C310,254.13,310.49,254.5,310.84,255Z"/><path class="cls-55" d="M304.92,254.27c-.18,1.44-.33,2.89-.57,4.33a1.79,1.79,0,0,0,.43,1.58c.34.41.65.83,1,1.25l-.38.07-.15,0c-.67,0-1.34,0-2,.13-2.22.32-3.49-1.16-3.68-3.23a5.64,5.64,0,0,1,1.26-4.55,3.14,3.14,0,0,1,1-.72c.3-.15.63-.26.94-.39.08.26.3.22.49.23a1.17,1.17,0,0,1,.69.12c-.27,2.18-.55,4.36-.79,6.54,0,.34-.32.94.23,1s.4-.57.45-.92c.27-2,.51-4.07.76-6.11C304.79,253.75,304.84,254,304.92,254.27Z"/><path class="cls-49" d="M304.92,254.27c-.08-.25-.13-.52-.38-.65.09-.2.28-.22.46-.24,1.54-.13,3-.54,4.57-.8.32-.05.75-.06.65-.6s-.47-.41-.76-.28c-.85.37-1.36-.08-1.79-.74a.27.27,0,0,1-.06-.1c-.11-.33-.31-.16-.49-.11l-.08-.09c0-.21.47-.36.14-.61s-.37.15-.51.3-.49.6-.72.91-.21.44.16.56a.42.42,0,0,1,.28.32c0,.21-.17.2-.3.21a17.32,17.32,0,0,1-2.15.28l-.05,0a6.41,6.41,0,0,1,.91-3.77c.82-1.32,3.35-2.05,4.59-1.18a3.68,3.68,0,0,1,1.59,3.14c0,1.4-.09,2.81-.14,4.21-.35-.48-.81-.85-1.13-1.37a.71.71,0,0,0-.76-.38,24.61,24.61,0,0,0-3.81.82C305.05,254.08,305,254.19,304.92,254.27Z"/><path class="cls-56" d="M307.16,262.78c.1.05.27,0,.28.16s-.15.13-.23.12c-.45-.1-1,.25-1.34-.23Z"/><path class="cls-56" d="M303.89,253.11a1.17,1.17,0,0,0-.69-.12c-.19,0-.41,0-.49-.23l1.06-.07.14.05C303.91,252.87,303.9,253,303.89,253.11Z"/><path class="cls-53" d="M313.05,258.67a.47.47,0,0,1-.37.11C312.75,258.57,312.92,258.69,313.05,258.67Z"/><path class="cls-49" d="M303.91,252.74l-.14-.05.12-.11.05,0A.2.2,0,0,1,303.91,252.74Z"/><path class="cls-52" d="M299.06,254.27l.09-.14Z"/><path class="cls-52" d="M298.9,260.54l-.08-.14Z"/><path class="cls-54" d="M305.23,261.52l.15,0Z"/><path class="cls-53" d="M308.57,264.58a.24.24,0,0,1,0,.08l0,0A.17.17,0,0,1,308.57,264.58Z"/><path class="cls-57" d="M303.91,252.74a.2.2,0,0,0,0-.11,17.32,17.32,0,0,0,2.15-.28c.13,0,.34,0,.3-.21a.42.42,0,0,0-.28-.32c-.37-.12-.39-.25-.16-.56s.46-.62.72-.91.27-.49.51-.3-.11.4-.14.61c-.08.06-.18.1-.14.22s.08.05.09.05l.13-.18c.18-.05.38-.22.49.11a.27.27,0,0,0,.06.1c.43.66.94,1.11,1.79.74.29-.13.68-.23.76.28s-.33.55-.65.6c-1.53.26-3,.67-4.57.8-.18,0-.37,0-.46.24-.25,2-.49,4.08-.76,6.11,0,.35.09,1-.45.92s-.26-.66-.23-1c.24-2.18.52-4.36.79-6.54C303.9,253,303.91,252.87,303.91,252.74Z"/><path class="cls-49" d="M307.12,250.75l-.13.18s-.09,0-.09-.05.06-.16.14-.22Z"/></g></svg>