<svg xmlns="http://www.w3.org/2000/svg" viewBox="0 0 500 500"><defs><style>.cls-1{fill:#fff;}.cls-2{fill:none;}.cls-3{fill:#44324c;}.cls-4{fill:#350403;}.cls-5{fill:#811476;}.cls-6{fill:#fdebe1;}.cls-7{fill:#e0c9ba;}.cls-8{fill:#ec7a76;}.cls-9{fill:#c26360;}.cls-10{fill:#bcbab8;}.cls-11{fill:#40231a;}.cls-12{fill:#d9dce0;}.cls-13{fill:#472a29;}.cls-14{fill:#fcece1;}.cls-15{fill:#e45051;}.cls-16{fill:#fdc5b1;}.cls-17{fill:#ebac9a;}.cls-18{fill:#6b1a4e;}.cls-19{fill:#640b47;}.cls-20{fill:#e1a8b1;}.cls-21{fill:#fefefe;}.cls-22{fill:#e9e8e9;}.cls-23{fill:#c55182;}.cls-24{fill:#9c175e;}.cls-25{fill:#c45282;}.cls-26{fill:#9b165e;}.cls-27{fill:#980058;}.cls-28{fill:#99095a;}.cls-29{fill:#dbafc6;}.cls-30{fill:#9c165e;}.cls-31{fill:#c55282;}.cls-32{fill:#980255;}.cls-33{fill:#daacc3;}</style></defs><g id="Background"><rect class="cls-1" width="500" height="500"/></g><g id="Object"><path class="cls-2" d="M355.58,78.46h0s0-.11,0-.17Z"/><path class="cls-2" d="M366.6,382.09c2.6,14.81,5.33,28.65,7.47,39.05q19.11,1,38.11,3.56C396.93,414.38,380.72,399.07,366.6,382.09Z"/><path class="cls-3" d="M378,439.62l-.38-1.73c0,.47,0,1.05,0,1.73Z"/><path class="cls-3" d="M360.91,266.3l-4.68-15a156.21,156.21,0,0,1-7-40.52c-2.44-.64-4.8-1.39-7.08-2.2l-6.29,58.13-26.05,1.45c-1,8.11-1.91,15.85-2.49,21.9-5.41,56,17.69,105,33,130.57a188.5,188.5,0,0,0,12.75,19h1.33c1.53-1.3,2.46-2.12,2.46-2.12l20.53-.63c-.67-3.07-1.86-8.58-3.33-15.73-2.14-10.4-4.87-24.24-7.47-39.05,14.12,17,30.33,32.29,45.58,42.61,9.72,6.58,19.05,11.16,27.17,12.8l20.73-.63S390.46,330.31,397,311.14c3.15-9.28,8.44-23.13,11.8-39.83Z"/><path class="cls-4" d="M374.13,77.53a8.33,8.33,0,0,1,2.18.72l.92.34,1,.38.37.14a8.47,8.47,0,0,0-4.45-1.68v.1Z"/><path class="cls-4" d="M356.34,75.35h0l-.18.82h0l.06-.2c.14-.53.3-1.08.46-1.65l0-.1c.16-.58.33-1.17.51-1.79v-.06l.56-1.94v0h0c0-.14.07-.27.11-.41-1-1.95-1.25-7.65-.9-11.34a4.62,4.62,0,0,1-1.46-3.06.3.3,0,0,1-.06-.31c.09-.18.38-.35,2.39-.12a12.8,12.8,0,0,0,.74-3.64c2.65,1.56,9.94.87,10,1,.29,1,4.17,2.58,4.74,2.13h0v0a1.24,1.24,0,0,0,.46-.85,2,2,0,0,1,1.44-.76l.6.14a.92.92,0,0,0,.5,0c1.22.52,2.16,2.34-.72,4.67,0,0-7.27,7.43-4.64,13.32,1.65,3.69,2.78,4.37,3.07,4.49,0,.29,0,.58,0,.87l.06-.84a10.58,10.58,0,0,1,8.16,5A59.75,59.75,0,0,1,394.41,88c-4.12-8.5-9.7-21.66-11.78-34.27-3.28-19.84-22.26-13.21-22.26-13.21-5.9.22-9.25,6.28-8.21,13.43s-7.7,16-.29,21.66c.22.17.48.35.76.54A8.8,8.8,0,0,1,356.34,75.35Z"/><path class="cls-4" d="M357.72,55.53a9.06,9.06,0,0,0-1.68-.08v.07a4.72,4.72,0,0,0,1,2.61,7.19,7.19,0,0,1,.6-2.53S357.71,55.55,357.72,55.53Z"/><path class="cls-5" d="M349.2,210.79c-.08-2.06-.15-4.13-.15-6.21l-.64-.06c.21-2.7.46-5.45.72-8.22-1.94-.2-3.81-.45-5.6-.73l-1.41,13C344.4,209.4,346.76,210.15,349.2,210.79Z"/><path class="cls-5" d="M367.44,97l.1,0c1.1-2.92,2.06-5.58,2.88-7.94-3.42,2.73-8.1,5.8-10.92,4.82-4.83-1.67-5.49-7.57-4.6-12.43.12-.65.36-1.67.69-2.94h0c-.06.2-.13.4-.19.6-.26.87-.52,1.76-.75,2.61l-.09.34a100.18,100.18,0,0,0-2.26,11.08v0c-.15,1-.27,2-.38,3,0,.54-.1,1.06-.15,1.58s-.08.81-.11,1.2a67.62,67.62,0,0,0,.53,16.78l-6.05,56c2.11-.94,4.18-2,6.2-3.14,3.87-29.47,8.59-55.23,8.59-55.23,2.6-6,4.79-11.46,6.6-16.27Z"/><path class="cls-5" d="M376.53,78.35c.57.2,1.13.41,1.68.62l-1-.38-.92-.34Z"/><path class="cls-6" d="M355.79,77.67h0c-.14.47-.26.92-.4,1.39.06-.2.13-.4.19-.6l.05-.18C355.68,78.08,355.74,77.88,355.79,77.67Z"/><path class="cls-6" d="M355.79,77.67v0c.05-.2.11-.41.16-.62-.92.09-6.51,1-10.29,8.13Z"/><path class="cls-6" d="M351.64,98.9c-.83,10.43.53,16.78.53,16.78A67.62,67.62,0,0,1,351.64,98.9Z"/><path class="cls-6" d="M354.64,81.67l-.09.34Z"/><path class="cls-6" d="M352.29,93.09v0Z"/><path class="cls-6" d="M351.9,96.12c-.06.55-.1,1.06-.15,1.58C351.8,97.18,351.85,96.66,351.9,96.12Z"/><path class="cls-6" d="M376.53,78.35a15.8,15.8,0,0,1,4.8,4c-.07-.13-.12-.27-.19-.39a9.8,9.8,0,0,0-2.56-2.85l-.37-.14C377.66,78.76,377.1,78.55,376.53,78.35Z"/><path class="cls-6" d="M367.54,96.94l-.1,0,.09,0Z"/><path class="cls-6" d="M367.53,97l0,0,6,2.15a8.22,8.22,0,0,1,7.56-1.51,28.08,28.08,0,0,0,1.14-3.34Z"/><polygon class="cls-6" points="367.51 97.01 367.51 97.01 367.44 96.99 367.51 97.01"/><path class="cls-7" d="M307.29,162.16s8.24-26,10.19-34.7h0v0c.05-.22.09-.42.13-.62l5.74-27c-4.76,5.35-7.83,22.77-8.34,25.09C312.32,136.44,309.53,150.36,307.29,162.16Z"/><path class="cls-8" d="M360.7,57.56c.06-.24.13-.48.22-.74s-.24-.94-2.81-1.25l-.39,0s0,0,0,.07a7.19,7.19,0,0,0-.6,2.53,2.36,2.36,0,0,0,1.39.74C360.28,59.15,360.43,58.59,360.7,57.56Z"/><polygon class="cls-8" points="356.19 76.18 356.19 76.18 356.19 76.17 356.19 76.18"/><path class="cls-8" d="M357.25,72.37l.56-1.94Z"/><path class="cls-8" d="M356.25,76c.14-.53.3-1.08.46-1.65C356.55,74.89,356.39,75.44,356.25,76Z"/><path class="cls-8" d="M367.77,68.38s-5,11.25-12,9.29c-.05.21-.11.41-.16.61s0,.12,0,.17c-.33,1.27-.57,2.29-.69,2.94-.89,4.86-.23,10.76,4.6,12.43,2.82,1,7.5-2.09,10.92-4.82,2.49-7.15,3.71-11.47,3.71-11.47v-.1h-.08l.05-.85c0-.29,0-.58,0-.87-.29-.12-1.42-.8-3.07-4.49-2.63-5.89,4.64-13.32,4.64-13.32,2.88-2.33,1.94-4.15.72-4.67a.92.92,0,0,1-.5,0l-.6-.14a2,2,0,0,0-1.44.76,1.24,1.24,0,0,1-.46.85v0h0c-.57.45-4.45-1.1-4.74-2.13,0-.14-7.33.55-10-1a12.8,12.8,0,0,1-.74,3.64l.25,0c2.29.27,3,1,3.16,1.37l2.24.35c.32-.33,1.16-.78,3.42-.35s2.46.69,2.49.9a.26.26,0,0,1-.15.27c-.19.47-1.36,3-3.83,2.63C363.25,60,363.3,59,363.35,58c0-.23,0-.47,0-.73l-2-.31c-.09.24-.15.48-.21.7-.27,1-.52,1.94-2.75,1.6a3,3,0,0,1-1.39-.61c-.35,3.69-.14,9.39.9,11.34,0,.14-.08.27-.11.41l.25-.15S363,75.08,367.77,68.38Z"/><path class="cls-8" d="M356.73,74.22c.16-.58.33-1.18.51-1.79C357.06,73.05,356.89,73.64,356.73,74.22Z"/><path class="cls-8" d="M356,77h0c0,.21-.11.42-.16.62C355.85,77.45,355.91,77.24,356,77Z"/><path class="cls-8" d="M365.54,60c2.26.35,3.33-2.43,3.34-2.46l0-.06a9,9,0,0,0-2-.52c-2.53-.49-3,.22-3.05.34a6.49,6.49,0,0,1,0,.77C363.77,59.11,363.75,59.69,365.54,60Z"/><path class="cls-9" d="M355.79,77.67h0c7,2,12-9.29,12-9.29-4.76,6.7-9.7,1.87-9.7,1.87l-.25.15h0v0l-.56,1.94v.06c-.18.61-.35,1.21-.51,1.79l0,.1c-.16.57-.32,1.12-.46,1.65l-.06.2h0l-.09.84H356c0,.21-.11.42-.16.62Z"/><path class="cls-7" d="M384.06,94l3.72-.68a49,49,0,0,0-3.3-6.52A20.72,20.72,0,0,1,384.06,94Z"/><path class="cls-7" d="M367.44,97l.07,0,0,0Z"/><path class="cls-7" d="M370.24,102.88a11.71,11.71,0,0,1,3.3-3.72l-6-2.15h0c-1.81,4.81-4,10.29-6.6,16.27l9.19-9.4.47-.82Z"/><path class="cls-7" d="M376.53,78.35l-.22-.1a8.33,8.33,0,0,0-2.18-.72h0s-1.22,4.32-3.71,11.47c-.82,2.36-1.78,5-2.88,7.94v0l14.71-2.66c1.18-4.53.88-8.71-.91-12A15.8,15.8,0,0,0,376.53,78.35Z"/><path class="cls-7" d="M351.64,98.9c0-.39.07-.8.11-1.2s.09-1,.15-1.58c.11-1,.23-2,.38-3v0A100.18,100.18,0,0,1,354.55,82l.09-.34c.23-.85.49-1.74.75-2.61.14-.47.26-.92.4-1.39l-10.12,7.49a25.58,25.58,0,0,0-1.4,3.3L349,93.75l-5.25,1.1,8.46,20.83S350.81,109.33,351.64,98.9Z"/><path d="M361.17,57.66c.06-.22.12-.46.21-.7l2,.31c0,.26,0,.5,0,.73-.05,1-.1,2,2.13,2.36,2.47.38,3.64-2.16,3.83-2.63a.26.26,0,0,0,.15-.27c0-.21-.25-.48-2.49-.9s-3.1,0-3.42.35l-2.24-.35c-.2-.41-.87-1.1-3.16-1.37l-.25,0c-2-.23-2.3-.06-2.39.12a.3.3,0,0,0,.06.31A4.62,4.62,0,0,0,357,58.65a3,3,0,0,0,1.39.61C360.65,59.6,360.9,58.66,361.17,57.66Zm2.65.39a6.49,6.49,0,0,0,0-.77c.06-.12.52-.83,3.05-.34a9,9,0,0,1,2,.52l0,.06s-1.08,2.81-3.34,2.46C363.75,59.69,363.77,59.11,363.82,58.05Zm-6.73.08a4.72,4.72,0,0,1-1-2.61v-.07a9.06,9.06,0,0,1,1.68.08l.39,0c2.57.31,2.79,1.12,2.81,1.25s-.16.5-.22.74c-.27,1-.42,1.59-2.22,1.31A2.36,2.36,0,0,1,357.09,58.13Z"/><path class="cls-10" d="M370.57,103.06l-.47.82-5.5,9.82a1.87,1.87,0,0,0,.36,2.66l1.89,1.4.47-.83a.2.2,0,0,1,.1-.08l-1.85-1.38c-.13-.08-.5-.42,0-1.25l6-10.64Z"/><path class="cls-11" d="M366.85,117.76l-.14.24a.23.23,0,0,0,.09.31l1.58.89a.23.23,0,0,0,.31-.09l.6-1.07a.22.22,0,0,0-.08-.31l-1.59-.89a.2.2,0,0,0-.2,0,.2.2,0,0,0-.1.08Z"/><path class="cls-10" d="M377.05,120.7c-.46.83-.95.69-1.08.62l-2.44-1s0,.06,0,.08l-.49.88,2.5,1a1.85,1.85,0,0,0,2.45-1.07l6-10.64-.94-.52Z"/><path class="cls-11" d="M373.53,120.34a.23.23,0,0,0-.09-.23l-1.59-.89a.23.23,0,0,0-.31.09l-.6,1.07a.23.23,0,0,0,.09.31l1.58.89a.23.23,0,0,0,.31-.09l.11-.19.49-.88S373.53,120.37,373.53,120.34Z"/><path class="cls-11" d="M338.93,97.13a2.31,2.31,0,1,0,3.15-.85A2.31,2.31,0,0,0,338.93,97.13Z"/><path d="M374.16,75.73l-.06.84-.05.85h.08a8.47,8.47,0,0,1,4.45,1.68A9.8,9.8,0,0,1,381.14,82c.07.12.12.26.19.39,1.79,3.25,2.09,7.43.91,12a28.08,28.08,0,0,1-1.14,3.34,8.22,8.22,0,0,0-7.56,1.51,11.71,11.71,0,0,0-3.3,3.72l.33.18.93.52.33.19c2.21-4,6.45-5.79,9.45-4.1s3.63,6.27,1.42,10.21l.32.19.94.52.32.18c2.59-4.61,1.8-10-1.67-12.36A28.94,28.94,0,0,0,384.06,94a20.72,20.72,0,0,0,.42-7.2,14.45,14.45,0,0,0-1.89-5.69l-.27-.4A10.58,10.58,0,0,0,374.16,75.73Z"/><path d="M341,94.8a3.48,3.48,0,1,0,1.65.45h0a34.65,34.65,0,0,1,1.62-6.78,25.58,25.58,0,0,1,1.4-3.3C349.45,78,355,77.12,356,77h.14l.09-.84h0l.18-.82h0a8.8,8.8,0,0,0-3.71.83,14.81,14.81,0,0,0-2.82,1.54l-.09.07C346.49,80.09,342.44,84.9,341,94.8Zm1.92,4.63a2.31,2.31,0,1,1-.85-3.15A2.3,2.3,0,0,1,342.93,99.43Z"/><path class="cls-12" d="M349.05,204.58c20.79,2.26,49.29-1.29,66.9-30.91.62-3.67,1.15-7.65,1.56-11.81-17.25,32.6-46.83,36.66-68.38,34.44-.26,2.77-.51,5.52-.72,8.22Z"/><path class="cls-8" d="M314.41,176.8s-1.84,8.09,2.7,11,10.92,2.8,10.92,2.8l-.64-12.54S317.23,173.75,314.41,176.8Z"/><path class="cls-13" d="M354.41,439.62c-6.15,5.21-22.2,18.35-28.94,19.55a3.64,3.64,0,0,0-2.8,3.49c-.1,1.79.74,3.81,4.51,4.71,5.85,1.4,32.95-1.43,44.74-2.77a6.3,6.3,0,0,0,5.6-6.14c.05-2.72.12-6.17.19-9.72.06-2.38,0-6.42,0-9.12,0-.68,0-1.26,0-1.73,0-.63,0-1,0-1h-.21l-20.53.63S355.94,438.32,354.41,439.62Z"/><path class="cls-13" d="M439.35,437.5s-23,20.17-31.4,21.67a3.66,3.66,0,0,0-2.81,3.49c-.09,1.79.75,3.81,4.52,4.71,5.85,1.4,32.95-1.43,44.73-2.77a6.29,6.29,0,0,0,5.6-6.14c.06-2.72.12-6.17.2-9.72.06-2.72,0-7.63-.07-10.2,0-1,0-1.67,0-1.67Z"/><path class="cls-2" d="M232.36,112.92s0,0,0,0c1.18,14.18,1.51,27.9,1.54,38.34C240,140,246,122.19,232.1,110.45c.05.53.09,1,.14,1.58l.13.15A.51.51,0,0,1,232.36,112.92Z"/><path class="cls-2" d="M185.33,34.08c-2.24-.64-4.91-2.21-5.83-3.76-.13-.22-.25-.47-.37-.73a10.68,10.68,0,0,0-7.08,3.75,20.59,20.59,0,0,0-3,5.78l-3.84,9.62,11.94.15c1.17-1.46,4.81-8.24,7.41-13.17Z"/><path class="cls-2" d="M179,408.1c11.63-1.37,22.95-2.36,33.45-3.25-13.89-58.32-21.06-106-24.48-143.51Z"/><path class="cls-2" d="M135.35,156.91s.07,0,.11,0c-.12-.88-.23-1.76-.34-2.63Z"/><path class="cls-2" d="M307.29,290.07c.58-6.05,1.48-13.79,2.49-21.9l-10.45.59,0-69s2.19-14.1,6.25-33.2c-17.82,18.28-45,17.58-45,17.58s-.55.34-1.48.8c16.71,13.42,20.73,34.73,20.78,35l-4.59.82c-.22-1.17-5.73-21.5-22.67-33.68l-.82.12-.38.22-.27-.17q-.69,0-1.38,0a6.84,6.84,0,0,1-4.75-2.52c.19,1.56.36,3.16.51,4.84,4.67,54.14-.09,161.07-3,214.3a42.52,42.52,0,0,1,11.54,3c6,2.55,11.32,6.69,17.18,9.59,16,7.9,34.25,6,51.69,4.88,5.78-.36,11.57-.57,17.36-.71C325,395,301.88,346.09,307.29,290.07Z"/><path class="cls-2" d="M243.89,176.7a18,18,0,0,1,4.73-2c-2.46-5.62-5.85-8.17-7.87-9.23a75.45,75.45,0,0,1,3,11.17Z"/><path class="cls-14" d="M460.12,438.54c.05,2.57.13,7.48.07,10.2-.08,3.55-.14,7-.2,9.72a6.29,6.29,0,0,1-5.6,6.14c-11.78,1.34-38.88,4.17-44.73,2.77-3.77-.9-4.61-2.92-4.52-4.71a3.66,3.66,0,0,1,2.81-3.49c8.42-1.5,31.4-21.67,31.4-21.67-8.12-1.64-17.45-6.22-27.17-12.8q-19-2.59-38.11-3.56c1.47,7.15,2.66,12.66,3.33,15.73h.21s0,.39,0,1l.38,1.73h-.35c0,2.7.11,6.74,0,9.12-.07,3.55-.14,7-.19,9.72a6.3,6.3,0,0,1-5.6,6.14c-11.79,1.34-38.89,4.17-44.74,2.77-3.77-.9-4.61-2.92-4.51-4.71a3.64,3.64,0,0,1,2.8-3.49c6.74-1.2,22.79-14.34,28.94-19.55h-1.33a188.5,188.5,0,0,1-12.75-19c-5.79.14-11.58.35-17.36.71-17.44,1.08-35.72,3-51.69-4.88-5.86-2.9-11.2-7-17.18-9.59a42.52,42.52,0,0,0-11.54-3c-1,19.37-1.84,31.64-1.84,31.64s23,20.17,31.4,21.66a3.68,3.68,0,0,1,2.81,3.5c.1,1.79-.75,3.8-4.51,4.71-5.85,1.4-33-1.44-44.74-2.77a6.29,6.29,0,0,1-5.6-6.14c-.05-2.72-.12-6.18-.2-9.72-.08-3.8.11-11.87.11-11.87q-4.05-15.48-7.51-30c-10.5.89-21.82,1.88-33.45,3.25l-1.75,28.63-.23,0c.07.5,1.08,8.08,1.41,11.74s.62,7,.87,9.68a6.3,6.3,0,0,1-4.9,6.72c-11.57,2.62-38.19,8.42-44.16,7.67-3.84-.48-4.9-2.39-5-4.18a3.68,3.68,0,0,1,2.4-3.79c8.21-2.4,28.84-25,28.84-25s-1.91-11-4.8-27.51c-31.91,5.8-63.37,16.08-84.7,36.64C61.59,454,56.45,461,56.92,468.93c.8,13.73,16.25,19.16,28.56,20.12,35.68,2.75,71.5-2.59,107.23-1,26.92,1.21,53.9,6.36,80.69,3,13-1.61,25.76-5.19,38.75-6.86,47.39-6.06,98.94,12.95,141.19-11.72,5.56-3.25,11.18-7.75,12.93-14.47C468.09,451.05,465,443.5,460.12,438.54Z"/><path class="cls-6" d="M305.6,166.51c-4.06,19.1-6.25,33.2-6.25,33.2l0,69,10.45-.59,26.05-1.45,6.29-58.13,1.41-13c1.79.28,3.66.53,5.6.73,21.55,2.22,51.13-1.84,68.38-34.44-.41,4.16-.94,8.14-1.56,11.81-17.61,29.62-46.11,33.17-66.9,30.91,0,2.08.07,4.15.15,6.21a156.21,156.21,0,0,0,7,40.52l4.68,15,47.87,5,10.36,1.09-9.25-69.89.42-5.06a176.55,176.55,0,0,0,7.21-35.62c.08-.25,10.07-32.41-7.47-54.38A56.23,56.23,0,0,0,394.41,88a59.75,59.75,0,0,0-12.09-7.34l.27.4a14.45,14.45,0,0,1,1.89,5.69,49,49,0,0,1,3.3,6.52l-3.72.68a28.94,28.94,0,0,1-1.45,4.43c3.47,2.36,4.26,7.75,1.67,12.36l-.32-.18-6,10.64a1.85,1.85,0,0,1-2.45,1.07l-2.5-1-.11.19a.23.23,0,0,1-.31.09l-1.58-.89a.23.23,0,0,1-.09-.31l.6-1.07a.23.23,0,0,1,.31-.09l1.59.89a.23.23,0,0,1,.09.23l2.44,1c.13.07.62.21,1.08-.62l6-10.63-.32-.19c2.21-3.94,1.58-8.53-1.42-10.21s-7.24.15-9.45,4.1l-.33-.19-6,10.64c-.46.83-.09,1.17,0,1.25l1.85,1.38a.2.2,0,0,1,.2,0l1.59.89a.22.22,0,0,1,.08.31l-.6,1.07a.23.23,0,0,1-.31.09l-1.58-.89a.23.23,0,0,1-.09-.31l.14-.24-1.89-1.4a1.87,1.87,0,0,1-.36-2.66l5.5-9.82-9.19,9.4s-4.72,25.76-8.59,55.23c-2,1.14-4.09,2.2-6.2,3.14l6.05-56-8.46-20.83,5.25-1.1-4.69-5.29a34.65,34.65,0,0,0-1.62,6.78h0A3.52,3.52,0,1,1,341,94.8c1.43-9.9,5.48-14.71,8.71-17-2,.48-4.18,1.07-6.41,1.76-.71.13-17.83,3.39-28.08,18.26-10.85,15.74-32.93,61.24-61.57,75.82l6.92,10.46S287.78,184.79,305.6,166.51ZM328,190.61s-6.38.13-10.92-2.8-2.7-11-2.7-11c2.82-3.05,13,1.27,13,1.27Zm-4.67-90.83-5.74,27c0,.2-.08.4-.13.62v0h0c-2,8.68-10.18,34.67-10.19,34.7,2.24-11.8,5-25.72,7.73-37.29C315.53,122.55,318.6,105.13,323.36,99.78Z"/><path class="cls-8" d="M250.17,179.22a31.14,31.14,0,0,0-1.55-4.51,18,18,0,0,0-4.73,2A47,47,0,0,1,250.17,179.22Z"/><path class="cls-3" d="M240.75,165.48a8.38,8.38,0,0,0-1-.47c-1.93,1.42-3.92,2.83-6,4.21a25.42,25.42,0,0,1-2.56,5.13,53.52,53.52,0,0,1,12.63,2.3A75.45,75.45,0,0,0,240.75,165.48Z"/><path class="cls-3" d="M177.05,436.71v.05l.23,0L179,408.1l9-146.76c3.42,37.49,10.59,85.19,24.48,143.51q3.48,14.58,7.51,30l20.73.63s.8-12.27,1.84-31.64c2.88-53.23,7.64-160.16,3-214.3-.15-1.68-.32-3.28-.51-4.84-.07-.52-.12-1-.19-1.54l-1.34-.86v-.42a48.81,48.81,0,0,0-16-3.74l-.25.16-.12.09c-7.52,10.62-22.41,24.2-45.51,24.42-32.05.3-41.85-24-44.61-34.72-6,12.21-20.64,48.44-11.63,95.62,4.67,24.41,18.85,105.32,26.37,148.36,2.89,16.55,4.8,27.51,4.8,27.51Z"/><path class="cls-4" d="M158.17,49a10.24,10.24,0,0,1,2.55-.31l4.46.05L169,39.12a20.59,20.59,0,0,1,3-5.78,10.68,10.68,0,0,1,7.08-3.75c.12.26.24.51.37.73.92,1.55,3.59,3.12,5.83,3.76l-.8,1.64c-.64,1.29-1.17,2.3-1.42,2.69,2-.12,5.77-1.29,6.86-7.43.36-2,2.5-3.3,3-5.29.06-.23.14-.5.35-.59a.84.84,0,0,1,.6.06c1.78.63,4,.73,5.47-.49,3.11-2.63,8.88.33,10.18.93a27.67,27.67,0,0,0-3,5.17c.59.07,1.1-.14,1.38-1.21.14-.54,4.58-3.35,3.41-10.38-.7-4.26-5.78-7.22-7.79-7.87A10.3,10.3,0,0,0,201,10.9a20.1,20.1,0,0,0-3.47.11c-4.43.52-8.47-.46-11.43.7a15,15,0,0,0-1.93.93c-2.81-.21-8,1.69-10.82.69-4.11-1.43-8.2-3.24-12.54-3.44A21.71,21.71,0,0,0,148,13.84a41.89,41.89,0,0,0-9.67,9.54c-3,3.85-5.58,8-9,11.48a39.13,39.13,0,0,1-9.78,7.2c-3.49,1.85-8.87,1.52-14.1-1.94a3.72,3.72,0,0,0-5.63,3c-.6,7,2.63,15.16,8.56,21.13a37,37,0,0,0,4,3.45C131.65,48.77,158.17,49,158.17,49Zm51.29-23.65.2.16Zm-20.92-4.49c.74-.09,1.31.64,1.69,1.4A19,19,0,0,0,189,25.92c-.1.33-.54,1.35-1.13,2.66l-.72-2.6C185.13,22.83,187.05,21,188.54,20.86Z"/><path class="cls-13" d="M156.51,439.62s-20.63,22.58-28.84,25a3.68,3.68,0,0,0-2.4,3.79c.1,1.79,1.16,3.7,5,4.18,6,.75,32.59-5.05,44.16-7.67a6.3,6.3,0,0,0,4.9-6.72c-.25-2.71-.56-6.15-.87-9.68s-1.34-11.24-1.41-11.74v-.05Z"/><path class="cls-13" d="M219.88,446.76c.08,3.54.15,7,.2,9.72a6.29,6.29,0,0,0,5.6,6.14c11.79,1.33,38.89,4.17,44.74,2.77,3.76-.91,4.61-2.92,4.51-4.71a3.68,3.68,0,0,0-2.81-3.5c-8.42-1.49-31.4-21.66-31.4-21.66L220,434.89S219.8,443,219.88,446.76Z"/><path class="cls-15" d="M135.12,154.24c.11.87.22,1.75.34,2.63a.85.85,0,0,0,.29-.19c-.57-13.69-1.27-21.05,5.9-31.32,3.42-2.66,34.32-24.94,77.75-.4a27,27,0,0,1,14.4,23.62c0,.11,0,.21,0,.32,0,.77,0,1.57,0,2.41h0A77.66,77.66,0,0,1,227,161.84l6.66,7.38c2.12-1.38,4.11-2.79,6-4.21,1.41-1,2.78-2.08,4.09-3.14,45.12-36.52,31.36-85.05-3.48-104.41-11.2-6.22-25-8.11-25-8.11l-16.55-.2c-.57,4-1.1,7.38-1.45,8.85-1.23,5.15-5.45,8-12.11,5.81C180,62.09,177,49.06,177,49.06s.09-.12.14-.17l-11.94-.15-4.46-.05a10.24,10.24,0,0,0-2.55.31h0s-26.52-.22-45.78,18.66a58.08,58.08,0,0,0-8.79,11c-9.74,15.68-19.79,40.84-5.75,76.7l9-4.24s4.66-24.25,17.71-37.29a102.78,102.78,0,0,1,11.6-9l-.73-.44c8.2-13.62,12.62-36.54,12.66-36.77l1.15.22c0,.23-4.46,23.17-12.7,37a173.49,173.49,0,0,0-1.63,47.51H135Zm86.1-83.46c-.54,5.71-1.71,28,11,41.25-.05-.53-.09-1-.14-1.58C246,122.19,240,140,233.86,151.28c0-10.44-.36-24.16-1.54-38.34a.52.52,0,0,1-.36.13.5.5,0,0,1-.34-.16c-7.92-8.12-10.57-19.56-11.39-27.73a72.84,72.84,0,0,1,.1-15.91.51.51,0,0,1,.37-.38Zm-7.46,30.87a.51.51,0,0,1,.72.19c.06.1,6.5,10.88,16.72,11.92a.52.52,0,0,1,.47.57.52.52,0,0,1-.56.47h0c-10.76-1.09-17.26-12-17.53-12.43A.53.53,0,0,1,213.76,101.65ZM187.14,66.07a9.63,9.63,0,0,0,7.92-1c5.09-3.22,6.59-11,6.6-11.11a.53.53,0,0,1,.56-.43h.05a.51.51,0,0,1,.42.61c-.06.34-1.58,8.33-7.06,11.81a10.08,10.08,0,0,1-6.3,1.53,13.82,13.82,0,0,1-2.45-.42.53.53,0,1,1,.26-1Z"/><path class="cls-16" d="M187.89,28.58c.59-1.31,1-2.33,1.13-2.66a19,19,0,0,1,1.21-3.66c-.38-.76-.95-1.49-1.69-1.4-1.49.18-3.41,2-1.37,5.12Z"/><path class="cls-17" d="M196.5,44.46c-1.46.5-5.51-2-7.15-7.82a9.23,9.23,0,0,1-.23-1.07c-.79,4.59-.29,11.91,9.39,15.58.41-2.8.86-6.06,1.3-9.37A10.33,10.33,0,0,1,196.5,44.46Z"/><path class="cls-16" d="M209.66,25.51l-.2-.16Z"/><path class="cls-16" d="M199.41,24.67c-1.44,1.22-3.69,1.12-5.47.49a.84.84,0,0,0-.6-.06c-.21.09-.29.36-.35.59-.52,2-2.66,3.27-3,5.29-1.09,6.14-4.81,7.31-6.86,7.43.25-.39.78-1.4,1.42-2.69-2.6,4.93-6.24,11.71-7.41,13.17-.05,0-.1.13-.14.17s3.05,13,8.26,14.75c6.66,2.2,10.88-.66,12.11-5.81.35-1.47.88-4.81,1.45-8.85.33-2.31.67-4.83,1-7.37,2.95-3.18,6.27-8.16,6.37-9.67a4.78,4.78,0,0,1,.37-1.34,27.67,27.67,0,0,1,3-5.17C208.29,25,202.52,22,199.41,24.67Zm-.9,26.48c-9.68-3.67-10.18-11-9.39-15.58a9.23,9.23,0,0,0,.23,1.07C191,42.47,195,45,196.5,44.46a10.33,10.33,0,0,0,3.31-2.68C199.37,45.09,198.92,48.35,198.51,51.15Z"/><path d="M231.1,114.8h0a.52.52,0,0,0,.56-.47.52.52,0,0,0-.47-.57c-10.22-1-16.66-11.82-16.72-11.92a.51.51,0,0,0-.72-.19.53.53,0,0,0-.19.72C213.84,102.83,220.34,113.71,231.1,114.8Z"/><path d="M186.88,67.09a13.82,13.82,0,0,0,2.45.42,10.08,10.08,0,0,0,6.3-1.53c5.48-3.48,7-11.47,7.06-11.81a.51.51,0,0,0-.42-.61h-.05a.53.53,0,0,0-.56.43c0,.08-1.51,7.89-6.6,11.11a9.63,9.63,0,0,1-7.92,1,.53.53,0,1,0-.26,1Z"/><path d="M220.33,69.27a72.84,72.84,0,0,0-.1,15.91c.82,8.17,3.47,19.61,11.39,27.73a.5.5,0,0,0,.34.16.52.52,0,0,0,.36-.13s0,0,0,0a.51.51,0,0,0,0-.74l-.13-.15c-12.73-13.22-11.56-35.54-11-41.25l-.52-1.89A.51.51,0,0,0,220.33,69.27Z"/><path d="M149.22,67.76l-1.15-.22c0,.23-4.46,23.15-12.66,36.77l.73.44.28.17.1-.17C144.76,90.93,149.18,68,149.22,67.76Z"/><path class="cls-16" d="M181.58,202.85c23.1-.22,38-13.8,45.51-24.42l.12-.09.25-.16a13,13,0,0,0,3.67-3.83,25.42,25.42,0,0,0,2.56-5.13L227,161.84a54.68,54.68,0,0,0-9,6.34h0s-4.53-1.48-7-.5c-1.81.73,1.25,3.28,3,4.55-1.92,1.73-6.47,6-5.49,7.35,3.6,4.77,14.37,1.65,15.07,1.43l-4.31,3.26s-11.42,3.52-15.14-1.41c-.94-1.25,3.13-5.21,5.17-7.06l0-.07c-5.85.37-11.31.54-16.41.54-31.81,0-49.36-6.64-56.93-13a41,41,0,0,0,1,4.83C139.73,178.85,149.53,203.15,181.58,202.85Z"/><path class="cls-16" d="M233.84,151.31c0-.84,0-1.64,0-2.41,0,.77,0,1.57,0,2.42Z"/><path class="cls-16" d="M208,170.67a5.69,5.69,0,0,1,.59-3.34c2.3-3.86,6.91-.91,13.47-5.86,4.12-3.11,4.14-7.09,7.51-9.74a14.16,14.16,0,0,0,4.06-5.39c.07.72.12,1.47.15,2.24A27,27,0,0,0,219.4,125c-43.43-24.54-74.33-2.26-77.75.4-7.17,10.27-6.47,17.63-5.9,31.32a.93.93,0,0,0,.33-.62c0,.29.49,1.52,2.48,3.28,4,3.57,20.48,14.46,67.82,11.86a1,1,0,0,1,.33-.25A4.83,4.83,0,0,1,208,170.67Z"/><path class="cls-14" d="M192.92,176.26c5.1,0,10.56-.17,16.41-.54-.09-.22-.17-.45-.26-.68-1.54-1.22-3.47-3-2.69-3.84-47.34,2.6-63.78-8.29-67.82-11.86-2-1.76-2.47-3-2.48-3.28a.93.93,0,0,1-.33.62.85.85,0,0,1-.29.19s-.08,0-.11,0l-.23-2.67-.16-2h-.07a3.76,3.76,0,0,0-3.47,4.19c.17,2,1.6,4.38,4.57,6.85C143.56,169.62,161.11,176.26,192.92,176.26Z"/><path class="cls-17" d="M233.84,151.32c0-.85,0-1.65,0-2.42,0-.11,0-.21,0-.32,0-.77-.08-1.52-.15-2.24a14.16,14.16,0,0,1-4.06,5.39c-3.37,2.65-3.39,6.63-7.51,9.74-6.56,4.95-11.17,2-13.47,5.86a5.69,5.69,0,0,0-.59,3.34,4.83,4.83,0,0,0-1.31.28,1,1,0,0,0-.33.25c-.78.83,1.15,2.62,2.69,3.84.09.23.17.46.26.68l0,.07c-2,1.85-6.11,5.81-5.17,7.06,3.72,4.93,15.14,1.41,15.14,1.41l4.31-3.26c-.7.22-11.47,3.34-15.07-1.43-1-1.31,3.57-5.62,5.49-7.35-1.71-1.27-4.77-3.82-3-4.55,2.43-1,7,.5,7,.5h0a54.68,54.68,0,0,1,9-6.34A77.66,77.66,0,0,0,233.84,151.32Z"/><path class="cls-14" d="M239.73,165a8.38,8.38,0,0,1,1,.47c2,1.06,5.41,3.61,7.87,9.23a31.14,31.14,0,0,1,1.55,4.51,47,47,0,0,0-6.28-2.52l-.13,0a53.52,53.52,0,0,0-12.63-2.3,13,13,0,0,1-3.67,3.83,48.81,48.81,0,0,1,16,3.74v-.55s7.56-1.94,11.64-1.58a38,38,0,0,0-1.86-6.1c-2.68-6.65-6.58-10.08-9.45-11.82C242.51,162.93,241.14,164,239.73,165Z"/><path class="cls-14" d="M275.29,220.74l4.59-.82c-.05-.3-4.07-21.61-20.78-35-.72-.58-1.46-1.14-2.23-1.69a20.89,20.89,0,0,1-4.54,3.64l.29.22C269.56,199.24,275.07,219.57,275.29,220.74Z"/><path class="cls-16" d="M100.31,166.23l2.21,3.79s9.19,7.66,14.51,4.54c1.42-.83-1.12-6.56-2.23-8.9,2.06-.51,5.87-1.69,4.49-3-1.87-1.85-6.62-2.23-6.62-2.23h0a54.61,54.61,0,0,0-5.83-9.31l-9,4.24S97.34,162.3,100.31,166.23Z"/><path class="cls-8" d="M243.49,181.37v1l1.34.86c.07.5.12,1,.19,1.54a6.84,6.84,0,0,0,4.75,2.52q.69,0,1.38,0l.27.17.38-.22.82-.12-.29-.22a20.89,20.89,0,0,0,4.54-3.64c.77.55,1.51,1.11,2.23,1.69.93-.46,1.48-.8,1.48-.8l-6.92-10.46-.39.06a38,38,0,0,1,1.86,6.1C251.05,179.43,243.49,181.37,243.49,181.37Z"/><path class="cls-18" d="M384.37,238.23a5.8,5.8,0,0,1,3.07-4.25,10,10,0,0,1,2.76-.91.89.89,0,0,0,.52-.1,2.42,2.42,0,0,1,.85,0l.18.14c0,1.14,0,2.28.06,3.41a2.12,2.12,0,0,0,1.18,1.91l0,.41c-2.82,0-5.64,0-8.46,0l-.15-.12v-.34l0,0S384.38,238.26,384.37,238.23Z"/><path class="cls-19" d="M393,238.8l0-.41c.31,0,.34.26.61.34A.94.94,0,0,1,393,238.8Z"/><path class="cls-19" d="M391.75,233.07l-.18-.14.19,0Z"/><path class="cls-19" d="M384.36,238.68l.15.12h-.18Z"/><path class="cls-19" d="M390.72,233a.89.89,0,0,1-.52.1C390.3,232.88,390.54,233,390.72,233Z"/><path class="cls-19" d="M384.37,238.23s0,.05,0,.08l0,0A.09.09,0,0,1,384.37,238.23Z"/><path class="cls-20" d="M400.21,245.52h-38a1,1,0,0,1-1-1V216.42c0-1.73,1-1.73,2.13-1.73H400.9a1,1,0,0,1,1,1v4.43q0,12,0,23.94a1.47,1.47,0,0,1-.38,1.05,1.77,1.77,0,0,1-1.32.41Zm-15.83-7.73.13,1,0-1,4.26,0h2.32a3.11,3.11,0,0,1-.3-1.31c0-.78,0-1.56,0-2.34l0-1.08s0-.14,0-.16v-1c0-.66,0-1.31,0-2,0-1.47.05-3,0-4.46,0-.51-.14-2.08-3.22-2.94a6.46,6.46,0,0,0-1.75-.19h-1.62l-.5,0-.42,0a.88.88,0,0,0-.37.05,1,1,0,0,1-.44.11h0a1.92,1.92,0,0,1-.8.19,1,1,0,0,1-.75-.33h-10v.54c0,.81,0,1.62,0,2.43,0,.5,0,1,0,1.52a26.34,26.34,0,0,0,.06,3,.33.33,0,0,1,0,.14l0,1.51a.81.81,0,0,1-.06.31,1,1,0,0,0,0,.74.87.87,0,0,1,.06.32l0,1.19v.24l0,.69c0,.06,0,.12.05.19a1.93,1.93,0,0,0,.11.32,4.65,4.65,0,0,0,3.5,2.28l.75,0,.87,0,6.83,0h.2l.48,0a1.27,1.27,0,0,0,.37,0,1.06,1.06,0,0,1,.31-.05Z"/><path class="cls-20" d="M400.9,215.69q0,14.19,0,28.37c0,.38-.11.46-.7.46h-38V216.42c0-.72,0-.73,1.13-.73H400.9m-18.49,5.84h-.08c-.29,0-.46.2-.75.2h0c.07-.3-.22-.33-.57-.33H370c-.17,0-.31,0-.23.25l0,.23c0,1.17-.05,2.34,0,3.51,0,1.52-.08,3.05.07,4.57l-.06,1.51a2,2,0,0,0,0,1.43l0,1.19v.22l0,.56v.23a.11.11,0,0,0,0,.11,4.5,4.5,0,0,0,.25.76,5.58,5.58,0,0,0,4.21,2.8l.08,0h.43l1.28,0,6.84,0c.23,0,.45,0,.68,0a2.24,2.24,0,0,0,.68-.1h.18l4.3,0,4.16,0,.29,0a.64.64,0,0,0,.34-.09c-.27-.08-.3-.3-.61-.34a2.12,2.12,0,0,1-1.18-1.91c0-1.13,0-2.27-.06-3.41V232c0-2.16.11-4.32,0-6.48-.12-1.74-1.31-3.11-4-3.84a7.38,7.38,0,0,0-2-.23l-1.46,0h-.15c-.3,0-.62,0-.93,0a1.86,1.86,0,0,0-.81.16m18.49-7.84H363.38c-1,0-3.13,0-3.13,2.73v28.09a2,2,0,0,0,2,2h38a2.71,2.71,0,0,0,2-.71,2.41,2.41,0,0,0,.67-1.75q0-12,0-24.07v-4.3a2,2,0,0,0-.58-1.41,2,2,0,0,0-1.42-.59Zm0,4h0Zm-17.71,5.68h0l.35,0,.56,0h1.63a5.86,5.86,0,0,1,1.48.15c2.4.67,2.47,1.67,2.49,2,.1,1.42.08,2.85,0,4.36,0,.67,0,1.33,0,2v1a.66.66,0,0,0,0,.14l0,1c0,.81,0,1.61,0,2.42,0,.1,0,.2,0,.3h-1l-4.24,0h-.24a2.24,2.24,0,0,0-.63.1h-.05l-.4,0-.14,0h-1.88l-5.09,0-.82,0-.41,0h-.28c-2.07-.45-2.56-1.41-2.72-1.73,0,0,0-.07,0-.13l0-.09v0l0-.32v-.39l0-1.24a2.34,2.34,0,0,0-.12-.64,2.48,2.48,0,0,0,.12-.66l0-1.52a2.25,2.25,0,0,0,0-.26,24.44,24.44,0,0,1-.06-2.86c0-.52,0-1,0-1.54s0-1.29,0-2h8.65a2,2,0,0,0,1,.33h.1a2.63,2.63,0,0,0,1-.21,1.92,1.92,0,0,0,.57-.15ZM371.5,234Z"/><path class="cls-21" d="M400.9,215.69H363.38c-1.13,0-1.13,0-1.13.73v28.09c-.27,0-.17-.1-.17-.17q0-14.24,0-28.48c0-.24.07-.28.44-.28h38.13C400.75,215.58,401,215.52,400.9,215.69Z"/><path class="cls-22" d="M391.76,232v1l-.19,0a2.42,2.42,0,0,0-.85,0c-.18,0-.42-.09-.52.1a10,10,0,0,0-2.76.91,5.8,5.8,0,0,0-3.07,4.25.09.09,0,0,0,0,.11v.34l0,.11a3.45,3.45,0,0,1-1.36.06c.13,0,.15-.09.14-.17a12.19,12.19,0,0,1,.24-1.43c.19-.73.15-.77-1-.61l-1.82,0c-1.31.2-2.65.2-4,.28a7.2,7.2,0,0,1-2.28-.13,6.2,6.2,0,0,1-3.63-2.19l-.13-.13a.07.07,0,0,0,0-.09,5.17,5.17,0,0,1-.54-1.56,2,2,0,0,1,0-1.36,4.54,4.54,0,0,1,.86-2.35.08.08,0,0,0,.06-.1l.13-.12a6,6,0,0,1,2.11-1.66,17.34,17.34,0,0,1,3-.91,4.59,4.59,0,0,1,1-2.17,6.53,6.53,0,0,1,4.45-2.46c.33,0,.5-.24.85-.2.32.2.71.08,1.07.08a6.9,6.9,0,0,1,3.44.72,4.37,4.37,0,0,1,2.49,4.34c-.16,1.69-.27,3.38-.42,5.08,0,.38.13.5.73.38A9.17,9.17,0,0,1,391.76,232Zm-14.19-4.3-1.51.06c-.44.12-.9.21-1.32.35a4.93,4.93,0,0,0-1.37.64,3.85,3.85,0,0,0-1.79,4.05c.28,1.84,2.07,3.16,5.22,2.88.94-.09,1.89-.08,2.83-.12l.22,0,.53-.06,3.52-.12a.85.85,0,0,0,.74-.32,6.41,6.41,0,0,1,2.07-1.69,1.08,1.08,0,0,0,.6-.77c.24-.94,0-1.9.28-2.84.07-1.25.19-2.5.2-3.75s-.78-2.14-2.26-2.79c-1.76-.78-5.34-.12-6.51,1a4.11,4.11,0,0,0-1.28,3.35Z"/><path class="cls-23" d="M391.76,232a9.17,9.17,0,0,0-2,.18c-.6.12-.76,0-.73-.38.15-1.7.26-3.39.42-5.08a4.37,4.37,0,0,0-2.49-4.34,6.9,6.9,0,0,0-3.44-.72c-.36,0-.75.12-1.07-.08a3.93,3.93,0,0,1,1.74-.11,13.46,13.46,0,0,1,3.63.21c2.64.73,3.83,2.1,4,3.84C391.87,227.63,391.76,229.79,391.76,232Z"/><path class="cls-24" d="M382.37,236.64c1.13-.16,1.17-.12,1,.61a12.19,12.19,0,0,0-.24,1.43h-7.35a2,2,0,0,0-.91.1h-.35l-.16,0a5.58,5.58,0,0,1-4.21-2.8,4.5,4.5,0,0,1-.25-.76l0,0-.05-.07v-.23c.23-.19.23-.38,0-.56v-.22c.36,0,.36.31.68.34a.07.07,0,0,1,0,.09l.13.13a6.2,6.2,0,0,0,3.63,2.19,7.2,7.2,0,0,0,2.28.13c1.32-.08,2.66-.08,4-.28.54.42,1.26.12,1.89.2.12,0,.34,0,.33-.1S382.51,236.68,382.37,236.64Z"/><path class="cls-25" d="M381.56,221.73a6.53,6.53,0,0,0-4.45,2.46,4.59,4.59,0,0,0-1,2.17,26.28,26.28,0,0,1-2.84-2.13c-1.18-.78-2-1.77-3.28-2.49l-.25-.1c-.12-.31.25-.24.47-.24H381C381.34,221.4,381.63,221.43,381.56,221.73Z"/><path class="cls-26" d="M370,221.74c1.29.72,2.1,1.71,3.28,2.49a26.28,26.28,0,0,0,2.84,2.13,17.34,17.34,0,0,0-3,.91,6,6,0,0,0-2.11,1.66l-.13.12a.08.08,0,0,1-.06.1c-.6.13-.36.69-1,.8-.15-1.52-.05-3-.07-4.57,0-1.17,0-2.34,0-3.51Z"/><path class="cls-27" d="M374.85,238.78a2,2,0,0,1,.91-.1h7.35c0,.08,0,.14-.14.17l-6.84,0Z"/><path class="cls-28" d="M369.85,230c.62-.11.38-.67,1-.8a4.54,4.54,0,0,0-.86,2.35l-.18,0Z"/><path class="cls-28" d="M370.5,234.42c-.32,0-.32-.34-.68-.34l0-1.19.17,0A5.17,5.17,0,0,0,370.5,234.42Z"/><path class="cls-25" d="M370,232.86l-.17,0a2,2,0,0,1,0-1.43l.18,0A2,2,0,0,0,370,232.86Z"/><path class="cls-28" d="M369.82,234.3c.26.18.26.37,0,.56Z"/><path class="cls-28" d="M370,221.74l-.21.13,0-.23Z"/><path class="cls-28" d="M369.86,235.09l.05.07,0,0A.11.11,0,0,1,369.86,235.09Z"/><path class="cls-27" d="M374.34,238.76l.16,0h-.08Z"/><path class="cls-29" d="M387.59,229.69c-.28.94,0,1.9-.28,2.84a1.08,1.08,0,0,1-.6.77,6.41,6.41,0,0,0-2.07,1.69.85.85,0,0,1-.74.32l-3.52.12c-.46-.37-.9-.75-1.39-1.11a1.22,1.22,0,0,1-.6-1.41c.35-1.28.55-2.57.81-3.86a1.17,1.17,0,0,1,.3-.19,53.32,53.32,0,0,1,5.41-.73,1.26,1.26,0,0,1,1.08.34C386.44,228.93,387.09,229.26,387.59,229.69Z"/><path class="cls-30" d="M379.2,229.05c-.26,1.29-.46,2.58-.81,3.86a1.22,1.22,0,0,0,.6,1.41c.49.36.93.74,1.39,1.11l-.53.06-.22,0c-.94,0-1.89,0-2.83.12-3.15.28-4.94-1-5.22-2.88a3.85,3.85,0,0,1,1.79-4.05,4.93,4.93,0,0,1,1.37-.64c.42-.14.88-.23,1.32-.35.12.24.43.2.7.2a2.87,2.87,0,0,1,1,.11c-.38,1.95-.78,3.88-1.12,5.83-.05.29-.46.83.33.89s.56-.51.63-.82c.38-1.81.72-3.63,1.07-5.44C379,228.6,379.08,228.84,379.2,229.05Z"/><path class="cls-31" d="M379.2,229.05c-.12-.21-.18-.45-.55-.57a.85.85,0,0,1,.66-.21c2.19-.12,4.31-.49,6.47-.72.46,0,1.07-.06.94-.53s-.68-.36-1.08-.25a2.4,2.4,0,0,1-2.55-.66s-.07-.06-.08-.09c-.15-.3-.44-.14-.7-.1l-.11-.07c0-.19.67-.33.21-.55s-.53.14-.73.27a11.86,11.86,0,0,0-1,.81c-.31.27-.29.39.23.5a.47.47,0,0,1,.4.28c.05.19-.24.18-.42.19-1,.07-2,.26-3.06.24l-.06,0A4.11,4.11,0,0,1,379,224.2c1.17-1.17,4.75-1.83,6.51-1,1.48.65,2.27,1.62,2.26,2.79s-.13,2.5-.2,3.75c-.5-.43-1.15-.76-1.6-1.22a1.26,1.26,0,0,0-1.08-.34,53.32,53.32,0,0,0-5.41.73A1.17,1.17,0,0,0,379.2,229.05Z"/><path class="cls-32" d="M382.37,236.64c.14,0,.39,0,.4.14s-.21.11-.33.1c-.63-.08-1.35.22-1.89-.2Z"/><path class="cls-32" d="M377.74,228a2.87,2.87,0,0,0-1-.11c-.27,0-.58,0-.7-.2l1.51-.06.2,0Z"/><path class="cls-31" d="M377.77,227.7l-.2,0,.17-.1.06,0A.11.11,0,0,1,377.77,227.7Z"/><path class="cls-28" d="M370.89,229.05l.13-.12Z"/><path class="cls-28" d="M370.67,234.64l-.13-.13Z"/><path class="cls-29" d="M379.63,235.51l.22,0Z"/><path class="cls-33" d="M377.77,227.7a.11.11,0,0,0,0-.11c1,0,2-.17,3.06-.24.18,0,.47,0,.42-.19a.47.47,0,0,0-.4-.28c-.52-.11-.54-.23-.23-.5a11.86,11.86,0,0,1,1-.81c.2-.13.38-.44.73-.27s-.17.36-.21.55c-.11,0-.25.08-.2.19a.22.22,0,0,0,.13,0,1.37,1.37,0,0,0,.18-.16c.26,0,.55-.2.7.1,0,0,.05.06.08.09a2.4,2.4,0,0,0,2.55.66c.4-.11.95-.2,1.08.25s-.48.49-.94.53c-2.16.23-4.28.6-6.47.72a.85.85,0,0,0-.66.21c-.35,1.81-.69,3.63-1.07,5.44-.07.31.13.87-.63.82s-.38-.6-.33-.89c.34-1.95.74-3.88,1.12-5.83Z"/><path class="cls-31" d="M382.31,225.92a1.37,1.37,0,0,1-.18.16.22.22,0,0,1-.13,0c-.05-.11.09-.15.2-.19Z"/></g></svg>