<svg xmlns="http://www.w3.org/2000/svg" viewBox="0 0 750 350.39"><defs><style>.cls-1{fill:#b78876;}.cls-2{fill:#aa6550;}.cls-3{fill:#263238;}.cls-4{fill:#ebebeb;}.cls-5{fill:#4e3c53;}.cls-6{fill:#e0e0e0;}.cls-7{fill:#e9e8e9;}.cls-8{fill:#6b1a4e;}.cls-9{fill:#c55182;}.cls-10{fill:#9c175e;}.cls-11{fill:#c45282;}.cls-12{fill:#9b165e;}.cls-13{fill:#980058;}.cls-14{fill:#99095a;}.cls-15{fill:#640b47;}.cls-16{fill:#dbafc6;}.cls-17{fill:#9c165e;}.cls-18{fill:#c55282;}.cls-19{fill:#980255;}.cls-20{fill:#daacc3;}</style></defs><g id="Character_2" data-name="Character 2"><path class="cls-1" d="M367.44,62.35c-.36-.14-14.31-3.8-13.47,10.3S368.8,83,368.81,82.6,367.44,62.35,367.44,62.35Z"/><path class="cls-2" d="M364.18,77.51c-.07,0-.24.19-.64.4a2.48,2.48,0,0,1-1.84.15c-1.52-.46-2.92-2.75-3.14-5.29a8.24,8.24,0,0,1,.48-3.56,2.82,2.82,0,0,1,1.74-2,1.26,1.26,0,0,1,1.49.58c.21.39.14.67.21.69s.29-.25.14-.83a1.55,1.55,0,0,0-.61-.85,1.91,1.91,0,0,0-1.38-.28,3.45,3.45,0,0,0-2.43,2.35,8.2,8.2,0,0,0-.62,4c.26,2.83,1.88,5.41,3.95,5.87a2.64,2.64,0,0,0,2.23-.5C364.17,77.85,364.23,77.53,364.18,77.51Z"/><path class="cls-3" d="M402.66,12c7.17,0,14.47,0,23.44,4.68,5.66,2.95,9.18,7.64,12.13,13.3a30.58,30.58,0,0,1,3.34,14.89c-.26,4.87-.28,8.29-2.23,12.76"/><path class="cls-1" d="M399.79,13.06A38,38,0,0,1,440.44,49c.92,17.67,1.73,36.79,1.54,46.41-.42,20.66-21.11,23.7-21.11,23.7s.46,6.13,1,13.73a27.22,27.22,0,0,1-26.12,29h0a27.2,27.2,0,0,1-28.22-26.19l-3.07-83.25a38,38,0,0,1,35.36-39.36Z"/><path class="cls-2" d="M420.87,119.11s-12.7.66-26.5-8.16c0,0,6.25,15,26.87,13.33Z"/><path class="cls-3" d="M432.52,60.49a3,3,0,0,1-2.86,3,2.82,2.82,0,0,1-3-2.69,2.94,2.94,0,0,1,2.86-2.95A2.81,2.81,0,0,1,432.52,60.49Z"/><path class="cls-3" d="M435.39,56.32C435,56.7,432.8,55,429.62,55s-5.51,1.55-5.85,1.16c-.17-.17.21-.86,1.23-1.59a8.09,8.09,0,0,1,4.69-1.41,7.82,7.82,0,0,1,4.58,1.52C435.24,55.45,435.57,56.15,435.39,56.32Z"/><path class="cls-3" d="M401.39,60.49a3,3,0,0,1-2.87,3,2.83,2.83,0,0,1-3-2.69,3,3,0,0,1,2.87-2.95A2.82,2.82,0,0,1,401.39,60.49Z"/><path class="cls-3" d="M404.18,56.66c-.37.38-2.6-1.29-5.77-1.31s-5.51,1.56-5.86,1.16c-.16-.17.21-.86,1.24-1.59a8.09,8.09,0,0,1,4.69-1.41A7.82,7.82,0,0,1,403.06,55C404,55.79,404.36,56.49,404.18,56.66Z"/><path class="cls-3" d="M415.51,80.3c0-.18,2-.51,5.16-.89.81-.08,1.58-.24,1.72-.79a4,4,0,0,0-.52-2.4c-.74-2-1.53-4-2.35-6.2-3.26-8.81-5.61-16.06-5.25-16.19s3.29,6.92,6.54,15.73c.79,2.18,1.54,4.25,2.25,6.23a4.71,4.71,0,0,1,.4,3.19,2.08,2.08,0,0,1-1.35,1.17,5.61,5.61,0,0,1-1.37.18C417.52,80.48,415.52,80.48,415.51,80.3Z"/><path class="cls-3" d="M406.15,82.42c.52,0,.49,3.42,3.42,5.89s6.61,2.12,6.63,2.6c0,.22-.83.66-2.38.69a8.6,8.6,0,0,1-5.53-2,7.51,7.51,0,0,1-2.65-4.93C405.52,83.25,405.91,82.4,406.15,82.42Z"/><path class="cls-3" d="M405.09,44.23c-.32.86-3.48.42-7.21.84s-6.75,1.41-7.24.63c-.21-.37.32-1.18,1.54-2a12,12,0,0,1,5.37-1.84,12.23,12.23,0,0,1,5.64.71C404.55,43.13,405.23,43.82,405.09,44.23Z"/><path class="cls-3" d="M434.94,45c-.56.71-2.74-.05-5.37-.11s-4.86.45-5.37-.31c-.22-.37.13-1.09,1.11-1.77a7.82,7.82,0,0,1,8.66.34C434.89,43.92,435.19,44.67,434.94,45Z"/><path class="cls-3" d="M364.67,58.86s.9,4.78,1.14,6.94c.09.78,0,9.54,2.11,10,1.83.38,5.46-1.28,7.08-4.9s4.7-12.31,4.36-16.26c-.45-5.39-.7-10.86.38-16.16s3.61-10.47,7.86-13.8,10.4-4.5,15.24-2.07c3,1.49,5.21,4.14,8,6a12.42,12.42,0,0,0,8.52,2.22,8,8,0,0,0,6.59-5.4c.88-3.16-.74-6.61-3.27-8.7s-5.78-3-9-3.68c-8.91-1.77-18.36-1.42-26.82,1.87s-16,9.61-19.6,17.94c-4.18,9.64-3.7,15.54-2.59,26"/><path class="cls-3" d="M411.89,60.63a24.25,24.25,0,0,0-.54-3.41,14,14,0,0,0-5.11-7.6,13.75,13.75,0,0,0-5.83-2.57,13.93,13.93,0,0,0-7.26.62,12.8,12.8,0,0,0-3.48,1.88,13.09,13.09,0,0,0-2.92,2.93,13.76,13.76,0,0,0,0,16.29,12.69,12.69,0,0,0,2.92,2.93,12.84,12.84,0,0,0,3.48,1.89,13.93,13.93,0,0,0,7.26.61,13.69,13.69,0,0,0,5.83-2.56A14.06,14.06,0,0,0,411.36,64a25,25,0,0,0,.53-3.4s0,.07,0,.23v.67a5.64,5.64,0,0,1-.09,1.08,9.34,9.34,0,0,1-.26,1.47,14,14,0,0,1-5.09,7.85,14.14,14.14,0,0,1-6,2.7A14.3,14.3,0,0,1,393,74a14.42,14.42,0,0,1-6.65-5,14.23,14.23,0,0,1,0-16.9,13.4,13.4,0,0,1,3-3A13.2,13.2,0,0,1,393,47.22a14.18,14.18,0,0,1,13.47,2.1,14,14,0,0,1,5.09,7.86,9.24,9.24,0,0,1,.26,1.46,5.74,5.74,0,0,1,.09,1.09v.67A.6.6,0,0,1,411.89,60.63Z"/><path class="cls-3" d="M448.26,60.63a26.31,26.31,0,0,0-.54-3.41,14,14,0,0,0-5.12-7.6,13.7,13.7,0,0,0-5.83-2.57,13.9,13.9,0,0,0-7.25.62A12.71,12.71,0,0,0,426,49.55a13.05,13.05,0,0,0-2.91,2.93,13.72,13.72,0,0,0,0,16.29,13.89,13.89,0,0,0,6.4,4.82,13.89,13.89,0,0,0,7.25.61,13.69,13.69,0,0,0,5.83-2.56A14,14,0,0,0,447.72,64a26.34,26.34,0,0,0,.54-3.4,1.85,1.85,0,0,1,0,.23c0,.18,0,.4,0,.67a6.45,6.45,0,0,1-.08,1.08,9.46,9.46,0,0,1-.27,1.47,13.91,13.91,0,0,1-5.09,7.85,14.08,14.08,0,0,1-6,2.7,14.32,14.32,0,0,1-7.5-.59,13.51,13.51,0,0,1-3.62-1.94,13.31,13.31,0,0,1-3-3,14.19,14.19,0,0,1,0-16.9,14.15,14.15,0,0,1,6.64-5,14.17,14.17,0,0,1,13.47,2.1,13.9,13.9,0,0,1,5.09,7.86,9.36,9.36,0,0,1,.27,1.46,6.56,6.56,0,0,1,.08,1.09c0,.27,0,.49,0,.67A2.07,2.07,0,0,1,448.26,60.63Z"/><path class="cls-3" d="M420.51,59.13a7.62,7.62,0,0,1-1.3-.45,8.61,8.61,0,0,0-3.18-.4,8.34,8.34,0,0,0-3.1.82,8.74,8.74,0,0,1-1.22.62s.3-.47,1-.94a7.22,7.22,0,0,1,6.6-.44C420.15,58.71,420.55,59.08,420.51,59.13Z"/><path class="cls-3" d="M426.14,24.28c.21-1.07-.15-1.68.46-2.11s2,.81,2.46,1.33c.16.17.64-.48.83-.61a3.65,3.65,0,0,0,.36-1.37c-.09-.74-1.26-.95-1.81-1.46a5.69,5.69,0,0,0-1.95-1.1,1.83,1.83,0,0,0-1.86.11,1.81,1.81,0,0,0-.42,1.4,3.78,3.78,0,0,0,.28,1.45,2.05,2.05,0,0,0,1,1.07"/><path class="cls-4" d="M363.9,47.88S374,51.6,379.3,53.83l-.3-5.18-14.73-5.83S363.89,46.67,363.9,47.88Z"/><path class="cls-4" d="M364.85,39.84A56.4,56.4,0,0,1,372,42.59a54.82,54.82,0,0,1,7,3.23,58.3,58.3,0,0,1-7.17-2.75A56.51,56.51,0,0,1,364.85,39.84Z"/><path class="cls-5" d="M367.9,149l-.78-24.52s4.87,22.44,30.38,22.15c24.37-.28,23.93-19.77,23.93-19.77l.87,9.88v39.92l-15.9,65.11-20.31,2.58-22.44-89Z"/><path class="cls-5" d="M419.16,141.11a2.5,2.5,0,0,1-.29.52,14.63,14.63,0,0,1-1,1.43,21,21,0,0,1-4.54,4.39,26.12,26.12,0,0,1-8.48,4,30.07,30.07,0,0,1-11.45.8,37.4,37.4,0,0,1-11-3.31,48.56,48.56,0,0,1-8-4.84,56.34,56.34,0,0,1-4.86-4c-.55-.5-.95-.92-1.23-1.19a2.12,2.12,0,0,1-.4-.45,3.66,3.66,0,0,1,.47.37l1.3,1.12c1.12,1,2.78,2.34,4.94,3.88a49.87,49.87,0,0,0,8,4.7,37.62,37.62,0,0,0,10.85,3.23,30.1,30.1,0,0,0,11.25-.74,26.4,26.4,0,0,0,8.4-3.82,22.24,22.24,0,0,0,4.59-4.22C418.67,141.78,419.12,141.08,419.16,141.11Z"/><path class="cls-4" d="M401.46,350.38l-.37-115.71-32.86-84.45-1.1-25.41-20,15.14S318,240.28,317.51,236.8s0,113.58,0,113.58Z"/><path class="cls-3" d="M400.67,350.06c-.14,0-.26-26.08-.26-58.23s.12-58.23.26-58.23.26,26.06.26,58.23S400.81,350.06,400.67,350.06Z"/><polygon class="cls-6" points="347.4 156.48 351.46 159.56 348.61 178.27 396.57 228.51 353.01 171.31 356.72 156.48 347.4 156.48"/><path class="cls-4" d="M403.26,291.1l-73.61-21.58-2.44-55.91L347.4,140s-48.12,24-51.4,39.29-11.17,52.42-12,79.26c-.75,24-.86,40.05,4.62,47.71,15.7,21.94,119.14,25.86,160.46,0"/><path class="cls-3" d="M397.5,229.73a2.27,2.27,0,0,1-.24-.27c-.17-.21-.39-.48-.66-.83-.6-.75-1.43-1.83-2.5-3.2-2.18-2.82-5.29-6.86-9.12-11.84-7.68-10-18.25-23.88-29.93-39.17l-2.25-2.95-.08-.1,0-.12c1.28-5.13,2.53-10.09,3.72-14.83l.24.31h-9.56v-.24c0-6.06,0-11.61,0-16.53v-.1l.08-.06,14.47-11,4-3c.44-.32.78-.58,1-.76a2.49,2.49,0,0,1,.37-.25,2.85,2.85,0,0,1-.33.29l-1,.81L361.88,129l-14.36,11.13.08-.16c0,4.92,0,10.47,0,16.53l-.24-.24H357l-.08.31c-1.18,4.74-2.42,9.71-3.7,14.83l-.05-.22,2.26,3,29.8,39.26,9,11.94,2.42,3.26.62.86A2,2,0,0,1,397.5,229.73Z"/><path class="cls-4" d="M430.31,135.6c-5.87-10.27-8.92-9.2-8.92-9.2l.31,3.66v7.69l-2.79,33-17.83,71.69.37,108h67.41l8.39-131.77-.76-56.76Z"/><path class="cls-4" d="M476.5,161.85s17.45,12.88,19,33.6c1.23,16.83,4,62.92,4.55,72.95.8,15.63-11.37,52.22-43.05,41.85-19-6.21-89.18-30.07-89.18-30.07l4.67-29.81,83.3,5,1.66-69.48Z"/><path class="cls-1" d="M371.5,253.81s-23.58-2.55-29-1.23c-5.25,1.26-12.72,7.68-12.72,7.68l.11,9.32,37.93,10.6Z"/><path class="cls-3" d="M401.09,231.66a1.29,1.29,0,0,1,.11-.32c.08-.24.2-.54.35-.93.33-.83.81-2,1.41-3.52L408.24,214c2.25-5.46,4.92-11.94,7.88-19.14.75-1.79,1.49-3.66,2.42-5.49s1.94-3.65,3-5.48a121,121,0,0,1,7.48-10.8c1.36-1.76,2.73-3.47,4.15-5.11l0,.27-2.94-7.47-.1-.25.25-.08,12.29-4.18-.13.34c-5.7-9.51-10.51-17.56-13.93-23.26-1.68-2.82-3.12-5.07-4.65-6a6.12,6.12,0,0,0-1.86-.76,5.41,5.41,0,0,1-.69-.16,5.79,5.79,0,0,1,.7.09,5.64,5.64,0,0,1,1.93.7,8.53,8.53,0,0,1,2.36,2.29,40.71,40.71,0,0,1,2.45,3.69c3.45,5.68,8.33,13.69,14.1,23.17l.15.25-.28.1-12.27,4.21.15-.34q1.44,3.66,2.95,7.47l.06.15-.11.12c-1.4,1.62-2.77,3.33-4.12,5.07A123.23,123.23,0,0,0,422,184.12c-1.07,1.82-2.12,3.62-3,5.44s-1.66,3.66-2.41,5.46c-3,7.18-5.72,13.65-8,19.09s-4.14,9.79-5.43,12.86c-.64,1.49-1.15,2.66-1.5,3.49-.17.37-.3.67-.41.9A1.62,1.62,0,0,1,401.09,231.66Z"/><path class="cls-3" d="M486.07,304.45a1.52,1.52,0,0,1-.29.31l-.9.88a26.61,26.61,0,0,1-3.83,2.9,25.87,25.87,0,0,1-7,2.94,28.41,28.41,0,0,1-10,.63,31.57,31.57,0,0,1-5.75-1.21c-2-.63-3.92-1.39-6-2.12-4.11-1.49-8.53-3-13.17-4.68-9.3-3.25-19.55-6.74-30.35-10.28-21.6-7.1-41.3-13.08-55.58-17.34l-16.92-5-4.6-1.36-1.19-.37-.4-.14a2.34,2.34,0,0,1,.42.09l1.2.32,4.63,1.27c4,1.12,9.81,2.77,17,4.85,14.3,4.17,34,10.1,55.63,17.19,10.81,3.55,21.06,7.05,30.35,10.33,4.64,1.64,9.05,3.21,13.16,4.73,2.06.73,4,1.51,6,2.13a32,32,0,0,0,5.67,1.24,28.13,28.13,0,0,0,9.92-.56,26.32,26.32,0,0,0,7-2.82,29.25,29.25,0,0,0,3.86-2.81l.93-.83A3.12,3.12,0,0,1,486.07,304.45Z"/><path class="cls-3" d="M329.85,269.75c0,.1-1.33-.18-3.44-.1a16.18,16.18,0,0,0-3.64.6,16.93,16.93,0,0,0-4.1,1.87A19.27,19.27,0,0,0,313,278c-1.11,1.8-1.6,3-1.69,3a3.65,3.65,0,0,1,.28-.89,15.9,15.9,0,0,1,1.1-2.3,17.94,17.94,0,0,1,5.74-6.11,16.47,16.47,0,0,1,4.25-1.89,15.16,15.16,0,0,1,3.76-.51,13,13,0,0,1,2.54.23A3.16,3.16,0,0,1,329.85,269.75Z"/><path class="cls-3" d="M306.66,262.44s0-.1.09-.26a2.65,2.65,0,0,1,.46-.66,4.79,4.79,0,0,1,2.62-1.3,13.88,13.88,0,0,1,4.32,0,25.82,25.82,0,0,1,5.13,1.25,22.39,22.39,0,0,1,8.13,5,16.31,16.31,0,0,1,1.89,2.21,4.38,4.38,0,0,1,.55.91c-.09.06-.91-1.22-2.69-2.85A24,24,0,0,0,319.1,262a26.26,26.26,0,0,0-5-1.26,13.74,13.74,0,0,0-4.2-.12,4.74,4.74,0,0,0-2.53,1.08C306.87,262.12,306.7,262.47,306.66,262.44Z"/><path class="cls-3" d="M334.14,198.23a8.12,8.12,0,0,1-.34-1.52c-.15-.47-.36-1-.59-1.71s-.63-1.37-1.09-2.14a30.61,30.61,0,0,0-3.75-5,40.13,40.13,0,0,0-5.75-5.05A34.7,34.7,0,0,0,310.05,177a26,26,0,0,0-4.19-.53,8.59,8.59,0,0,1-1.55-.13,9.56,9.56,0,0,1,1.56-.07,21.92,21.92,0,0,1,4.25.37,33,33,0,0,1,12.8,5.71,38.43,38.43,0,0,1,5.8,5.16,28.35,28.35,0,0,1,3.72,5.13c.45.79.74,1.56,1,2.21s.4,1.28.52,1.78A10.55,10.55,0,0,1,334.14,198.23Z"/><path class="cls-3" d="M473.89,283.72a1.65,1.65,0,0,1,0-.36l0-1c0-.92-.07-2.28-.2-4a55.94,55.94,0,0,0-3-14.41,20.25,20.25,0,0,0-2-4.41,8.61,8.61,0,0,0-3.9-3.3c-3.35-1.45-7.38-1.26-11.48-1.49l-26.84-1.13c-22.18-1-41.91-1.79-54.31-2.46l.17-.13c-.75,4.55-1.35,8.16-1.76,10.67-.21,1.21-.37,2.16-.49,2.83-.05.3-.1.54-.13.73l-.06.24a1.18,1.18,0,0,1,0-.25l.1-.73c.09-.68.23-1.62.4-2.84.38-2.52.92-6.14,1.61-10.7l0-.14h.15l54.31,2.26,26.84,1.17c2.06.11,4.07.15,6,.31a17.66,17.66,0,0,1,5.6,1.26,9.07,9.07,0,0,1,4.06,3.48,20.78,20.78,0,0,1,2,4.5,54,54,0,0,1,2.81,14.52c.11,1.75.11,3.11.1,4,0,.44,0,.78,0,1S473.89,283.72,473.89,283.72Z"/><path class="cls-3" d="M458,218.5c.14,0,.26,8.07.26,18s-.12,18-.26,18-.26-8.06-.26-18S457.86,218.5,458,218.5Z"/><path class="cls-3" d="M296.58,177.43s-.06.23-.2.67-.39,1.07-.6,2c-.49,1.73-1.11,4.32-1.8,7.69-1.39,6.74-3.1,16.6-5,28.94-.95,6.17-2,13-3,20.3-.51,3.67-.83,7.49-1.09,11.45s-.47,8-.63,12.25c-.3,8.4-.48,17.28-.24,26.54.08,2.31.16,4.65.35,7,.06,1.18.25,2.34.4,3.52a29.93,29.93,0,0,0,.85,3.45,19.5,19.5,0,0,0,3.32,6.33,14.2,14.2,0,0,0,5.68,4.38l0,0h0a86.94,86.94,0,0,0,14.83,5.66c5.17,1.55,10.51,2.8,15.93,3.92a220.16,220.16,0,0,0,35.8,4.36,169.12,169.12,0,0,0,17.09-.45c5.57-.38,11-1,16.25-1.75a171,171,0,0,0,29.16-6.77,149.52,149.52,0,0,0,23.58-10.12l0,.32L415,295.63l-8.71-3.11L404,291.7c-.51-.18-.76-.29-.76-.29s.26.07.77.25l2.27.77,8.74,3,32.4,11.3.39.13-.36.19a148.9,148.9,0,0,1-23.61,10.21,171.68,171.68,0,0,1-29.23,6.85c-5.26.78-10.7,1.37-16.28,1.76a164.38,164.38,0,0,1-17.14.46A218.73,218.73,0,0,1,325.32,322c-5.44-1.12-10.79-2.37-16-3.93a86.82,86.82,0,0,1-14.92-5.71l0,0a14.75,14.75,0,0,1-5.92-4.55,20,20,0,0,1-3.39-6.5,28.71,28.71,0,0,1-.87-3.52c-.15-1.19-.34-2.38-.4-3.56-.19-2.36-.27-4.7-.34-7-.24-9.27,0-18.16.28-26.57q.24-6.32.65-12.26c.27-4,.6-7.79,1.12-11.47,1-7.34,2.06-14.13,3-20.3,2-12.34,3.74-22.2,5.19-28.93.72-3.36,1.36-5.95,1.88-7.68.22-.87.5-1.5.64-1.94S296.58,177.43,296.58,177.43Z"/><path class="cls-6" d="M329.74,262.84c12.31-13.63,11.77-37.87,4.7-55.06-.65,18.63-2.85,35.15-4.53,53.25"/><path class="cls-3" d="M334.47,211.27a2.74,2.74,0,0,1,0,.6c0,.44-.06,1-.11,1.7-.12,1.54-.28,3.66-.49,6.25-.44,5.33-1,12.59-1.69,20.6S331,255.7,330.55,261c-.19,2.59-.35,4.71-.47,6.25l-.15,1.7a4,4,0,0,1-.08.59,2.15,2.15,0,0,1,0-.6c0-.44,0-1,.05-1.7.05-1.48.16-3.62.3-6.26.31-5.29.81-12.59,1.47-20.64s1.32-15.33,1.85-20.6l.65-6.23c.09-.69.16-1.25.21-1.69A2.2,2.2,0,0,1,334.47,211.27Z"/><path class="cls-3" d="M364.81,186.65a105.15,105.15,0,0,1,.26,10.56,105.27,105.27,0,0,1-.26,10.57c-.14,0-.26-4.73-.26-10.57S364.67,186.65,364.81,186.65Z"/><path class="cls-6" d="M356.79,221.76a10.85,10.85,0,0,0,2.27,5.6c1.16,1.5,3.51,3,5.4,2.87a8.24,8.24,0,0,0,7.27-3.65c2.3-3.67,2.87-11.3,1-15.81-1.27-3.1-4.12-6-7.47-6.06-4.4-.11-7.16,3.07-8.1,6.29"/><path class="cls-3" d="M357.18,211a6.82,6.82,0,0,1,.81-2.16,9.06,9.06,0,0,1,1.65-2.16,7.73,7.73,0,0,1,3.12-1.83,7.81,7.81,0,0,1,2.09-.33,6.29,6.29,0,0,1,2.29.3,9,9,0,0,1,4.08,2.93,11.79,11.79,0,0,1,2.41,5,21.86,21.86,0,0,1,.44,5.92c-.2,3.13-.82,6.25-2.55,8.63a7.82,7.82,0,0,1-3.32,2.51,9.25,9.25,0,0,1-3.76.63h0a5.61,5.61,0,0,1-2.69-.67,9,9,0,0,1-2-1.41,10.16,10.16,0,0,1-2.2-3.29,9.22,9.22,0,0,1-.7-2.43,5.25,5.25,0,0,1-.06-.66c0-.15,0-.22,0-.22a14.14,14.14,0,0,0,1,3.21A10.15,10.15,0,0,0,360,228.1a8.21,8.21,0,0,0,2,1.32,5.3,5.3,0,0,0,2.5.59h0a8,8,0,0,0,6.65-3c1.61-2.23,2.23-5.29,2.42-8.36.22-3.95-.45-7.94-2.7-10.59a8.58,8.58,0,0,0-3.84-2.82,5.75,5.75,0,0,0-2.15-.31,7.44,7.44,0,0,0-5,2,9.52,9.52,0,0,0-1.67,2.05A20,20,0,0,0,357.18,211Z"/><path class="cls-6" d="M354.45,222a10.89,10.89,0,0,0,2.27,5.61c1.15,1.5,3.51,3,5.4,2.86a8.23,8.23,0,0,0,7.27-3.64c2.3-3.67,2.87-11.3,1-15.81-1.27-3.1-4.12-6-7.47-6.06-4.4-.11-7.16,3.07-8.1,6.29"/><path class="cls-3" d="M354.84,211.2a6.82,6.82,0,0,1,.81-2.16,9.06,9.06,0,0,1,1.65-2.16,7.62,7.62,0,0,1,3.12-1.83,8.23,8.23,0,0,1,2.09-.34,6.33,6.33,0,0,1,2.29.31,9,9,0,0,1,4.08,2.92,11.66,11.66,0,0,1,2.4,5,21.57,21.57,0,0,1,.45,5.93c-.2,3.13-.82,6.25-2.55,8.63a7.72,7.72,0,0,1-3.32,2.5,9.1,9.1,0,0,1-3.76.64h0a5.61,5.61,0,0,1-2.69-.67,9.36,9.36,0,0,1-2-1.41,10.1,10.1,0,0,1-2.2-3.29,9.33,9.33,0,0,1-.7-2.43c0-.29-.06-.51-.07-.66a.82.82,0,0,1,0-.23,14,14,0,0,0,1,3.22,10,10,0,0,0,2.22,3.13,8.51,8.51,0,0,0,2,1.32,5.3,5.3,0,0,0,2.5.59h0a8,8,0,0,0,6.64-3c1.62-2.23,2.24-5.29,2.43-8.36.22-4-.45-7.94-2.7-10.59a8.56,8.56,0,0,0-3.85-2.82,5.7,5.7,0,0,0-2.14-.31,7.44,7.44,0,0,0-5,2,9.52,9.52,0,0,0-1.67,2A17.59,17.59,0,0,0,354.84,211.2Z"/><path class="cls-6" d="M358.7,210.07a5.15,5.15,0,0,0-5.37,3.1,8.85,8.85,0,0,0,0,6.52,8,8,0,0,0,1.67,2.94,4.32,4.32,0,0,0,3,1.45,5.19,5.19,0,0,0,4.13-2.44,9.32,9.32,0,0,0,1.41-7.67c-.46-1.73-1.74-3.51-3.53-3.56"/><path class="cls-3" d="M360,210.41a1.13,1.13,0,0,1,.4,0,2.89,2.89,0,0,1,1.09.37,5.36,5.36,0,0,1,2.28,3.44,9.37,9.37,0,0,1-.62,6.12,7.79,7.79,0,0,1-2.24,2.95,4.34,4.34,0,0,1-3.86.92,5.37,5.37,0,0,1-3.08-2.52,11.24,11.24,0,0,1-1.28-3.45,7.68,7.68,0,0,1,1-6,5.34,5.34,0,0,1,3.48-2.22,4,4,0,0,1,1.15,0,1.87,1.87,0,0,1,.38.11,7.5,7.5,0,0,0-1.49.1A5.26,5.26,0,0,0,354,212.4a7.36,7.36,0,0,0-.83,5.73,10.77,10.77,0,0,0,1.25,3.29,4.89,4.89,0,0,0,2.78,2.28,3.83,3.83,0,0,0,3.41-.83,7.47,7.47,0,0,0,2.12-2.74,9.16,9.16,0,0,0,.69-5.84,5.27,5.27,0,0,0-2-3.35A4.44,4.44,0,0,0,360,210.41Z"/><path class="cls-3" d="M363.74,226.51c-.08,0-.19-.31-.53-.71a3.65,3.65,0,0,0-1.71-1.1,9.67,9.67,0,0,0-2.1-.33c-.55,0-.91-.08-.91-.15s.34-.16.91-.21a5.84,5.84,0,0,1,2.26.19,3.36,3.36,0,0,1,1.85,1.38C363.82,226.11,363.8,226.5,363.74,226.51Z"/><path class="cls-3" d="M364.53,208.71s-.16.36-.62.73a5.06,5.06,0,0,1-2.11.92,5,5,0,0,1-2.3-.13c-.56-.18-.86-.4-.83-.46a7.57,7.57,0,0,0,5.86-1.06Z"/><path class="cls-3" d="M433.24,137.08a1.25,1.25,0,0,1,.33.12c.21.1.51.24.89.46a18.82,18.82,0,0,1,3,2.14A21.44,21.44,0,0,1,443.89,150a65.2,65.2,0,0,1,2.45,11.85c.18,1.54.27,2.79.33,3.66a6,6,0,0,1,0,1.34,7.11,7.11,0,0,1-.22-1.32c-.13-1-.3-2.18-.49-3.63a76.24,76.24,0,0,0-2.59-11.75,22.1,22.1,0,0,0-6.18-10.06A33.07,33.07,0,0,0,433.24,137.08Z"/><path class="cls-3" d="M420.78,247.16c2.9-.11,5.22-3,8.12-2.85a4,4,0,1,1-.68,8c-3.05-.36-4.83-3.92-7.81-4.61"/><path class="cls-3" d="M445.36,249.63a17.2,17.2,0,0,1-2.71-.23l.16-1c3.58.58,6.59,0,8.94-1.74,3-2.18,4.87-6.07,5.67-11.57l0-.21c.33-2.18.78-44.95.78-53.07,0-12.68-11.13-14.41-11.61-14.48s-10.57-1.77-15.94,12.08c-5.62,14.51-14.61,42.46-15.2,45.74-.08.4-.19.9-.31,1.48-.94,4.19-2.88,12.92,2.94,18,6.49,5.6,11.61,3.44,11.82,3.34l.41.91c-.24.11-5.88,2.55-12.88-3.49-6.28-5.42-4.25-14.55-3.27-18.93.13-.56.23-1,.3-1.44.6-3.3,9.62-31.38,15.26-45.92s16.92-12.73,17-12.71,12.44,1.91,12.44,15.47c0,6.69-.44,50.91-.79,53.22l0,.21c-.84,5.77-2.88,9.88-6.07,12.22A11.45,11.45,0,0,1,445.36,249.63Z"/><path class="cls-3" d="M458.73,190a18.59,18.59,0,0,0-2.08-5,16.87,16.87,0,0,0-3.95-4.28,17,17,0,0,0-6.43-3,18.85,18.85,0,0,0-12.65,1.65,22.88,22.88,0,0,0-4.41,3.16,1.32,1.32,0,0,1,.23-.31,9.12,9.12,0,0,1,.75-.8,15,15,0,0,1,3.25-2.37,18.51,18.51,0,0,1,12.95-1.83,17,17,0,0,1,6.6,3.16,16.45,16.45,0,0,1,4,4.47,12.92,12.92,0,0,1,1.54,3.72,8.09,8.09,0,0,1,.21,1.07C458.74,189.87,458.75,190,458.73,190Z"/><path class="cls-3" d="M484.2,270a35,35,0,0,0-1.38-4.27,18.61,18.61,0,0,0-6.78-8.14,14.53,14.53,0,0,0-5.5-2c-1.8-.3-3.46-.41-4.85-.51l-3.29-.22a4.63,4.63,0,0,1-1.2-.17,6.74,6.74,0,0,1,1.21,0l3.3.07a39.26,39.26,0,0,1,4.9.39,14.71,14.71,0,0,1,5.71,2,18.13,18.13,0,0,1,6.84,8.44,15.91,15.91,0,0,1,.92,3.2A4.55,4.55,0,0,1,484.2,270Z"/><path class="cls-1" d="M433.75,253.26s9.84-14.9,12.35-16.85,24-11.64,26.49-10.08,1,4.94,1,4.94,9.08-3.19,10.05-1.93a4.48,4.48,0,0,1,0,5.12s5-.77,5,.77a6.36,6.36,0,0,1-2.9,5.22c-2.32,1.74-17.41,11.79-18.62,14.56l-4.89-.29Z"/><path class="cls-2" d="M462.05,249a3.83,3.83,0,0,1,.45-.94,18.18,18.18,0,0,1,1.62-2.33,27,27,0,0,1,7.13-6,53.2,53.2,0,0,1,8.44-4c1.11-.42,2-.74,2.65-.95a4.36,4.36,0,0,1,1-.28,4.3,4.3,0,0,1-.93.47l-2.59,1.1a68.53,68.53,0,0,0-8.3,4.07,29.81,29.81,0,0,0-7.12,5.8C462.84,247.74,462.14,249.05,462.05,249Z"/><path class="cls-2" d="M449.58,248.76a5.24,5.24,0,0,1,.48-1.1c.34-.69.83-1.68,1.51-2.88a27.53,27.53,0,0,1,2.71-4,12.07,12.07,0,0,1,2.06-2c.83-.56,1.7-1.09,2.61-1.62a71.31,71.31,0,0,1,9.6-4.79,27.41,27.41,0,0,1,3.08-1,5,5,0,0,1,1.18-.21c0,.08-1.63.47-4.12,1.58a90.72,90.72,0,0,0-9.48,4.9c-.9.53-1.77,1.05-2.58,1.59a12.49,12.49,0,0,0-2,1.93,29.15,29.15,0,0,0-2.76,3.89l-1.66,2.79A5.81,5.81,0,0,1,449.58,248.76Z"/></g><g id="Character_3" data-name="Character 3"><path class="cls-7" d="M443.3,221.39v1.06l-.13,0a1.22,1.22,0,0,0-.6.05c-.13,0-.3-.1-.37.12a5.52,5.52,0,0,0-1.95,1,7.23,7.23,0,0,0-2.16,4.78.17.17,0,0,0,0,.12V229l0,.12a1.5,1.5,0,0,1-1,.07c.1,0,.11-.1.1-.19.05-.53.08-1.07.17-1.6.13-.83.1-.87-.69-.7l-1.29,0a20.17,20.17,0,0,1-2.8.32,3.34,3.34,0,0,1-1.6-.15,4.67,4.67,0,0,1-2.56-2.46l-.09-.14a.11.11,0,0,0,0-.11,8,8,0,0,1-.38-1.75,3.44,3.44,0,0,1,0-1.53,7.06,7.06,0,0,1,.6-2.64.1.1,0,0,0,0-.1l.09-.14a5.51,5.51,0,0,1,1.49-1.87,9.73,9.73,0,0,1,2.13-1,7,7,0,0,1,.68-2.43,4.66,4.66,0,0,1,3.14-2.76c.23,0,.35-.27.6-.22.23.22.5.08.75.08a3.4,3.4,0,0,1,2.43.82,5.84,5.84,0,0,1,1.75,4.86c-.11,1.9-.18,3.81-.29,5.71,0,.44.09.57.51.43A4.15,4.15,0,0,1,443.3,221.39Zm-10-4.83-1.06.07c-.31.13-.63.23-.93.39a3.18,3.18,0,0,0-1,.72,5.64,5.64,0,0,0-1.26,4.55c.2,2.07,1.46,3.54,3.68,3.23.66-.1,1.33-.09,2-.13l.15,0,.38-.07c.83-.05,1.65-.1,2.48-.13a.59.59,0,0,0,.52-.36,5.69,5.69,0,0,1,1.46-1.9,1.29,1.29,0,0,0,.42-.87c.17-1.06,0-2.14.2-3.19.05-1.41.14-2.81.14-4.21a3.66,3.66,0,0,0-1.59-3.14c-1.24-.87-3.77-.14-4.59,1.18a6.38,6.38,0,0,0-.91,3.76Z"/><path class="cls-8" d="M438.09,228.45a7.23,7.23,0,0,1,2.16-4.78,5.52,5.52,0,0,1,1.95-1,.46.46,0,0,0,.37-.12,1.11,1.11,0,0,1,.6,0l.13.16c0,1.28,0,2.55,0,3.83a2.86,2.86,0,0,0,.83,2.15l0,.45c-2,.06-4,0-6,0l-.11-.13v-.38l0,0A.24.24,0,0,0,438.09,228.45Z"/><path class="cls-9" d="M443.3,221.39a4.15,4.15,0,0,0-1.44.2c-.42.14-.53,0-.51-.43.11-1.9.18-3.81.29-5.71a5.84,5.84,0,0,0-1.75-4.86,3.4,3.4,0,0,0-2.43-.82c-.25,0-.52.14-.75-.08.38-.3.82-.14,1.23-.13a6,6,0,0,1,2.55.23,4.56,4.56,0,0,1,2.79,4.32C443.38,216.53,443.3,219,443.3,221.39Z"/><path class="cls-10" d="M436.68,226.65c.79-.17.82-.13.69.7-.09.53-.12,1.07-.17,1.6H432a1,1,0,0,0-.64.11h-.25l-.11,0a4.52,4.52,0,0,1-3-3.15c-.08-.27-.11-.57-.17-.85l0,0,0-.08v-.26a.45.45,0,0,0,0-.63v-.25c.25,0,.25.35.48.38a.11.11,0,0,1,0,.11l.09.14a4.67,4.67,0,0,0,2.56,2.46,3.34,3.34,0,0,0,1.6.15,20.17,20.17,0,0,0,2.8-.32c.39.48.9.13,1.34.22.08,0,.24,0,.23-.11S436.78,226.7,436.68,226.65Z"/><path class="cls-11" d="M436.11,209.91a4.66,4.66,0,0,0-3.14,2.76,7,7,0,0,0-.68,2.43,22,22,0,0,1-2-2.39c-.83-.87-1.4-2-2.31-2.8l-.18-.11c-.08-.34.18-.26.33-.26h7.57C436,209.54,436.16,209.57,436.11,209.91Z"/><path class="cls-12" d="M428,209.91c.91.82,1.48,1.93,2.31,2.8a22,22,0,0,0,2,2.39,9.73,9.73,0,0,0-2.13,1,5.51,5.51,0,0,0-1.49,1.87l-.09.14a.1.1,0,0,1,0,.1c-.42.15-.26.77-.69.9-.11-1.71,0-3.42-.05-5.13,0-1.32,0-2.63,0-3.95Z"/><path class="cls-13" d="M431.38,229.06A1,1,0,0,1,432,229h5.18c0,.09,0,.16-.1.19l-4.82,0C432,229.1,431.68,229.08,431.38,229.06Z"/><path class="cls-14" d="M427.85,219.14c.43-.13.27-.75.69-.9a7.06,7.06,0,0,0-.6,2.64l-.13,0C427.82,220.27,427.83,219.71,427.85,219.14Z"/><path class="cls-14" d="M428.31,224.16c-.23,0-.23-.37-.48-.38,0-.44,0-.89,0-1.33l.12,0A8,8,0,0,0,428.31,224.16Z"/><path class="cls-11" d="M427.93,222.41l-.12,0a3.37,3.37,0,0,1,0-1.61l.13,0A3.44,3.44,0,0,0,427.93,222.41Z"/><path class="cls-15" d="M444.15,229.08l0-.45c.22,0,.24.29.43.37C444.44,229.16,444.29,229.09,444.15,229.08Z"/><path class="cls-14" d="M427.83,224a.45.45,0,0,1,0,.63C427.85,224.45,427.84,224.24,427.83,224Z"/><path class="cls-14" d="M428,209.91l-.15.15,0-.26Z"/><path class="cls-15" d="M443.3,222.65l-.13-.16.13,0Z"/><path class="cls-14" d="M427.86,224.92l0,.08,0,0A.17.17,0,0,1,427.86,224.92Z"/><path class="cls-13" d="M431,229l.11,0h-.06Z"/><path class="cls-15" d="M438.08,229l.11.13h-.13Z"/><path class="cls-16" d="M440.36,218.85c-.19,1.05,0,2.13-.2,3.19a1.29,1.29,0,0,1-.42.87,5.69,5.69,0,0,0-1.46,1.9.59.59,0,0,1-.52.36c-.83,0-1.65.08-2.48.13-.33-.42-.64-.85-1-1.25a1.79,1.79,0,0,1-.43-1.58c.25-1.44.39-2.89.58-4.34.07-.07.12-.18.21-.21a24.86,24.86,0,0,1,3.81-.82.71.71,0,0,1,.76.38C439.55,218,440,218.37,440.36,218.85Z"/><path class="cls-17" d="M434.45,218.13c-.19,1.45-.33,2.9-.58,4.34a1.79,1.79,0,0,0,.43,1.58c.34.4.65.83,1,1.25l-.38.07-.15,0c-.67,0-1.34,0-2,.13-2.22.31-3.48-1.16-3.68-3.23a5.64,5.64,0,0,1,1.26-4.55,3.18,3.18,0,0,1,1-.72c.3-.16.62-.26.93-.39.08.26.3.22.49.22a1.31,1.31,0,0,1,.7.13c-.27,2.18-.56,4.36-.8,6.54,0,.33-.32.94.23,1s.4-.57.45-.92c.27-2,.51-4.07.76-6.11C434.32,217.62,434.36,217.89,434.45,218.13Z"/><path class="cls-18" d="M434.45,218.13c-.09-.24-.13-.51-.39-.64.09-.2.28-.22.46-.24,1.54-.13,3-.54,4.57-.8.32,0,.75-.07.66-.6s-.48-.41-.77-.28c-.85.37-1.35-.08-1.79-.74a.24.24,0,0,1-.06-.11c-.11-.33-.31-.15-.49-.1l-.08-.09c0-.21.48-.37.15-.61s-.38.15-.51.3a9.09,9.09,0,0,0-.73.91c-.22.31-.2.44.16.56a.39.39,0,0,1,.28.32c0,.21-.17.19-.3.21a15.6,15.6,0,0,1-2.15.27l0-.05a6.38,6.38,0,0,1,.91-3.76c.82-1.32,3.35-2.05,4.59-1.18a3.66,3.66,0,0,1,1.59,3.14c0,1.4-.09,2.8-.14,4.21-.35-.48-.81-.86-1.13-1.37a.71.71,0,0,0-.76-.38,24.86,24.86,0,0,0-3.81.82C434.57,218,434.52,218.06,434.45,218.13Z"/><path class="cls-19" d="M436.68,226.65c.1,0,.28,0,.28.16s-.15.13-.23.11c-.44-.09-1,.26-1.34-.22Z"/><path class="cls-19" d="M433.42,217a1.31,1.31,0,0,0-.7-.13c-.19,0-.41,0-.49-.22l1.06-.07.14.05C433.43,216.73,433.42,216.86,433.42,217Z"/><path class="cls-15" d="M442.57,222.53a.46.46,0,0,1-.37.12C442.27,222.43,442.44,222.55,442.57,222.53Z"/><path class="cls-18" d="M433.43,216.61l-.14-.05.12-.12,0,.05A.21.21,0,0,1,433.43,216.61Z"/><path class="cls-14" d="M428.58,218.14l.09-.14Z"/><path class="cls-14" d="M428.43,224.41l-.09-.14Z"/><path class="cls-16" d="M434.75,225.39l.15,0Z"/><path class="cls-15" d="M438.09,228.45a.24.24,0,0,1,0,.08l0,0A.17.17,0,0,1,438.09,228.45Z"/><path class="cls-20" d="M433.43,216.61a.21.21,0,0,0,0-.12,15.6,15.6,0,0,0,2.15-.27c.13,0,.34,0,.3-.21a.39.39,0,0,0-.28-.32c-.36-.12-.38-.25-.16-.56a9.09,9.09,0,0,1,.73-.91c.13-.15.26-.49.51-.3s-.12.4-.15.61c-.08.05-.18.09-.14.22s.08.05.09,0a1.09,1.09,0,0,0,.13-.17c.18-.05.38-.23.49.1a.24.24,0,0,0,.06.11c.44.66.94,1.11,1.79.74.29-.13.68-.23.77.28s-.34.55-.66.6c-1.53.26-3,.67-4.57.8-.18,0-.37,0-.46.24-.25,2-.49,4.08-.76,6.11-.05.35.09,1-.45.92s-.26-.67-.23-1c.24-2.18.53-4.36.8-6.54C433.42,216.86,433.43,216.73,433.43,216.61Z"/><path class="cls-18" d="M436.64,214.62a1.09,1.09,0,0,1-.13.17s-.08,0-.09,0,.06-.17.14-.22Z"/></g></svg>