<svg xmlns="http://www.w3.org/2000/svg" viewBox="0 0 500 500"><defs><style>.cls-1{fill:#fff;}.cls-2{fill:#fff7ee;}.cls-3{fill:#ff761a;}.cls-4{fill:#ffce33;}.cls-5{fill:#1b1b28;}.cls-6{fill:#f9c0b7;}.cls-7{fill:#36b4b2;}.cls-8{fill:#1a605d;}.cls-9{fill:#635cc6;}.cls-10{fill:none;stroke:#1a605d;stroke-miterlimit:10;}.cls-11{fill:#dd928a;}.cls-12{fill:#cc7f57;}.cls-13{fill:#2d2d2d;}.cls-14{fill:#663837;}.cls-15{fill:#a75a5a;}.cls-16{fill:#c16b5b;}.cls-17{fill:#7de4d9;}.cls-18{fill:#105caf;}</style></defs><g id="BACKGROUND"><rect class="cls-1" width="500" height="500"/></g><g id="OBJECTS"><path class="cls-2" d="M428.66,245c-2.75,41.14-17.82,82.71-43.56,114a173,173,0,0,1-32.24,30.21q-4.26,3.07-8.71,5.9a175.93,175.93,0,0,1-31.38,15.78,178.05,178.05,0,0,1-63.46,11.67c-78,0-149.5-54.38-170.81-129.4C63.21,239.3,71.77,171.45,115,132.28c16.77-15.2,38.49-26,61-29.24,24.57-3.59,49.31,4,71.27,14.53l.85.41c12.94,6.22,26,12.58,40.18,15.54,35.83,7.5,75.77-6.3,108,16.34C409,158.9,418,172.77,423,187.65,429.2,205.94,429.94,225.87,428.66,245Z"/><path class="cls-3" d="M147.68,385.58a6.51,6.51,0,0,1-1.56.46,6,6,0,0,1-4.41-1,.38.38,0,0,1-.11-.08c-3.64-2.54-5.81-6.64-8.19-10.38a74.86,74.86,0,0,0-26.81-25.22,29.28,29.28,0,0,1-6.4-4.18c-1.85-1.79-3.11-4.39-2.58-6.9a4.57,4.57,0,0,1,.19-.63,5.26,5.26,0,0,1,.79-1.45c1.13-1.49,3-2.42,4.65-1.75-7.83-4.95-15.81-10-21.54-17.31a16.28,16.28,0,0,1-3.24-5.92,7.76,7.76,0,0,1,.59-5.72,6.52,6.52,0,0,1,.5-.75,3.3,3.3,0,0,1,.51-.55c1.6-1.48,4.52-2.47,6.28-1.45-4.86-7.56-9.8-15.28-12.24-23.95-1.12-4-1.68-8.42.43-12.24a8.34,8.34,0,0,1,2.71-3,6.13,6.13,0,0,1,1.45-.72,4.93,4.93,0,0,1,.54-.19c4.34-1.22,7.74,2,10.35,5.09,7.72,9.19,14,19.8,17.29,31.33.93-2.3,3.43-3.51,5.94-3.53a6.61,6.61,0,0,1,1.94.21l.38.1c3.1.95,5.46,3.5,7.31,6.16,5.59,8,8.32,17.69,10.51,27.24a5.17,5.17,0,0,1,5.35-2.41,6.74,6.74,0,0,1,1.66.36,7.12,7.12,0,0,1,3,1.83c2.66,2.83,3.27,7,3.75,10.82l4.78,39.1A6.34,6.34,0,0,1,147.68,385.58Z"/><path class="cls-4" d="M140,367.89c-.35-.67-.73-1.34-1.09-2A185.16,185.16,0,0,0,140,327.21a6.74,6.74,0,0,0-1.66-.36,182.8,182.8,0,0,1-.76,36.53c-4-7.43-8.54-14.6-13.22-21.64a90.63,90.63,0,0,0-8.08-42.9c-.47-1-1-2.07-1.49-3.08a6.61,6.61,0,0,0-1.94-.21,88.58,88.58,0,0,1,9.78,34.07,86,86,0,0,1,.22,9.89c-5.25-7.79-10.67-15.47-15.95-23.24-5.76-8.44-11.36-17-16.29-26A150.7,150.7,0,0,1,78.7,262.85a6.13,6.13,0,0,0-1.45.72,144.42,144.42,0,0,0,10,23.89,281.77,281.77,0,0,0,15.69,25.9q3.91,5.83,7.95,11.61a103.49,103.49,0,0,1-30.81-20.78,3.3,3.3,0,0,0-.51.55,6.52,6.52,0,0,0-.5.75,105.26,105.26,0,0,0,33.43,22,.15.15,0,0,0,.11,0c2.61,3.76,5.22,7.51,7.77,11.29.84,1.23,1.68,2.49,2.5,3.74,0,0,0,.06.06.08,2.69,4.05,5.32,8.13,7.85,12.29A248,248,0,0,1,98.6,336.19a5.26,5.26,0,0,0-.79,1.45,252.8,252.8,0,0,0,33.83,19.47.65.65,0,0,0,.52,0c1.48,2.49,2.93,5,4.3,7.53A153,153,0,0,1,146.12,386a6.51,6.51,0,0,0,1.56-.46A148.21,148.21,0,0,0,140,367.89Z"/><path class="cls-4" d="M167.09,341.25a7,7,0,0,1-.31,1.4c-.2.49-.54.5-1.31-.29a.92.92,0,0,1-.15-.14,24.94,24.94,0,0,1-5.62-9.66,24.33,24.33,0,0,1-1.12-8.34,10.19,10.19,0,0,1,1.93-6.16,5.54,5.54,0,0,1,2.41-1.66,4.81,4.81,0,0,1,1.24-.26,3.79,3.79,0,0,1,2.21.49,4.9,4.9,0,0,1,2,2.79,12,12,0,0,1,.42,3.48A103.67,103.67,0,0,1,167.09,341.25Z"/><path class="cls-3" d="M188.57,393.34a123,123,0,0,1-9.93-15.22,126.83,126.83,0,0,1-11.85-30c-.49-1.92-.93-3.84-1.32-5.79a122.31,122.31,0,0,1-2.55-26,4.81,4.81,0,0,1,1.24-.26h0a124.61,124.61,0,0,0,1.15,18c.39,2.85.89,5.69,1.47,8.5a126.66,126.66,0,0,0,6.9,22.29,123.81,123.81,0,0,0,15.89,27.66C190.06,393.25,189.05,394,188.57,393.34Z"/><path class="cls-4" d="M168.47,354.46a3.78,3.78,0,0,1-1,.15,24.68,24.68,0,0,1-3.94-.13,26.36,26.36,0,0,1-7.6-2,25.5,25.5,0,0,1-7.41-4.82,10.8,10.8,0,0,1-3.57-5.74,5.8,5.8,0,0,1,.45-3.34,4.22,4.22,0,0,1,.69-1.08,3.73,3.73,0,0,1,1.73-1.23,5.13,5.13,0,0,1,3.61.29,13.34,13.34,0,0,1,3.07,2,109.17,109.17,0,0,1,13.41,14c.18.21.35.42.49.61C168.91,353.83,169.09,354.26,168.47,354.46Z"/><path class="cls-3" d="M168.47,354.46a41.54,41.54,0,0,1-11.74-5.39,61.85,61.85,0,0,1-11.37-10.5,4.22,4.22,0,0,1,.69-1.08A62.64,62.64,0,0,0,157.29,348a40.32,40.32,0,0,0,11.07,5.2C168.91,353.83,169.09,354.26,168.47,354.46Z"/><path class="cls-4" d="M175.65,373.07a4.12,4.12,0,0,1-1,.2,25.9,25.9,0,0,1-3.94.06A26.34,26.34,0,0,1,163,371.7a25.6,25.6,0,0,1-7.64-4.45,10.85,10.85,0,0,1-3.85-5.56,5.93,5.93,0,0,1,.28-3.36,4.52,4.52,0,0,1,.64-1.11,3.68,3.68,0,0,1,1.67-1.31,5.19,5.19,0,0,1,3.62.1,13.78,13.78,0,0,1,3.17,1.89A109.68,109.68,0,0,1,175,371.17l.53.59C176.06,372.41,176.27,372.83,175.65,373.07Z"/><path class="cls-3" d="M175.65,373.07a41.8,41.8,0,0,1-12-4.81,61.62,61.62,0,0,1-11.88-9.93,4.52,4.52,0,0,1,.64-1.11,62.51,62.51,0,0,0,11.75,9.89,39.77,39.77,0,0,0,11.31,4.65C176.06,372.41,176.27,372.83,175.65,373.07Z"/><path class="cls-4" d="M182.65,384.17a3.77,3.77,0,0,1-.8.38,20.45,20.45,0,0,1-3.2.88,21.81,21.81,0,0,1-6.6.3,21.58,21.58,0,0,1-7.15-2,9.06,9.06,0,0,1-4.3-3.72,5,5,0,0,1-.49-2.79,3.68,3.68,0,0,1,.29-1,3.08,3.08,0,0,1,1.08-1.42,4.35,4.35,0,0,1,3-.68,11.19,11.19,0,0,1,3,.87,91.82,91.82,0,0,1,14.25,7.83l.55.36C182.84,383.55,183.1,383.85,182.65,384.17Z"/><path class="cls-3" d="M182.65,384.17a35,35,0,0,1-10.77-1.38,51.79,51.79,0,0,1-11.77-5.58,3.68,3.68,0,0,1,.29-1A53,53,0,0,0,172,381.75a33.52,33.52,0,0,0,10.19,1.39C182.84,383.55,183.1,383.85,182.65,384.17Z"/><path class="cls-4" d="M185.38,387.08a3.39,3.39,0,0,0,.63-.61,22.43,22.43,0,0,0,1.93-2.7,22.06,22.06,0,0,0,2.56-6.09,21.75,21.75,0,0,0,.58-7.41,9.13,9.13,0,0,0-2-5.32,5,5,0,0,0-2.46-1.42,3.84,3.84,0,0,0-1.07-.09,3.16,3.16,0,0,0-1.71.53,4.26,4.26,0,0,0-1.65,2.55,11.45,11.45,0,0,0-.22,3.09,91.84,91.84,0,0,0,2.43,16.08c.06.23.11.45.16.65C184.73,387.05,184.92,387.4,185.38,387.08Z"/><path class="cls-3" d="M185.38,387.08a35.25,35.25,0,0,0,2.42-10.58,51.94,51.94,0,0,0-1.18-13,3.84,3.84,0,0,0-1.07-.09,52.89,52.89,0,0,1,1.21,12.85,33.87,33.87,0,0,1-2.2,10C184.73,387.05,184.92,387.4,185.38,387.08Z"/><path class="cls-4" d="M168.51,351.11a4.19,4.19,0,0,0,1-.4,26.79,26.79,0,0,0,3.31-2.15,26.41,26.41,0,0,0,5.49-5.63,25.5,25.5,0,0,0,3.86-7.95,10.72,10.72,0,0,0,.1-6.76,5.85,5.85,0,0,0-2.1-2.64A4.47,4.47,0,0,0,179,325a3.64,3.64,0,0,0-2.12-.16,5.17,5.17,0,0,0-3,2.1,13.57,13.57,0,0,0-1.58,3.33A109.65,109.65,0,0,0,168,349.15c0,.28-.08.54-.11.78C167.8,350.79,167.86,351.26,168.51,351.11Z"/><path class="cls-3" d="M168.51,351.11a41.62,41.62,0,0,0,7.28-10.66,61.79,61.79,0,0,0,4.34-14.87A4.47,4.47,0,0,0,179,325a62.61,62.61,0,0,1-4.26,14.75,39.84,39.84,0,0,1-6.81,10.16C167.8,350.79,167.86,351.26,168.51,351.11Z"/><path class="cls-4" d="M175.47,369.24a4.29,4.29,0,0,0,.92-.51,26.33,26.33,0,0,0,7.9-8.69,25.62,25.62,0,0,0,3-8.31,10.77,10.77,0,0,0-.63-6.74,5.81,5.81,0,0,0-2.37-2.39,4.81,4.81,0,0,0-1.2-.44,3.78,3.78,0,0,0-2.13.07,5.17,5.17,0,0,0-2.7,2.41,13.44,13.44,0,0,0-1.21,3.48,110,110,0,0,0-2.25,19.22c0,.28,0,.54,0,.78C174.73,369,174.85,369.45,175.47,369.24Z"/><path class="cls-3" d="M175.47,369.24a41.73,41.73,0,0,0,6.09-11.4,61.87,61.87,0,0,0,2.71-15.24,4.81,4.81,0,0,0-1.2-.44,62.67,62.67,0,0,1-2.64,15.13,40.14,40.14,0,0,1-5.67,10.83C174.73,369,174.85,369.45,175.47,369.24Z"/><path class="cls-3" d="M327.14,338.55a7.4,7.4,0,0,0,.37,1.38c.22.49.57.48,1.3-.34a.62.62,0,0,0,.14-.14,24.51,24.51,0,0,0,2.23-3,25,25,0,0,0,3-6.87,24.44,24.44,0,0,0,.77-8.38,10.25,10.25,0,0,0-2.19-6.08,5.62,5.62,0,0,0-2.48-1.56,5.18,5.18,0,0,0-1.25-.2,3.83,3.83,0,0,0-2.18.58,4.92,4.92,0,0,0-1.93,2.87,12.46,12.46,0,0,0-.27,3.5A104.18,104.18,0,0,0,327.14,338.55Z"/><path class="cls-4" d="M307.86,391.49a122.85,122.85,0,0,0,9.28-15.62,126.06,126.06,0,0,0,10.59-30.44c.41-1.94.77-3.88,1.08-5.84a122.79,122.79,0,0,0,1.46-26,5.18,5.18,0,0,0-1.25-.2h0a124.78,124.78,0,0,1-.4,18c-.27,2.87-.65,5.72-1.12,8.55a126.45,126.45,0,0,1-6,22.56,123.26,123.26,0,0,1-14.73,28.3C306.36,391.46,307.4,392.14,307.86,391.49Z"/><path class="cls-3" d="M326.32,351.81a4.19,4.19,0,0,0,1,.11,26,26,0,0,0,3.94-.3,26.52,26.52,0,0,0,7.51-2.33,25.64,25.64,0,0,0,7.19-5.12,10.77,10.77,0,0,0,3.33-5.89,5.85,5.85,0,0,0-.58-3.32,4.53,4.53,0,0,0-.74-1,3.7,3.7,0,0,0-1.78-1.15,5.1,5.1,0,0,0-3.59.43,13.6,13.6,0,0,0-3,2.17,109.57,109.57,0,0,0-12.81,14.5c-.17.22-.33.43-.47.63C325.85,351.19,325.69,351.63,326.32,351.81Z"/><path class="cls-4" d="M326.32,351.81a41.7,41.7,0,0,0,11.5-5.88,62,62,0,0,0,10.93-11,4.53,4.53,0,0,0-.74-1,62.36,62.36,0,0,1-10.8,10.92,39.76,39.76,0,0,1-10.84,5.66C325.85,351.19,325.69,351.63,326.32,351.81Z"/><path class="cls-3" d="M319.92,370.7a3.76,3.76,0,0,0,1,.15,24.8,24.8,0,0,0,3.95-.1,26.47,26.47,0,0,0,7.62-1.95A25.8,25.8,0,0,0,340,364a10.82,10.82,0,0,0,3.61-5.72,5.83,5.83,0,0,0-.42-3.35,4.36,4.36,0,0,0-.68-1.08,3.77,3.77,0,0,0-1.73-1.24,5.1,5.1,0,0,0-3.6.26,13.17,13.17,0,0,0-3.09,2,109.06,109.06,0,0,0-13.51,13.84c-.18.22-.36.42-.5.61C319.48,370.06,319.3,370.49,319.92,370.7Z"/><path class="cls-4" d="M319.92,370.7a41.68,41.68,0,0,0,11.78-5.31A61.19,61.19,0,0,0,343.15,355a4.36,4.36,0,0,0-.68-1.08,62.92,62.92,0,0,1-11.32,10.37A40.18,40.18,0,0,1,320,369.38C319.48,370.06,319.3,370.49,319.92,370.7Z"/><path class="cls-3" d="M313.39,382.08a3.42,3.42,0,0,0,.81.35,22.39,22.39,0,0,0,3.24.75,22.12,22.12,0,0,0,6.6,0,21.39,21.39,0,0,0,7.06-2.31,9.06,9.06,0,0,0,4.15-3.89,4.94,4.94,0,0,0,.37-2.81,3.69,3.69,0,0,0-.33-1,3.12,3.12,0,0,0-1.14-1.38,4.33,4.33,0,0,0-3-.55,11.32,11.32,0,0,0-2.94,1,91.72,91.72,0,0,0-13.92,8.42l-.53.38C313.17,381.47,312.93,381.78,313.39,382.08Z"/><path class="cls-4" d="M313.39,382.08a34.9,34.9,0,0,0,10.71-1.83,52.4,52.4,0,0,0,11.52-6.06,3.69,3.69,0,0,0-.33-1,53,53,0,0,1-11.4,6.05A33.63,33.63,0,0,1,313.77,381C313.17,381.47,312.93,381.78,313.39,382.08Z"/><path class="cls-3" d="M310.78,385.1a3.28,3.28,0,0,1-.65-.58,20.68,20.68,0,0,1-2-2.62,22,22,0,0,1-2.81-6,21.35,21.35,0,0,1-.89-7.37,9.06,9.06,0,0,1,1.78-5.4,4.87,4.87,0,0,1,2.39-1.52,3.88,3.88,0,0,1,1.07-.14,3,3,0,0,1,1.72.46,4.28,4.28,0,0,1,1.77,2.48,11.42,11.42,0,0,1,.34,3.08,92.5,92.5,0,0,1-1.76,16.17c0,.23-.08.45-.12.65C311.43,385.05,311.25,385.4,310.78,385.1Z"/><path class="cls-4" d="M310.78,385.1a34.85,34.85,0,0,1-2.85-10.47,51.53,51.53,0,0,1,.63-13,3.88,3.88,0,0,1,1.07-.14,52.56,52.56,0,0,0-.68,12.89,34,34,0,0,0,2.63,9.95C311.43,385.05,311.25,385.4,310.78,385.1Z"/><path class="cls-3" d="M326.14,348.46a4.35,4.35,0,0,1-1-.36,26.4,26.4,0,0,1-3.4-2,26.13,26.13,0,0,1-5.71-5.4,25.79,25.79,0,0,1-4.2-7.77,10.83,10.83,0,0,1-.38-6.76,5.88,5.88,0,0,1,2-2.72,4.07,4.07,0,0,1,1.12-.61,3.62,3.62,0,0,1,2.11-.25,5.16,5.16,0,0,1,3,2,13.45,13.45,0,0,1,1.72,3.27,109.61,109.61,0,0,1,5.1,18.66l.14.77C326.84,348.11,326.79,348.58,326.14,348.46Z"/><path class="cls-4" d="M326.14,348.46a41.48,41.48,0,0,1-7.72-10.35,61.45,61.45,0,0,1-5-14.67,4.07,4.07,0,0,1,1.12-.61,63,63,0,0,0,4.87,14.56,39.85,39.85,0,0,0,7.23,9.86C326.84,348.11,326.79,348.58,326.14,348.46Z"/><path class="cls-3" d="M319.94,366.86a4.45,4.45,0,0,1-.94-.47,26.76,26.76,0,0,1-3.16-2.36,26.09,26.09,0,0,1-5.09-6,25.51,25.51,0,0,1-3.33-8.18,10.76,10.76,0,0,1,.35-6.76,5.79,5.79,0,0,1,2.27-2.48,4.56,4.56,0,0,1,1.18-.5,3.76,3.76,0,0,1,2.13,0,5.07,5.07,0,0,1,2.79,2.29,13.2,13.2,0,0,1,1.36,3.43,110.15,110.15,0,0,1,3.05,19.1c0,.29,0,.55.06.79C320.67,366.59,320.57,367.05,319.94,366.86Z"/><path class="cls-4" d="M319.94,366.86a41.58,41.58,0,0,1-6.56-11.13A61.88,61.88,0,0,1,310,340.62a4.56,4.56,0,0,1,1.18-.5,62.69,62.69,0,0,0,3.26,15,40.15,40.15,0,0,0,6.13,10.59C320.67,366.59,320.57,367.05,319.94,366.86Z"/><path class="cls-4" d="M427.26,284.63A44.09,44.09,0,0,1,424.74,300c-.19.54-.38,1.08-.56,1.62-.62,1.7-1.32,3.38-2,5a114.63,114.63,0,0,1-7.69,14.55c-.34.57-.71,1.15-1.09,1.73a142.9,142.9,0,0,1-13.07,17.22c-.48.58-1,1.14-1.49,1.71q-6.71,7.43-14.19,14.25c-.66.62-1.32,1.21-2,1.82-5.93,5.37-12.14,10.5-18.42,15.51l-2.13,1.67q-6.4,5-12.84,9.94a82,82,0,0,1-8.92.85l-2,.11a58.23,58.23,0,0,0-6.27.7c3.41-10.53,6.83-21.08,10.43-31.56.18-.61.39-1.21.6-1.8,2.25-6.56,4.58-13.09,7.05-19.58.23-.6.46-1.21.68-1.82,2.63-6.87,5.39-13.69,8.34-20.43h0c.24-.58.49-1.14.75-1.71,2.64-5.95,5.42-11.87,8.39-17.67.58-1.14,1.17-2.27,1.76-3.41.3-.54.58-1.09.9-1.62,4.17-7.59,9.11-14.82,16-19.94.2-.15.41-.31.63-.46s.46-.32.68-.46c7.28-4.89,17-6.86,25-3.81.49.2,1,.4,1.46.63a19.81,19.81,0,0,1,3,1.79,22.48,22.48,0,0,1,7.63,10.25,13.35,13.35,0,0,1,.54,1.54A28.86,28.86,0,0,1,427.26,284.63Z"/><path class="cls-3" d="M399.52,291.73q4.14-7.5,8.11-15.08a81.71,81.71,0,0,0,18.23,0,13.35,13.35,0,0,0-.54-1.54,79.28,79.28,0,0,1-16.87.05q3.17-6,6.22-12.09c-.48-.23-1-.43-1.46-.63q-5.9,11.67-12.13,23.15a95.64,95.64,0,0,1-12.85-19.34c-.22.14-.46.3-.68.46s-.43.31-.63.46A97.81,97.81,0,0,0,400.17,287l.09.09q-6,11.06-12.34,22a104.31,104.31,0,0,1-17-22c-.32.53-.6,1.08-.9,1.62a107,107,0,0,0,17.11,21.75q-1.65,2.83-3.33,5.68c-2.22,3.75-4.47,7.51-6.75,11.22a73.13,73.13,0,0,1-17.18-17.57c-.26.57-.51,1.13-.75,1.71h0a75.46,75.46,0,0,0,9.5,10.94,73.66,73.66,0,0,0,7.61,6.27q-5.64,9.24-11.53,18.37a66.8,66.8,0,0,1-13.92-15.15c-.22.61-.45,1.22-.68,1.82a68.82,68.82,0,0,0,13.73,14.68c-3.42,5.34-6.93,10.64-10.47,15.89a70.54,70.54,0,0,1-10.31-11c-.21.59-.42,1.19-.6,1.8a71.2,71.2,0,0,0,10,10.51c-1.3,1.9-2.59,3.8-3.89,5.69q-5.08,7.37-10.3,14.66l2-.11c2.7-3.79,5.39-7.6,8-11.42a90.2,90.2,0,0,0,13.74.63l2.13-1.67a92.21,92.21,0,0,1-14.86-.44q5.64-8.18,11.09-16.44a74.2,74.2,0,0,0,22.19,1.37c.68-.61,1.34-1.2,2-1.82a72.61,72.61,0,0,1-23.25-1q2.33-3.56,4.61-7.1,2.77-4.31,5.47-8.62a104,104,0,0,0,27.36,2.44c.5-.57,1-1.13,1.49-1.71a100.88,100.88,0,0,1-17.72-.43A99,99,0,0,1,372.34,338c3.63-5.8,7.21-11.66,10.7-17.53a86.64,86.64,0,0,0,30.33,2.45c.38-.58.75-1.16,1.09-1.73A85.1,85.1,0,0,1,383.9,319q6.09-10.25,12-20.69a74,74,0,0,0,28.33,3.26c.18-.54.37-1.08.56-1.62a72.28,72.28,0,0,1-28.1-3.06Q398.1,294.32,399.52,291.73Z"/><path class="cls-5" d="M301.8,178.22a26.17,26.17,0,0,1-8.16,10.07,28.24,28.24,0,0,0,3.3-17.78c.14,4-1.58,8.08-3.61,11.48a40.26,40.26,0,0,1-7.7,9,59.6,59.6,0,0,1-5.44,4.42h0c-9.5,3.37-19.8,4.34-29.89,4.42-10.53.08-21.3-.78-31.23-4.06a53.38,53.38,0,0,1-6-4.79,40.26,40.26,0,0,1-7.7-9c-2-3.4-3.75-7.53-3.6-11.48a28.18,28.18,0,0,0,3.8,18.68,25.53,25.53,0,0,1-8.09-8.8c-3.41-6.48-3-14.33-1.27-21.46s4.6-13.93,5.95-21.13c1.77-9.52.76-19.29,1.23-29S206.1,88.74,213,82c7.25-7.13,19-7.92,28.09-3.35,6.81-3.07,13.56-6.89,20.94-8s15.3-.22,21.45,4c9,6.12,12.4,17.81,12.94,28.67s-1.1,21.84.65,32.56c1.16,7.16,3.83,14,5.46,21.05S304.72,171.57,301.8,178.22Z"/><path class="cls-6" d="M125.63,223.51s5.13,18.92,34.74,70.28c7.53-14.2,14-28.79,18.33-43.07l48.08-39.44s-4.25,48.19-50.42,110.08c-7.2,9.65-22.22,9.44-28.36-.93-31-52.34-35.19-67.57-41.28-93.69Z"/><path class="cls-6" d="M108.48,233.76a10.68,10.68,0,0,1-4.25-5.38c-1.49-3.86-1.27-8.14-3.08-11.91-1.63-3.4-4.62-5.93-7.58-8.27a20.24,20.24,0,0,1-3.25-2.95l0,0a1.67,1.67,0,0,1,2-2.53,36.26,36.26,0,0,1,10.43,7,.1.1,0,0,0,.17-.06c.59-5.91-3.34-11.57-4.88-17.38a1.64,1.64,0,0,1,2.84-1.47,78.22,78.22,0,0,1,9.52,13.82.1.1,0,0,0,.19,0,44.58,44.58,0,0,0-.69-12.89,53.42,53.42,0,0,1-1.09-5.44c0-.31-.06-.62-.07-.93a1.72,1.72,0,0,1,3.25-.83,35.36,35.36,0,0,1,2.43,6.76c1,3.63,1.86,7.37,3.82,10.57a.1.1,0,0,0,.19-.06,96.53,96.53,0,0,1,.93-12.71,18.14,18.14,0,0,1,1-4.68l0,0a1.87,1.87,0,0,1,3.57.51,341.27,341.27,0,0,1,2.81,34.4.1.1,0,0,0,.16.07,25.78,25.78,0,0,1,9.67-5.24,5.3,5.3,0,0,1,2.27-.17,2.29,2.29,0,0,1,1.74,1.35,2.37,2.37,0,0,1-.41,2.12,7.61,7.61,0,0,1-1.63,1.52,63.86,63.86,0,0,0-9.28,8.8c-1.83,2.14-3.58,4.44-6,5.89-3.12,1.86-7.37,2.17-10.9,1.63A10.19,10.19,0,0,1,108.48,233.76Z"/><path class="cls-7" d="M206.2,198.08S180.38,221.82,164,274.34l35.49,18,13.47-31.12Z"/><path class="cls-7" d="M308.67,414a238.49,238.49,0,0,1-29.47,6.19,223,223,0,0,1-25.6,2.23c-1.3,0-2.62.07-3.93.09-.76,0-1.51,0-2.26-.05A232.25,232.25,0,0,1,190.68,414c-4.82-1.31-8.05-5.6-7.5-10.25a.12.12,0,0,0,0-.08v0c3.55-29.22,19.16-63.94,20.74-80,1.32-13.32,1.36-30.76.34-37.88-.32-2.3-.54-3.63-.54-3.63-1.72-1.95-5.06-2.84-6.23-4.87h0v0c-9.13-15.93-2.57-34.12,3.07-45.27,1.48-18.89,2.94-30.08,5.44-33.67,1.31-1.69,5.48-3.55,10.78-5.14l6.92-1.79c2.25-.49,4.58-.9,6.87-1.24,3.21-.65,11.23-1.2,19.09-1.25s15.88.6,19.09,1.25c2.3.34,4.61.75,6.86,1.24l6.93,1.79c5.29,1.59,9.46,3.45,10.78,5.14,2.49,3.59,4,14.78,5.44,33.67,5.64,11.15,12.19,29.34,3.06,45.27v0c-1.17,2-4.31,4.12-6,6.07,0,0-.23,1.33-.56,3.63-1,7.12-1.19,23.36.13,36.68,1.58,16.07,17.21,50.79,20.75,80v0a.22.22,0,0,1,0,.08C316.71,408.4,313.47,412.69,308.67,414Z"/><polygon class="cls-1" points="235.4 189.71 250.5 216.22 264.01 189.64 235.4 189.71"/><path class="cls-8" d="M235.33,189.64s-27.09,40,15.17,26.58Z"/><path class="cls-8" d="M264,189.64s28.74,40-13.51,26.58Z"/><path class="cls-8" d="M253.6,216.23V422.42c-1.3,0-2.62.07-3.93.09-.76,0-1.51,0-2.26-.05V216.23Z"/><rect class="cls-9" x="220.14" y="253.86" width="65.92" height="89.99"/><path class="cls-6" d="M227.38,284.26s21.07,11.28,83.26,21.82c-5.83-15-12.66-29.4-20.64-42l1.54-62.16S325.26,236.6,342,312a17.26,17.26,0,0,1-19.22,20.87c-62.21-8.91-82.73-19.32-105.27-32.16Z"/><path class="cls-6" d="M247.22,299.84s-12.39-29.84-15.62-29-1.38,11.94-1.38,11.94-17.8-3-18.31,1.81,5.64,5,5.64,5-5-.18-4.73,2.86,4.63,4.3,4.63,4.3-4.18.21-4.36,2.94,4.8,3.37,4.8,3.37-5.08,0-5.11,2.25c-.06,3.6,19.69,6.61,24,4.49S247.22,299.84,247.22,299.84Z"/><path class="cls-7" d="M293,198s25.77,23.87,42.19,76.39l-35.49,18-13.47-31.12C285.68,233.34,286,207.53,293,198Z"/><path class="cls-10" d="M205.46,239.12s-15.76,23.73,0,43.66"/><path class="cls-10" d="M295.54,239.12s15.75,23.73,0,43.66"/><path class="cls-6" d="M264,189.64c-15.2,12.32-27.6,1-28.61.07l-.07-.07,2.53-22.48h23.62l.42,3.66,1.1,9.77Z"/><path class="cls-11" d="M263,180.59a45.74,45.74,0,0,1-12.14.22c-4.83-.66-9.62-2.65-12.84-6.3a96.51,96.51,0,0,0,23.89-3.69Z"/><path class="cls-6" d="M215.17,150.3c-3.43,3.43-9.56,2.87-13.69-1.26s-4.7-10.26-1.26-13.69,9.56-2.87,13.69,1.26S218.6,146.87,215.17,150.3Z"/><path class="cls-11" d="M214.4,145.3a11.4,11.4,0,0,0-1.09-3.65,8.27,8.27,0,0,0-2.51-2.72,7.77,7.77,0,0,0-3.66-1.3,8,8,0,0,0-4.14.73,1.91,1.91,0,0,0-.89,1.15,2,2,0,0,0,.2,1.5,2,2,0,0,0,2.65.69c-.42.18-.08,0,0,0l.35-.11.36-.08.13,0a4,4,0,0,1,.6,0h.5a3.51,3.51,0,0,1,.58.13l.35.11.14.05c.14,0,.1,0-.14-.07.15,0,.44.22.57.3s.31.23.48.31l.25.23a6,6,0,0,1,.42.45l-.05-.08.05.08h0l.17.23c.1.16.2.33.29.5l.07.13,0,.12a7.08,7.08,0,0,1,.22.75c.13.53.22,1.07.3,1.61a2,2,0,0,0,2.39,1.36A2,2,0,0,0,214.4,145.3Z"/><polygon class="cls-12" points="209.56 142.99 209.56 142.99 209.56 142.99 209.56 142.99"/><path class="cls-6" d="M285.17,150.3c3.44,3.43,9.57,2.87,13.7-1.26s4.69-10.26,1.26-13.69-9.57-2.87-13.7,1.26S281.74,146.87,285.17,150.3Z"/><path class="cls-11" d="M287.3,147.69a2,2,0,0,0,2.38-1.36c.09-.54.17-1.08.3-1.61a7.16,7.16,0,0,1,.23-.75s0-.08,0-.12l.07-.13c.09-.17.19-.34.29-.5s.12-.15.17-.23c-.06.08-.14.15,0,0h0l.05-.08-.05.08a6.14,6.14,0,0,1,.43-.45l.25-.23c.16-.08.32-.23.47-.31s.42-.3.57-.3c-.23.1-.28.12-.14.07l.14-.05.35-.11a3.51,3.51,0,0,1,.58-.13h.5a4,4,0,0,1,.6,0l.13,0,.36.08.35.11c.09,0,.43.17,0,0a1.93,1.93,0,0,0,2.84-2.19,1.87,1.87,0,0,0-.89-1.15,8,8,0,0,0-4.14-.73,7.73,7.73,0,0,0-3.65,1.3,8.17,8.17,0,0,0-2.51,2.72,11.17,11.17,0,0,0-1.1,3.65A2,2,0,0,0,287.3,147.69Z"/><polygon class="cls-12" points="290.78 142.99 290.78 142.99 290.78 142.99 290.78 142.99"/><path class="cls-6" d="M287.67,127.08c0,32-16.86,51.09-37.65,51.09s-37.65-19.09-37.65-51.09,16.85-42.3,37.65-42.3S287.67,95.08,287.67,127.08Z"/><path class="cls-5" d="M223.42,126.48a17.11,17.11,0,0,1,6.46-2.58,15.93,15.93,0,0,1,7.12.54h0a1.29,1.29,0,0,1-.74,2.47l-.15-.06a13.7,13.7,0,0,0-6.06-1.21,15.8,15.8,0,0,0-6.19,1.64.46.46,0,0,1-.45-.8Z"/><path class="cls-5" d="M276.62,126.48a17.11,17.11,0,0,0-6.46-2.58,15.93,15.93,0,0,0-7.12.54h0a1.29,1.29,0,0,0,.74,2.47l.15-.06a13.7,13.7,0,0,1,6.06-1.21,15.8,15.8,0,0,1,6.19,1.64.46.46,0,0,0,.45-.8Z"/><path class="cls-13" d="M237.48,135.91a3.46,3.46,0,1,1-3.46-3.46A3.46,3.46,0,0,1,237.48,135.91Z"/><path class="cls-1" d="M233.85,135a1,1,0,1,1-1-1A1,1,0,0,1,233.85,135Z"/><path class="cls-13" d="M269.47,135.91a3.46,3.46,0,1,1-3.45-3.46A3.46,3.46,0,0,1,269.47,135.91Z"/><path class="cls-1" d="M265.84,135a1,1,0,1,1-1-1A1,1,0,0,1,265.84,135Z"/><path class="cls-14" d="M259.54,154.55c-1.24-3-6.11.12-9.88.12s-8.63-3.12-9.87-.12c-1.57,3.78,3.79,7.16,9.87,7.16S261.1,158.33,259.54,154.55Z"/><path class="cls-15" d="M240.77,158.62c1.77,1.83,5.19,3.09,8.89,3.09s7.12-1.26,8.89-3.09a18.47,18.47,0,0,0-17.78,0Z"/><path class="cls-1" d="M241.26,153.32a12,12,0,0,0,8.54,3.5,12.26,12.26,0,0,0,8.25-3.5c-2.07-.43-5.54,1.35-8.39,1.35S243.32,152.88,241.26,153.32Z"/><path class="cls-16" d="M249.69,143.59a.88.88,0,0,0-.43-.56,2.09,2.09,0,0,0-.92-.2,2.25,2.25,0,0,0-.92.25,2.21,2.21,0,0,0-1.07,1.34,2.71,2.71,0,0,0,0,1.62,4.62,4.62,0,0,0,.86,1.47.93.93,0,0,0,.65.27.92.92,0,0,0,.93-.93,1,1,0,0,0-.26-.64l0,0a3.64,3.64,0,0,1-.38-.63c0-.11-.07-.22-.1-.33V145s0-.11,0-.16l.07-.11h0l.09,0,0,0h0l.08,0-.05,0h0a.86.86,0,0,0,.55,0,.91.91,0,0,0,.55-.43A.93.93,0,0,0,249.69,143.59Z"/><path class="cls-5" d="M277.4,103c.07,12.14,4.14,24.19,10.45,34.57A60.26,60.26,0,0,0,289,113.12c-1.41-8.06-4.93-15.63-10.16-20.48-5.84-5.42-13.24-7.12-20.39-8.33C249,82.72,239,81.82,230.07,85.69l.68-1.67c-7.92,2.87-14.76,10.25-18.32,19.75s-3.28,24.13-.06,33.82c7.29-7.21,11.33-21.92,11.64-33.68a25.75,25.75,0,0,0,12,6.08,11,11,0,0,0,7-.32c2.14-1,3.71-3.53,3-5.78a31.89,31.89,0,0,0,19.21,6.73,15.58,15.58,0,0,0,7.55-1.45C275.07,108,277.19,105.6,277.4,103Z"/><path class="cls-8" d="M222.55,94.16a77.85,77.85,0,0,1,55.25,0V64.82q-27.63-12.25-55.25,0Z"/><path class="cls-7" d="M222.55,94.16a123.71,123.71,0,0,1,55.25,0l6.38-21.28a101.79,101.79,0,0,0-68,0Z"/><rect class="cls-1" x="247.75" y="72.64" width="4.84" height="13.05"/><rect class="cls-1" x="247.75" y="72.64" width="4.84" height="13.05" transform="translate(329.34 -171) rotate(90)"/><path class="cls-3" d="M68.41,162.25a8.42,8.42,0,1,1,8.42-8.41A8.42,8.42,0,0,1,68.41,162.25Zm0-15.74a7.33,7.33,0,1,0,7.33,7.33A7.34,7.34,0,0,0,68.41,146.51Z"/><path class="cls-3" d="M439.61,336.77a8.42,8.42,0,1,1,8.42-8.42A8.42,8.42,0,0,1,439.61,336.77Zm0-15.75a7.33,7.33,0,1,0,7.33,7.33A7.33,7.33,0,0,0,439.61,321Z"/><path class="cls-3" d="M194.89,71.44a.55.55,0,0,1-.55-.54V63.15a.55.55,0,0,1,.55-.54.54.54,0,0,1,.54.54V70.9A.54.54,0,0,1,194.89,71.44Z"/><path class="cls-3" d="M198.76,67.57H191a.54.54,0,0,1-.54-.54.55.55,0,0,1,.54-.55h7.75a.55.55,0,0,1,.54.55A.54.54,0,0,1,198.76,67.57Z"/><path class="cls-17" d="M447.49,295.09a.55.55,0,0,1-.55-.54V286.8a.55.55,0,0,1,.55-.54.54.54,0,0,1,.54.54v7.75A.54.54,0,0,1,447.49,295.09Z"/><path class="cls-17" d="M451.36,291.22h-7.75a.54.54,0,0,1-.54-.54.55.55,0,0,1,.54-.55h7.75a.55.55,0,0,1,.54.55A.54.54,0,0,1,451.36,291.22Z"/><path class="cls-9" d="M411.12,131.75a.55.55,0,0,1-.55-.55v-7.75a.55.55,0,0,1,.55-.54.54.54,0,0,1,.54.54v7.75A.55.55,0,0,1,411.12,131.75Z"/><path class="cls-9" d="M415,127.87h-7.75a.54.54,0,0,1,0-1.08H415a.54.54,0,0,1,0,1.08Z"/><path class="cls-17" d="M77.91,97.31a.54.54,0,0,1-.54-.54V89.93a.54.54,0,0,1,.54-.54.55.55,0,0,1,.55.54v6.84A.55.55,0,0,1,77.91,97.31Z"/><path class="cls-17" d="M81.34,93.89H74.49a.54.54,0,0,1,0-1.08h6.85a.54.54,0,0,1,0,1.08Z"/><path class="cls-3" d="M60,284.11a.54.54,0,0,1-.54-.54v-6.85a.54.54,0,0,1,1.08,0v6.85A.54.54,0,0,1,60,284.11Z"/><path class="cls-3" d="M63.42,280.69H56.58a.55.55,0,1,1,0-1.09h6.84a.55.55,0,0,1,0,1.09Z"/><path class="cls-4" d="M114.11,118.67a.54.54,0,0,1-.54-.54V104.44a.54.54,0,1,1,1.08,0v13.69A.54.54,0,0,1,114.11,118.67Z"/><path class="cls-4" d="M121,111.83H107.27a.55.55,0,0,1,0-1.09H121a.55.55,0,0,1,0,1.09Z"/><path class="cls-4" d="M454.41,240a.55.55,0,0,1-.55-.54V225.8a.55.55,0,0,1,.55-.54.54.54,0,0,1,.54.54v13.69A.54.54,0,0,1,454.41,240Z"/><path class="cls-4" d="M461.25,233.19H447.56a.54.54,0,0,1-.54-.54.55.55,0,0,1,.54-.55h13.69a.55.55,0,0,1,.54.55A.54.54,0,0,1,461.25,233.19Z"/><path class="cls-17" d="M322.43,125.51a.54.54,0,0,1-.54-.54V111.28a.54.54,0,0,1,1.08,0V125A.54.54,0,0,1,322.43,125.51Z"/><path class="cls-17" d="M329.28,118.67H315.59a.54.54,0,1,1,0-1.08h13.69a.54.54,0,0,1,0,1.08Z"/><path class="cls-9" d="M46.25,265a.55.55,0,0,1-.54-.55V250.73a.55.55,0,0,1,.54-.55.55.55,0,0,1,.55.55v13.68A.55.55,0,0,1,46.25,265Z"/><path class="cls-9" d="M53.1,258.11H39.41a.54.54,0,0,1,0-1.08H53.1a.54.54,0,1,1,0,1.08Z"/><path class="cls-3" d="M355.09,117l-13.93-13.81a9.41,9.41,0,1,1,13.93-12.64,9.29,9.29,0,0,1,7.08-3.21A9.4,9.4,0,0,1,369,103.14l-.53.53ZM348,88.39a8.33,8.33,0,0,0-6.09,14l.51.49,12.65,12.56,13.18-13.07a8.32,8.32,0,1,0-12.74-10.67l-.43.58-.44-.58A8.25,8.25,0,0,0,348,88.39Z"/><path class="cls-17" d="M446,209.68l-7.52-7.46a5.15,5.15,0,0,1-1.43-3.58,5.22,5.22,0,0,1,5.22-5.21A5.15,5.15,0,0,1,446,195a5.13,5.13,0,0,1,3.73-1.57,5.21,5.21,0,0,1,3.81,8.78l-.29.28Zm-3.73-15.17a4.13,4.13,0,0,0-4.13,4.13,4.07,4.07,0,0,0,1.11,2.82l.26.25,6.49,6.44,6.76-6.7a4.07,4.07,0,0,0,1.1-2.81,4.13,4.13,0,0,0-4.13-4.13,4.06,4.06,0,0,0-3.29,1.65l-.44.58-.43-.58A4.09,4.09,0,0,0,442.27,194.51Z"/><path class="cls-4" d="M56,362.87,44.56,351.5A7.8,7.8,0,1,1,56,340.93a7.72,7.72,0,0,1,5.79-2.57,7.8,7.8,0,0,1,7.81,7.79,7.72,7.72,0,0,1-2.11,5.33l-.44.43Zm-5.79-23.43a6.71,6.71,0,0,0-4.9,11.3l.41.4L56,361.34l10.72-10.62a6.64,6.64,0,0,0,1.79-4.57,6.72,6.72,0,0,0-6.72-6.71,6.62,6.62,0,0,0-5.35,2.68l-.43.57-.44-.57A6.65,6.65,0,0,0,50.24,339.44Z"/><path class="cls-7" d="M375.34,248a25.64,25.64,0,0,1-7.68-5.48,25.73,25.73,0,0,1-9.44.07l.34-2a24.34,24.34,0,0,0,7.55.13c-13-16.44-2.91-46-2.79-46.3a18.62,18.62,0,0,1,35.5,11.26c-.09.33-8.79,30.28-28.88,36.25a24.05,24.05,0,0,0,6.26,4.23Zm5.71-64.53a16.66,16.66,0,0,0-15.83,11.62c-.13.36-10.21,29.85,3.14,45.22,19.75-4.89,28.45-34.82,28.55-35.17a16.62,16.62,0,0,0-10.83-20.89A16.75,16.75,0,0,0,381.05,183.43Z"/><path class="cls-7" d="M398.82,205.67l-1.9-.6c2.07-6.56-5.2-12.14-12.83-14.56s-16.8-2-18.87,4.54l-1.91-.61c2.49-7.86,12.83-8.54,21.38-5.83S401.31,197.8,398.82,205.67Z"/><path class="cls-18" d="M359.4,241.72c-.13,1.46-2.19,2.47-3.71,2.34s-1.92-1.35-1.8-2.81.73-2.59,2.25-2.46S359.52,240.27,359.4,241.72Z"/><path class="cls-18" d="M374.27,246.43c-.73,1.26.37,3.27,1.69,4s2.35,0,3.09-1.26.89-2.54-.43-3.31S375,245.16,374.27,246.43Z"/><path class="cls-7" d="M329,188.09A14.34,14.34,0,0,1,320,185c-4.12-3.34-5.62-9.43-3.41-13.87l1.79.89c-1.81,3.64-.54,8.66,2.88,11.43a13.41,13.41,0,0,0,12.41,1.85,20.81,20.81,0,0,0,10.26-8.28,61.23,61.23,0,0,0,4.54-8.6c2.36-5.1,4.8-10.38,9.37-13.9,7.48-5.76,19.56-4.54,26.37,2.67,6.41,6.78,7.93,17.82,3.69,26.84l-1.81-.85c3.89-8.29,2.53-18.41-3.33-24.61-6.14-6.5-17-7.63-23.7-2.47-4.18,3.23-6.41,8.05-8.77,13.16a62.82,62.82,0,0,1-4.7,8.88,22.75,22.75,0,0,1-11.29,9.06A16.83,16.83,0,0,1,329,188.09Z"/><path class="cls-7" d="M325.69,169a6.69,6.69,0,1,1-4.36-8.39A6.68,6.68,0,0,1,325.69,169Z"/><path class="cls-8" d="M322.69,168a3.54,3.54,0,1,1-2.31-4.44A3.54,3.54,0,0,1,322.69,168Z"/><path class="cls-7" d="M154.31,158a.45.45,0,0,1-.29-.1.5.5,0,0,1-.11-.7c2.24-3,4.55-6.18,5.89-9.75,1.46-3.91,1.41-7.86-.13-10.83s-5.36-5.47-9-4.36c-2.44.75-4.5,2.94-6.12,6.52a31.18,31.18,0,0,0-2.76,14,.5.5,0,0,1-1,0,32.29,32.29,0,0,1,2.84-14.4c1.75-3.85,4-6.23,6.75-7.06,3.72-1.14,8.21,1,10.2,4.85,1.67,3.22,1.73,7.46.17,11.64-1.38,3.7-3.74,6.9-6,10A.46.46,0,0,1,154.31,158Z"/><path class="cls-8" d="M132.94,165c1.06-2.73,2.07-6,3.66-8.45a14.75,14.75,0,0,1,6.43-5.79,9,9,0,0,1,8.41.59c2.76,1.91,3.86,5.43,4.42,8.73,2,11.45-.28,23.15-2.52,34.55C146.28,184.82,140,174.85,132.94,165Z"/><path class="cls-7" d="M153.89,199.85A34,34,0,0,1,132.94,165a121.75,121.75,0,0,1,16.86-8.25c3.72-1.48,7.84-2.78,11.67-1.61,3.66,1.12,6.39,4.42,7.56,8.08a22.83,22.83,0,0,1,.17,11.38C167.25,184.16,161.57,193.87,153.89,199.85Z"/><path class="cls-7" d="M169,170.13a.51.51,0,0,1-.42-.23.5.5,0,0,1,.15-.69c8.25-5.32,12.41-10.89,13.08-17.54a10.91,10.91,0,0,0-2.34-8.23,6,6,0,0,0-4.7-2c-4.66,0-8.78,4.55-10.83,7.24a59.81,59.81,0,0,0-5.26,8.92.49.49,0,0,1-.67.22.51.51,0,0,1-.22-.67,60.37,60.37,0,0,1,5.35-9.08c2.16-2.83,6.54-7.59,11.62-7.63a7.21,7.21,0,0,1,5.45,2.35,11.89,11.89,0,0,1,2.59,9c-.92,9.17-8.16,14.82-13.53,18.28A.5.5,0,0,1,169,170.13Z"/></g></svg>