<svg id="Capa_1" data-name="Capa 1" xmlns="http://www.w3.org/2000/svg" xmlns:xlink="http://www.w3.org/1999/xlink" viewBox="0 0 980.24 500"><defs><style>.cls-1{fill:url(#Degradado_sin_nombre_104);}</style><linearGradient id="Degradado_sin_nombre_104" x1="490.12" y1="-88.68" x2="490.12" y2="655.8" gradientUnits="userSpaceOnUse"><stop offset="0.14" stop-color="#190f21"/><stop offset="0.16" stop-color="#251b2c"/><stop offset="0.25" stop-color="#57505d"/><stop offset="0.34" stop-color="#847f88"/><stop offset="0.44" stop-color="#aaa6ad"/><stop offset="0.54" stop-color="#c9c6cb"/><stop offset="0.64" stop-color="#e1dfe2"/><stop offset="0.75" stop-color="#f2f1f2"/><stop offset="0.87" stop-color="#fcfcfc"/><stop offset="1" stop-color="#fff"/></linearGradient></defs><path class="cls-1" d="M980.24,21.84V506H0v-494c.39,0,.77,0,1.16-.08C10.59,10.82,20,9.47,29.46,8.51,41.77,7.27,54.12,6.44,66.51,6.37A29.1,29.1,0,0,0,69.72,6H79c1.31.12,2.61.33,3.92.34a292.43,292.43,0,0,1,34.73,2.44,249,249,0,0,1,30.72,5.94c9.6,2.51,18.78,6.18,28,9.7,23,8.76,46.49,15.91,70.75,20.34a264.25,264.25,0,0,0,42.44,4.42,213.88,213.88,0,0,0,53.4-5.8c11.28-2.65,22.51-5.54,33.91-7.73,21.72-4.17,43.49-8.07,65.47-10.6,13.53-1.56,27.08-2.95,40.66-4,11-.83,22-1.14,33-1.39a467.63,467.63,0,0,1,50.36,1.62c9.56.83,19.12,1.75,28.63,3,12.8,1.66,25.51,4,38.13,6.76A445,445,0,0,1,692,48.27c7.32,2.72,14.54,5.72,21.9,8.3,25.36,8.89,51.57,12.82,78.37,13.17a325.06,325.06,0,0,0,48.39-3.14q15.4-2.11,30.6-5.44c13.67-3,27.16-6.67,40.48-11A445.78,445.78,0,0,0,962.3,30.52C968.32,27.73,974.26,24.74,980.24,21.84Z"/></svg>