<svg id="_Layer_" data-name="&lt;Layer&gt;" xmlns="http://www.w3.org/2000/svg" viewBox="0 0 2760 1840"><defs><style>.cls-1{fill:#300a2d;}.cls-2{fill:#c0d8fb;}.cls-3{fill:#dfebfd;}.cls-4{fill:#b7d3f3;}.cls-5{opacity:0.5;}.cls-6{fill:#bad4f4;}.cls-7{fill:#c8dbf4;}.cls-34,.cls-8{fill:#fff;}.cls-9{fill:#cedffa;}.cls-10{fill:#dde7fe;}.cls-11{fill:#7c9af2;}.cls-12{fill:#bdd1f9;}.cls-13{fill:#f99746;}.cls-14{fill:#9eb9e5;}.cls-15{fill:#88a9d8;}.cls-16{fill:#aec3ff;}.cls-17{fill:#d4e4f8;}.cls-18{fill:#233862;}.cls-19{fill:#ffb27d;}.cls-20{fill:#f9ddbf;}.cls-21{fill:#eac3a0;}.cls-22{fill:#ed7d2b;}.cls-23{fill:#ed975d;}.cls-24{fill:#e87e36;}.cls-25{fill:#2b478b;}.cls-26{fill:#7088d6;}.cls-27{fill:#9ab4ef;}.cls-28{fill:#88a8e2;}.cls-29{fill:#85a6e0;}.cls-30{fill:#bbd0ff;}.cls-31{fill:#2e3552;}.cls-32{fill:#163560;}.cls-33{fill:#e8945b;}.cls-34{font-size:39px;font-family:Bauhaus93, "Bauhaus 93";}.cls-35{fill:#e9e7e9;}.cls-36{fill:#6b1a4e;}.cls-37{fill:#c55182;}.cls-38{fill:#9c175e;}.cls-39{fill:#c45282;}.cls-40{fill:#9b165e;}.cls-41{fill:#99045a;}.cls-42{fill:#9a0b5b;}.cls-43{fill:#c55282;}.cls-44{fill:#daabc3;}.cls-45{fill:#dbafc6;}.cls-46{fill:#9c165e;}.cls-47{fill:#990356;}.cls-48{fill:#e2915a;}.cls-49{fill:#9db0f4;}.cls-50{fill:#c65447;}</style></defs><path class="cls-1" d="M255.76,1510.29S68.07,1049,196.88,778.88C347.5,463,843.21,253.82,1169.75,374.18,1680.2,562.31,1681.3,531.27,2014,491.33c388.51-46.64,740.65,479.25,450.95,1017.63Z"/><rect class="cls-2" x="1691.53" y="620.79" width="129.4" height="125.54" rx="9.26"/><rect class="cls-3" x="1697.14" y="626.23" width="118.19" height="114.66" rx="8.45"/><path class="cls-4" d="M1753.55,637.69a2.68,2.68,0,1,1,2.68,2.68A2.68,2.68,0,0,1,1753.55,637.69Z"/><path class="cls-4" d="M1775.18,641.48a2.68,2.68,0,1,1,1,3.64A2.67,2.67,0,0,1,1775.18,641.48Z"/><path class="cls-4" d="M1793.71,656.2a2.68,2.68,0,1,1-.8,3.7A2.67,2.67,0,0,1,1793.71,656.2Z"/><path class="cls-4" d="M1802.88,679a2.69,2.69,0,1,1-2.67,2.68A2.67,2.67,0,0,1,1802.88,679Z"/><path class="cls-4" d="M1798.2,705.43a2.68,2.68,0,1,1-3.79,0A2.67,2.67,0,0,1,1798.2,705.43Z"/><path class="cls-4" d="M1781.37,722.3a2.68,2.68,0,1,1-3.79,0A2.69,2.69,0,0,1,1781.37,722.3Z"/><path class="cls-4" d="M1753.55,731a2.68,2.68,0,1,1,2.68,2.68A2.68,2.68,0,0,1,1753.55,731Z"/><path class="cls-4" d="M1737.2,641.48a2.68,2.68,0,1,0-1,3.64A2.68,2.68,0,0,0,1737.2,641.48Z"/><path class="cls-4" d="M1718.67,656.2a2.68,2.68,0,1,0,.79,3.7A2.68,2.68,0,0,0,1718.67,656.2Z"/><path class="cls-4" d="M1709.49,679a2.69,2.69,0,1,0,2.68,2.68A2.68,2.68,0,0,0,1709.49,679Z"/><path class="cls-4" d="M1714.17,705.43a2.68,2.68,0,1,0,3.79,0A2.69,2.69,0,0,0,1714.17,705.43Z"/><path class="cls-4" d="M1731,722.3a2.68,2.68,0,1,0,3.8,0A2.69,2.69,0,0,0,1731,722.3Z"/><path class="cls-4" d="M1755.51,681.66a2.68,2.68,0,1,1,2.68,2.69A2.68,2.68,0,0,1,1755.51,681.66Z"/><rect class="cls-4" x="1757.82" y="648.18" width="0.73" height="33.48"/><rect class="cls-4" x="1755.44" y="673.55" width="22.57" height="2.2" transform="translate(-39.48 1235.1) rotate(-38.14)"/><g class="cls-5"><rect class="cls-6" x="1924.54" y="679.1" width="453.55" height="829.09"/><rect class="cls-3" x="1944.45" y="693.66" width="414.29" height="814.52"/><path class="cls-7" d="M2288.46,1095.36a18.32,18.32,0,1,1,18.31,18.31A18.32,18.32,0,0,1,2288.46,1095.36Z"/><rect class="cls-8" x="2066.69" y="817.1" width="171.01" height="53.99"/><rect class="cls-6" x="2098.42" y="833.84" width="107.54" height="5.55"/><rect class="cls-6" x="2113.47" y="848.79" width="77.44" height="5.55"/><path class="cls-6" d="M2239.75,873.14H2064.63V815.05h175.12Zm-171-4.1h166.91V819.15H2068.74Z"/></g><polygon class="cls-9" points="667.02 524.03 553.85 524.03 553.85 728.52 698.79 728.52 698.79 552.16 667.02 524.03"/><path class="cls-10" d="M707.73,553.59H667a1.36,1.36,0,0,1-1.36-1.37V524a1.37,1.37,0,1,1,2.73,0v26.83h39.35a1.37,1.37,0,1,1,0,2.73Z"/><path class="cls-11" d="M654.67,551.92H594.22a1.37,1.37,0,1,1,0-2.73h60.45a1.37,1.37,0,1,1,0,2.73Z"/><path class="cls-11" d="M687.38,578.31H565.24a1.37,1.37,0,0,1,0-2.73H687.38a1.37,1.37,0,0,1,0,2.73Z"/><path class="cls-11" d="M687.38,587.5H565.24a1.37,1.37,0,0,1,0-2.73H687.38a1.37,1.37,0,0,1,0,2.73Z"/><path class="cls-11" d="M687.38,600.63H565.24a1.37,1.37,0,0,1,0-2.73H687.38a1.37,1.37,0,0,1,0,2.73Z"/><path class="cls-11" d="M687.38,609.82H565.24a1.37,1.37,0,0,1,0-2.73H687.38a1.37,1.37,0,0,1,0,2.73Z"/><path class="cls-11" d="M687.38,619H565.24a1.37,1.37,0,0,1,0-2.73H687.38a1.37,1.37,0,0,1,0,2.73Z"/><path class="cls-11" d="M687.38,628.22H565.24a1.37,1.37,0,0,1,0-2.73H687.38a1.37,1.37,0,0,1,0,2.73Z"/><path class="cls-11" d="M687.38,663.09H565.24a1.37,1.37,0,0,1,0-2.73H687.38a1.37,1.37,0,0,1,0,2.73Z"/><path class="cls-11" d="M687.38,672.29H565.24a1.37,1.37,0,0,1,0-2.73H687.38a1.37,1.37,0,0,1,0,2.73Z"/><path class="cls-11" d="M687.38,681.48H565.24a1.37,1.37,0,0,1,0-2.73H687.38a1.37,1.37,0,0,1,0,2.73Z"/><path class="cls-11" d="M687.38,690.68H565.24a1.37,1.37,0,0,1,0-2.73H687.38a1.37,1.37,0,0,1,0,2.73Z"/><polygon class="cls-9" points="1356.6 725.43 1300.02 725.43 1300.02 831.54 1372.49 831.54 1372.49 740.03 1356.6 725.43"/><path class="cls-11" d="M1350.43,739.9H1320.2a.69.69,0,0,1-.68-.7.7.7,0,0,1,.68-.71h30.23a.69.69,0,0,1,.68.71A.69.69,0,0,1,1350.43,739.9Z"/><path class="cls-11" d="M1366.78,753.6h-61.06a.71.71,0,0,1,0-1.42h61.06a.71.71,0,0,1,0,1.42Z"/><path class="cls-11" d="M1366.78,758.37h-61.06a.71.71,0,0,1,0-1.42h61.06a.71.71,0,0,1,0,1.42Z"/><path class="cls-11" d="M1366.78,765.18h-61.06a.71.71,0,0,1,0-1.42h61.06a.71.71,0,0,1,0,1.42Z"/><path class="cls-11" d="M1366.78,770h-61.06a.71.71,0,0,1,0-1.42h61.06a.71.71,0,0,1,0,1.42Z"/><path class="cls-11" d="M1366.78,774.72h-61.06a.71.71,0,0,1,0-1.41h61.06a.71.71,0,0,1,0,1.41Z"/><path class="cls-11" d="M1366.78,779.49h-61.06a.71.71,0,0,1,0-1.41h61.06a.71.71,0,0,1,0,1.41Z"/><path class="cls-11" d="M1366.78,797.59h-61.06a.7.7,0,0,1-.69-.71.69.69,0,0,1,.69-.7h61.06a.69.69,0,0,1,.68.7A.69.69,0,0,1,1366.78,797.59Z"/><path class="cls-11" d="M1366.78,802.36h-61.06a.71.71,0,0,1,0-1.41h61.06a.71.71,0,0,1,0,1.41Z"/><path class="cls-11" d="M1366.78,807.13h-61.06a.71.71,0,0,1,0-1.41h61.06a.71.71,0,0,1,0,1.41Z"/><path class="cls-11" d="M1366.78,811.91h-61.06a.71.71,0,0,1,0-1.42h61.06a.71.71,0,0,1,0,1.42Z"/><rect class="cls-8" x="735.1" y="586.88" width="481.62" height="318.56"/><path class="cls-12" d="M1220,908.7H731.85V583.63H1220Zm-481.63-6.51h475.12V590.13H738.35Z"/><rect class="cls-12" x="1046.61" y="617.33" width="138.2" height="170.19"/><path class="cls-12" d="M1184.8,811H1046.61a1.63,1.63,0,0,1,0-3.26H1184.8a1.63,1.63,0,1,1,0,3.26Z"/><path class="cls-12" d="M1184.8,841.46H1046.61a1.63,1.63,0,0,1,0-3.25H1184.8a1.63,1.63,0,1,1,0,3.25Z"/><path class="cls-12" d="M1184.8,858.64H1046.61a1.63,1.63,0,0,1,0-3.25H1184.8a1.63,1.63,0,1,1,0,3.25Z"/><path class="cls-12" d="M1184.8,824.29H1046.61a1.63,1.63,0,0,1,0-3.25H1184.8a1.63,1.63,0,1,1,0,3.25Z"/><path class="cls-12" d="M840.11,751.29H751.5a1.63,1.63,0,1,1,0-3.25h88.61a1.63,1.63,0,0,1,0,3.25Z"/><path class="cls-12" d="M840.11,781.74H751.5a1.63,1.63,0,1,1,0-3.25h88.61a1.63,1.63,0,0,1,0,3.25Z"/><path class="cls-12" d="M840.11,798.92H751.5a1.63,1.63,0,0,1,0-3.26h88.61a1.63,1.63,0,0,1,0,3.26Z"/><path class="cls-12" d="M840.11,764.56H751.5a1.63,1.63,0,1,1,0-3.25h88.61a1.63,1.63,0,0,1,0,3.25Z"/><path class="cls-12" d="M840.11,814.92H751.5a1.63,1.63,0,1,1,0-3.25h88.61a1.63,1.63,0,0,1,0,3.25Z"/><path class="cls-12" d="M840.11,845.37H751.5a1.63,1.63,0,1,1,0-3.25h88.61a1.63,1.63,0,0,1,0,3.25Z"/><path class="cls-12" d="M840.11,862.54H751.5a1.63,1.63,0,1,1,0-3.25h88.61a1.63,1.63,0,0,1,0,3.25Z"/><path class="cls-12" d="M840.11,828.19H751.5a1.63,1.63,0,1,1,0-3.25h88.61a1.63,1.63,0,0,1,0,3.25Z"/><path class="cls-12" d="M1023.18,619H856.89a1.63,1.63,0,0,1,0-3.26h166.29a1.63,1.63,0,0,1,0,3.26Z"/><path class="cls-12" d="M1023.18,649.41H856.89a1.63,1.63,0,0,1,0-3.26h166.29a1.63,1.63,0,0,1,0,3.26Z"/><path class="cls-12" d="M1023.18,666.58H856.89a1.63,1.63,0,0,1,0-3.25h166.29a1.63,1.63,0,1,1,0,3.25Z"/><path class="cls-12" d="M1023.18,632.23H856.89a1.63,1.63,0,0,1,0-3.25h166.29a1.63,1.63,0,1,1,0,3.25Z"/><path class="cls-12" d="M1023.18,680.24H856.89a1.63,1.63,0,0,1,0-3.25h166.29a1.63,1.63,0,1,1,0,3.25Z"/><path class="cls-12" d="M1023.18,710.69H856.89a1.63,1.63,0,0,1,0-3.25h166.29a1.63,1.63,0,1,1,0,3.25Z"/><path class="cls-12" d="M1023.18,727.87H856.89a1.63,1.63,0,0,1,0-3.26h166.29a1.63,1.63,0,0,1,0,3.26Z"/><path class="cls-12" d="M1023.18,693.52H856.89a1.63,1.63,0,0,1,0-3.26h166.29a1.63,1.63,0,0,1,0,3.26Z"/><path class="cls-12" d="M1023.18,765.34H856.89a1.63,1.63,0,0,1,0-3.25h166.29a1.63,1.63,0,1,1,0,3.25Z"/><path class="cls-12" d="M1023.18,795.79H856.89a1.63,1.63,0,0,1,0-3.25h166.29a1.63,1.63,0,1,1,0,3.25Z"/><path class="cls-12" d="M1023.18,813H856.89a1.63,1.63,0,0,1,0-3.26h166.29a1.63,1.63,0,0,1,0,3.26Z"/><path class="cls-12" d="M1023.18,778.62H856.89a1.63,1.63,0,0,1,0-3.26h166.29a1.63,1.63,0,0,1,0,3.26Z"/><path class="cls-12" d="M1023.18,824.29H856.89a1.63,1.63,0,0,1,0-3.25h166.29a1.63,1.63,0,1,1,0,3.25Z"/><path class="cls-12" d="M1023.18,854.74H856.89a1.63,1.63,0,0,1,0-3.26h166.29a1.63,1.63,0,0,1,0,3.26Z"/><path class="cls-12" d="M1023.18,871.91H856.89a1.63,1.63,0,0,1,0-3.25h166.29a1.63,1.63,0,1,1,0,3.25Z"/><path class="cls-12" d="M1023.18,837.56H856.89a1.63,1.63,0,0,1,0-3.25h166.29a1.63,1.63,0,1,1,0,3.25Z"/><path class="cls-12" d="M842.84,735.29H751.5a1.63,1.63,0,0,1-1.63-1.63V610.3a1.62,1.62,0,0,1,1.63-1.62h91.34a1.62,1.62,0,0,1,1.63,1.62V733.66A1.63,1.63,0,0,1,842.84,735.29ZM753.12,732h88.1V611.93h-88.1Z"/><rect class="cls-13" x="758.39" y="618.96" width="76.6" height="13.27"/><path class="cls-12" d="M807.62,644.53H760.27a1.88,1.88,0,0,1-1.88-1.88h0a1.88,1.88,0,0,1,1.88-1.88h47.35a1.88,1.88,0,0,1,1.88,1.88h0A1.88,1.88,0,0,1,807.62,644.53Z"/><path class="cls-12" d="M832.54,653H760.27a1.88,1.88,0,0,1-1.88-1.88h0a1.88,1.88,0,0,1,1.88-1.88h72.27a1.88,1.88,0,0,1,1.88,1.88h0A1.88,1.88,0,0,1,832.54,653Z"/><rect class="cls-12" x="758.39" y="657.73" width="65.33" height="3.76" rx="1.74"/><path class="cls-12" d="M807.62,672H760.27a1.88,1.88,0,0,1-1.88-1.88h0a1.88,1.88,0,0,1,1.88-1.88h47.35a1.88,1.88,0,0,1,1.88,1.88h0A1.88,1.88,0,0,1,807.62,672Z"/><path class="cls-12" d="M832.54,680.5H760.27a1.88,1.88,0,0,1-1.88-1.88h0a1.88,1.88,0,0,1,1.88-1.88h72.27a1.88,1.88,0,0,1,1.88,1.88h0A1.88,1.88,0,0,1,832.54,680.5Z"/><rect class="cls-12" x="758.39" y="685.21" width="65.33" height="3.76" rx="1.74"/><path class="cls-12" d="M807.62,702.47H760.27a1.88,1.88,0,0,1-1.88-1.88h0a1.88,1.88,0,0,1,1.88-1.88h47.35a1.88,1.88,0,0,1,1.88,1.88h0A1.88,1.88,0,0,1,807.62,702.47Z"/><path class="cls-12" d="M832.54,711H760.27a1.88,1.88,0,0,1-1.88-1.88h0a1.88,1.88,0,0,1,1.88-1.88h72.27a1.88,1.88,0,0,1,1.88,1.88h0A1.88,1.88,0,0,1,832.54,711Z"/><rect class="cls-12" x="758.39" y="715.66" width="65.33" height="3.76" rx="1.74"/><path class="cls-14" d="M1154.32,777.86c17.24-24.89,1.73-44.43-8.46-53.52,3.88-8.56-1.27-16-1.27-16a13.37,13.37,0,0,0,6.72-13.62s-6-7.06-9.18-10.47a11.93,11.93,0,0,0-.42-15c-2-2.14-4.78-3.59-6.06-6.2-1.9-3.94.48-8.49,1-12.83.86-7.28-3.87-14.32-10-18.33-7.58-5-17.83-8.44-26.4-4.63-7.4,3.32-13,10.73-13.65,18.91-.14,1.84-.09,3.86-1.22,5.33a19.59,19.59,0,0,1-2.65,2.31c-3.09,2.84-2.72,7.85-1.17,11.74,1.32,3.35,3.32,7.11,1.65,10.3-1,1.89-3,3-4.76,4.11-4.92,3.21-8.88,8.42-9.07,14.28-.16,5.27,3.55,10.67,8.55,11.74-1.64,7-2.45,12.88-2.45,12.88L1079,720c-1.22,6.95-2,15.08-1.16,22.24-.07,10.35,9.1,25.94,15.84,36,0,.23-.07.47-.09.7-.15,1.56-.34,4.57-.55,8.64H1154c.12-2.58.21-4.89.3-6.88q.06-1.18,0-2.4l.22-.21-.16-.15ZM1105.63,750a162,162,0,0,0-8,15.81c-4.22-11-8.08-21.9-8.08-21.9l4.75-19,1.8.58,1.28-4.21L1106,741A9.71,9.71,0,0,1,1105.63,750Z"/><path class="cls-15" d="M1139,733.83A22.82,22.82,0,0,1,1152.64,748c3.89,11.18,1.11,22-9.46,24.25s-20-5-22-13.35S1122.07,731.66,1139,733.83Z"/><path class="cls-16" d="M1470,1406.25s23.65-79.6-138.18-92c-169.47-13-75.94-230.3-205.41-255.2l27.39,347.25Z"/><polygon class="cls-16" points="397.8 1059 1126.41 1059 1190.77 1280.37 1375.26 1406.25 566.13 1406.25 397.8 1059"/><path class="cls-17" d="M741.38,1406.25s23.65-79.6-138.18-92c-169.46-13-75.94-230.3-205.4-255.2l27.38,347.25Z"/><path class="cls-16" d="M679.39,1504.88h-.45a5,5,0,0,1-5-5.75l13.3-92.88H706.7l-22.74,95A4.71,4.71,0,0,1,679.39,1504.88Z"/><path class="cls-16" d="M1420.67,1504.88h.45a5,5,0,0,0,5-5.75l-13.3-92.88h-19.45l22.74,95A4.71,4.71,0,0,0,1420.67,1504.88Z"/><path class="cls-18" d="M740.61,930c-12.28-3.16-29.08,0-31.87.27-33.33,3.28-44.53,40.47-39.49,69.31,4.66,26.63-13.2,31.61-28.85,52.64-31.38,42.16-6.52,80.11,18.24,89.27,14.86,5.5,35.49-8.37,35.49-8.37.37.14,64.81-42.22,91.23-66.11C829.55,1067.81,771.89,938,740.61,930Z"/><path class="cls-19" d="M879.23,1491c-.84,7.53,9.64,9.57,21.8,10.41s8.44,3.26,25.06,6.6,23.41-1.1,24.66-3.33c1.11-2-6.59-5.26-14.79-9l-3.1-1.41c-9.22-4.27-14.28-12.71-21.39-20.59-6.73-7.45-12.81-31-12.81-31l-22.58-5.27s6,21.23,8,30.29c1.19,5.33-.84,11.22-2.63,15.7A30,30,0,0,0,879.23,1491Z"/><path class="cls-20" d="M742.82,1044.31s38.11,6.44,42.54,22.69,20.39,96.5,20.39,96.5-17.34,27.45-26.21,18.58S757,1091.15,757,1091.15Z"/><path class="cls-20" d="M805,1158.7s35.76,60,35.76,60-.8,2.91-10.4,5.83c0,0-41.41-5.51-58.89-32.15-4.32-6.59-3.22-26.55-3.22-26.55Z"/><path class="cls-21" d="M773.36,1084.88s12.07,16.64,12.49,32.87,17.48,42,20,58.68,10.82,47.86,10.82,47.86l-39.54,8.33-30-63.26-6.25-53.27Z"/><path class="cls-18" d="M901,1501.41c12.17.84,8.44,3.26,25.06,6.6s23.41-1.1,24.66-3.33c1.11-2-6.59-5.26-14.79-9l-.13.14a47.53,47.53,0,0,1-25.28-.18c-11-3.21-21.52-10-29.09-12.28a30,30,0,0,0-2.23,7.59C878.39,1498.53,888.87,1500.57,901,1501.41Z"/><path class="cls-19" d="M753.9,1458.57c-5.07,5.64,2.26,13.39,11.67,21.15s5,7.56,16.54,20,19.67,12.72,22,11.63c2.06-1-2.3-8.1-6.82-15.88-.57-1-1.13-2-1.7-3-5-8.84-4.22-18.65-5.42-29.19-1.13-10,7.65-32.7,7.65-32.7l-15.3-17.42s-7.51,20.74-11.12,29.29c-2.12,5-7.2,8.64-11.26,11.24A29.38,29.38,0,0,0,753.9,1458.57Z"/><path class="cls-18" d="M765.57,1479.72c9.4,7.76,5,7.56,16.54,20s19.67,12.72,22,11.63c2.06-1-2.3-8.1-6.82-15.88l-.19,0a47.49,47.49,0,0,1-20.45-14.85c-7.06-9-11.69-20.67-16.51-26.92a29.38,29.38,0,0,0-6.23,4.88C748.83,1464.21,756.16,1472,765.57,1479.72Z"/><path class="cls-22" d="M769.62,1197.66s4.16,7.49,18.31,11.65,112.78,38.91,123.39,60.76c10.46,21.53-2.7,196.64-2.7,196.64s-13.11,8.74-26.22,1.25c0,0-22.26-93-21-126.1s.63-54.31.63-54.31-145.45-18.73-154.19-36.83,10.61-49.32,10.61-49.32Z"/><path class="cls-13" d="M676,1199.37s-22.53,38.24-2.24,77.88c17.51,34.21,144.57,25.16,148.57,32.15,2.49,4.37-9.37,7.8-30,60.86-18.74,48.3-21.74,72.31-21.74,72.31s12.28,19.15,26,17.9c0,0,94.39-139.84,95.3-161.68,1.25-30-31.83-37.46-48.06-45.57s-82.2-31.42-89.69-36.42-3.75-23.93-3.75-23.93Z"/><path class="cls-19" d="M745.53,1051.66c.16.06-13.7,9-24.83,7-10.47-2-20.41-15.69-20.28-15.73,4.27-1.22,7.19-6.28,5-31.88l2,.22,33.51,3.83s.1,10.43.87,20.21C742.45,1043.49,743.58,1050.94,745.53,1051.66Z"/><path class="cls-23" d="M740.92,1015.07s.1,10.43.87,20.21c-18.49,1-29.62-15-34.38-24Z"/><path class="cls-19" d="M747.84,1023.82s-43.59,4.3-45.85-22.89-9.41-44.94,18.33-48.84,34,6,37,14.93S759.12,1022,747.84,1023.82Z"/><path class="cls-18" d="M743.16,947.8s-5.48,33.22-30.31,41.1c-18.11,5.75-26.31,2-26.31,2a73.71,73.71,0,0,0,11.81-27.63,13.32,13.32,0,0,1,8.87-10.14C720.09,948.85,735.68,937.27,743.16,947.8Z"/><path class="cls-18" d="M735,954.89s8.21,1.83,15.5,12.43c4,5.79,8.58,20.39,7.8,26.86,0,0,7.63-30.74-3.5-42.18C743,939.88,735,954.89,735,954.89Z"/><path class="cls-20" d="M664.74,1221.07c-.18,3.81,9.87,20.26,47.81,21.63,14.66.53,33.48-1.19,57.49-6.76,15.13-3.5,25.4-19.09,26.22-22,12.89-47-11.66-74.6-21.65-84.9-2.86-3,2.43-10.48,3.75-15,8.11-27.78-35.55-69.7-35.55-69.7s-2.61,18.35-39.31-3.43c-1.29-.78-15.75,20.62-29.65,47s-11.76,33.89-8,48.51c.4,1.54.8,3.15,1.21,4.88.79,3.31,1.25,6.39,2,9.15C682.54,1200.16,665.37,1208,664.74,1221.07Z"/><path class="cls-19" d="M840.08,1217.87c1,0,13.85,2.21,17.82,7.43s13.57,13.15,9.81,14.41-14-5.85-17.12-5.85-10.65,1.25-14-2.72a50.76,50.76,0,0,0-7.76-7.18Z"/><path class="cls-19" d="M837.88,1232.4s8.54,4.69,9.87,6.26,1-1.57-.16-3.29-2.58-4-2.58-4Z"/><path class="cls-21" d="M712.55,1242.7c7.73-7.25,12.59-16.88,12.75-25.07.31-16.23-35.27-40.26-37.15-51.5s1.25-46.5,1.25-46.5l-23.58,16.75c.4,1.54.8,3.15,1.21,4.88.79,3.31,1.25,6.39,2,9.15,13.51,49.75-3.66,57.55-4.29,70.66C664.56,1224.88,674.61,1241.33,712.55,1242.7Z"/><path class="cls-20" d="M703.48,1040.85s-35.69,2.2-48.05,19.44c-17.39,24.26-51.9,127.65-32.12,141.44,22.27,15.53,32.41-20.37,38.68-32.9,4.38-8.77,32.72-53.45,32.72-61.69S703.48,1040.85,703.48,1040.85Z"/><path class="cls-19" d="M711.64,1223.64s8.49,2.27,14.14,5.93c2.69,1.74,8.6,1.93,11,2.09,4.24.28,9.73-2.4,14.84-5.69,6.35-4.09,9.46-9.36,3.64-8.68-6.41.76-15.4,1-17.85-.37s4.38-4.28,4.27-6.42c-.12-2.57-.66-2.14-4.84-.12-2,.94-5.59,1.63-8.23,3.14s-9.06.25-9.06.25Z"/><path class="cls-20" d="M636.42,1164.82l84.12,48.37s2.31,5-4.41,15.59c0,0-63.92-9.79-90-25.31C622.19,1201.11,636.42,1164.82,636.42,1164.82Z"/><path class="cls-8" d="M752.92,1008.35a14.87,14.87,0,0,0-.7,2.66c-.16,1.17-1.25,1.87-4.06,1.87s-5.07.54-6.4-.39-2.42-3.59-2.42-3.59S751.13,1007.65,752.92,1008.35Z"/><path class="cls-18" d="M1017.76,940s-24.24-5.78-36.47,12.4-10.79,27.85-10.79,41.17,9.34,41,36.79,34.83,49.89-52.73,41-67.7S1028.27,940.85,1017.76,940Z"/><path class="cls-19" d="M1099.57,1164.4c3.48,9.51,43,53.44,43,53.44s1.84,1-7.53,3.88c0,0-45.55-14.27-62.56-34.85-4.9-5.92-11-17.52-11-17.52S1095.41,1153,1099.57,1164.4Z"/><path class="cls-13" d="M1101.27,1166.77a13.89,13.89,0,0,1-1.5,5.5c-1.69,3.47-5.31,7.81-13,10.5a49.45,49.45,0,0,1-14.35,2.47c-12.23.51-22-88.75-22-88.75l-13.13-46.28s29,3.76,40.83,22.73C1086.81,1086.9,1101.27,1166.77,1101.27,1166.77Z"/><path class="cls-19" d="M1335.61,1491.71l-3-1.4c-9-4.24-13.84-12.52-20.71-20.26-6.51-7.34-12.24-30.4-12.24-30.4l-22-5.33s5.64,20.77,7.56,29.63c1.12,5.2-.91,10.94-2.69,15.29-.21.52-.42,1-.62,1.56-.33.86,12.14,8,27.53,12.61C1327.63,1498.86,1343.59,1495.38,1335.61,1491.71Z"/><path class="cls-24" d="M1099.77,1172.27c-1.69,3.47-5.31,7.81-13,10.5l-13-11.66-15.53-23.89,16.52-27.07C1076.91,1150.11,1096.05,1168.89,1099.77,1172.27Z"/><path class="cls-18" d="M1301.48,1497c11.86.91,8.21,3.25,24.4,6.64s22.85-.88,24.09-3c1.1-1.92-6.38-5.18-14.36-8.85l-.13.14a46.34,46.34,0,0,1-24.66-.39c-10.69-3.21-20.93-9.93-28.29-12.22a29.11,29.11,0,0,0-2.24,7.39C1279.41,1494,1289.62,1496.05,1301.48,1497Z"/><path class="cls-19" d="M1210.83,1498.9c.43,7.39,70.2,3.76,71,1.41.75-2.09-7.19-4-15.69-6.18-1.06-.27-2.14-.56-3.21-.85-9.58-2.59-15.83-9.88-24-16.29-7.7-6.06-17.42-27.75-17.42-27.75l-22.59-1.37s9.23,19.45,12.68,27.83c2,4.93,1,10.93,0,15.53A29,29,0,0,0,1210.83,1498.9Z"/><path class="cls-18" d="M1233.5,1505.33c11.84-1.19,8.66,1.75,25.2,2.23s22.33-4.9,23.16-7.25c.75-2.09-7.19-4-15.69-6.18l-.1.16a46.46,46.46,0,0,1-24.35,4c-11.08-1.29-22.35-6.09-30-7a29,29,0,0,0-.89,7.67C1211.26,1506.29,1221.67,1506.52,1233.5,1505.33Z"/><path class="cls-25" d="M1308.86,1455.3s-2.48,2.48-8.48,3.82c-5.59,1.25-18.42-.68-18.42-.68s-70-83.82-77.08-106.11-22.77-56.83-33-56.24c-1.18.07-8.44.23-19.47.4-12.19.19-29,.39-47.25.51-53.25.34-116.75-1.1-117.62-4.8-9.76-41.63-5.17-88.21-5.17-88.21l79.47-8.15,14.27,24s123.43,17.51,136.5,23.84C1242.06,1258,1308.86,1455.3,1308.86,1455.3Z"/><path class="cls-18" d="M1165.77,1296.25l-13.36.24c-12.19.19-29,.39-47.25.51-16.62-16-27.77-48.07-18-43.17C1100.65,1260.55,1164.55,1296.25,1165.77,1296.25Z"/><path class="cls-25" d="M1055.9,1227.06s106.36,89.86,117.36,106.36S1229.2,1459,1229.2,1459l-23.84,7.33s-81.61-94.44-85.27-105.44-139.34-31.42-139.75-87.25,3.26-66.43,3.26-66.43S1057.5,1228.33,1055.9,1227.06Z"/><path class="cls-19" d="M1142.53,1217.84c1,0,18.14,2,22,7.14s13.25,12.83,9.58,14.06-13.65-5.71-16.71-5.71-10.39,1.22-13.65-2.65-8.76-9-8.76-9Z"/><path class="cls-19" d="M1145,1231.9s8.33,4.59,9.63,6.12,1-1.53-.15-3.21-2.52-3.9-2.52-3.9Z"/><path class="cls-19" d="M961.54,1278.67s16.66,6.88,17.73,11.31,1.22,17-3.36,17.27-9.33-12.08-12.23-12.08-10.78.88-12.69-3.36a91.85,91.85,0,0,1-4-10.7S963.07,1278.36,961.54,1278.67Z"/><path class="cls-19" d="M960.63,1278c.38.39,10.46,2.6,11.84,2.68s2.52,2.44-4.21,2.06S960.63,1278,960.63,1278Z"/><path class="cls-19" d="M947,1182.8l14.52,95.87s-2.29,2-14.52,2.44c0,0-32.3-80.79-31.89-85.27S947,1182.8,947,1182.8Z"/><path class="cls-13" d="M998.21,1047.42s-34.83,2.15-46.89,19c-17,23.68-50.65,124.58-31.35,138,21.73,15.16,31.63-19.87,37.75-32.11,4.28-8.56,29.34-51.87,29.34-59.91S998.21,1047.42,998.21,1047.42Z"/><path class="cls-13" d="M962.81,1139.26c1,1.43,4.45,31.22,10.71,70.89a424.71,424.71,0,0,1,5.21,51.25s89.08,25.17,121.65-38c0,0,.89-56.65-30.19-74,0,0,11.78-38.22-2.38-58.29a307.92,307.92,0,0,1-23.15-38.65s-28.69-11.69-66.22-1.69Z"/><path class="cls-19" d="M1035.6,1059.94c-2.75,5.26-10.09,8.5-20.59,4.82-9.81-3.43-16.2-15.55-16.2-15.69,0-6.27,3.43-5.78,1.29-30.77l1.95.22,32.69,3.73s.1,10.19.86,19.73C1036.24,1050,1037.75,1055.83,1035.6,1059.94Z"/><path class="cls-23" d="M1034.74,1022.25s.1,10.19.86,19.73c-18,1-28.91-14.67-33.55-23.46Z"/><path class="cls-19" d="M1041.5,1030.79s-42.54,4.2-44.75-22.33-9.18-43.86,17.89-47.66,33.19,5.89,36.08,14.56S1052.5,1029,1041.5,1030.79Z"/><path class="cls-18" d="M1036.94,956.61s-5.36,32.41-29.58,40.1c-17.68,5.62-25.68,1.92-25.68,1.92a72.06,72.06,0,0,0,11.53-27,13,13,0,0,1,8.65-9.9C1014.42,957.63,1029.64,946.33,1036.94,956.61Z"/><path class="cls-18" d="M1028.92,963.53s8,1.78,15.12,12.13c3.88,5.65,8.38,19.9,7.61,26.21,0,0,7.45-30-3.41-41.16C1036.73,948.88,1028.92,963.53,1028.92,963.53Z"/><path class="cls-13" d="M914.92,1194.78l3,14.56a60.68,60.68,0,0,0,33.45-5.74S949.3,1191,954,1180.81,914.92,1194.78,914.92,1194.78Z"/><path class="cls-24" d="M965.66,1156.56s15.83-33.56,20.61-28.77-11.08,55.23-2.67,79.46,15.35,53.1,45.32,58.73c0,0-22.27,6.11-61.85-9.18C967.07,1256.8,956,1214.48,965.66,1156.56Z"/><path class="cls-18" d="M990.57,950.63s-23.42-6.16-39.66,5.47-9.56,39.2-25.32,54.32-9.56,26-1.92,37-10,32,22.46,36.86,49.69-18.61,44.44-32.46-12.43-25-3.82-41.4S990.57,950.63,990.57,950.63Z"/><path class="cls-26" d="M465.9,1375.72s-20.94-24.43-1.29-40c0,0,14.35-8.69,26.05-8,0,0-16.58,27.8-11.21,30.57S495.69,1326,495.69,1326s32.66-3.16,43.17,1.89c0,0-27.92,22.84-22,24.2s36-21.06,36-21.06,30.39,5.17,28.77,23.72-12.09,24.27-16.7,23.77-31.53-10.77-32.12-7,15.63,16.1,27,16.68c0,0-21.43,23.63-35.68,16.81s-15.45-17.63-24.33-21.69-16.46-4-12.8.09,19.74,8.16,24.82,17.14,9.63,15-5.11,12.82-38.69-13-39.74-25.35Z"/><path class="cls-26" d="M566.7,1355.29s-82.57-3.19-100.8,20.43c0,0-4,12.07-16.44,23.07l-1.94,5.27s14.31-15.08,19.43-16C467,1388.06,458.94,1358.81,566.7,1355.29Z"/><path class="cls-26" d="M449.46,1398.79s-17.72,13.11-19,36.53l3.22.28s5.66-24.21,15.89-33.68S449.46,1398.79,449.46,1398.79Z"/><path class="cls-27" d="M392.68,1345s33.31-18.65,17.77-44c0,0-12.44-15.54-25.76-19.54,0,0,7.11,37.75,0,38.64s-4.89-42.64-4.89-42.64-35.08-16.87-48.85-15.54c0,0,21.76,36.86,14.65,36s-31.53-38.19-31.53-38.19-36-6.66-41.75,14.66,3.55,32,8.88,33.31,39.53.88,38.64,5.33-24,11.54-36.86,7.55c0,0,14.21,35.08,32.87,33.31s24.42-13.33,36-14.22,20,2.22,14.22,5.33-25.32,1-34.65,9-16.87,12.82.45,16.37,48.41,1.33,54.63-12Z"/><path class="cls-28" d="M288.75,1281s93.27,30.2,103.93,64c0,0-.44,15.1,8.89,32.43v6.66s-9.77-22.65-15.1-25.76C386.47,1358.32,407.34,1329,288.75,1281Z"/><path class="cls-28" d="M401.57,1377.42s14.38,21.84,6.18,48.43l-3.7-1s3.59-29.28-3.93-44S401.57,1377.42,401.57,1377.42Z"/><path class="cls-27" d="M445.68,1319.27s-43.91-24.59-23.42-58c0,0,16.39-20.5,34-25.76,0,0-9.37,49.76,0,50.93s6.44-56.2,6.44-56.2,46.25-22.25,64.4-20.49c0,0-28.69,48.59-19.32,47.42s41.57-50.35,41.57-50.35,47.42-8.78,55,19.32-4.68,42.15-11.71,43.91-52.11,1.17-50.93,7,31.61,15.23,48.59,10c0,0-18.74,46.25-43.33,43.91s-32.2-17.57-47.42-18.74-26.34,2.93-18.73,7,33.37,1.34,45.66,11.79,22.25,16.9-.58,21.58-63.82,1.75-72-15.81Z"/><path class="cls-29" d="M582.68,1235s-122.95,39.81-137,84.31c0,0,.58,19.9-11.71,42.74v8.78s12.88-29.86,19.91-34C453.88,1336.83,426.36,1298.19,582.68,1235Z"/><path class="cls-29" d="M434,1362s-19,28.79-8.15,63.84l4.88-1.31s-4.74-38.61,5.18-58S434,1362,434,1362Z"/><path class="cls-16" d="M444.2,1501.85a86,86,0,0,0,86-86h-172A86,86,0,0,0,444.2,1501.85Z"/><path class="cls-16" d="M531.4,1506.23H357a10.61,10.61,0,0,1,10.61-10.61H520.79a10.61,10.61,0,0,1,10.61,10.61Z"/><rect class="cls-30" x="355.36" y="1415.84" width="176.81" height="2.64"/><rect class="cls-31" x="129.58" y="1504.88" width="2533.61" height="6.62" rx="2.85"/><rect class="cls-25" x="1516.88" y="1062.67" width="38.34" height="3.05" transform="translate(80.63 2236.26) rotate(-73.56)"/><path class="cls-32" d="M1588.63,865.63s2.48,23.41-26,27.48-23.71,18.81-25.58,26.45-35.44,5.1-39.52,34.61,20.92,46.66,39.52,43.38,118.59-57.63,118.59-57.63,23.54-14.85,2.94-31.82c-12-9.9,4.33-32.8-16.54-37.38S1588.63,865.63,1588.63,865.63Z"/><path class="cls-32" d="M1633.68,803.21s-24-7.8-41.66,5.09-18.66,35.45-15.94,47.49c2,8.71,13.05,23.07,28.07,13.91s45.54-2,45.54-2S1684.29,823.65,1633.68,803.21Z"/><path class="cls-19" d="M1652.58,913.67S1665,917,1677.17,941.2s26.46,71,36.64,73,54.14-12.72,54.14-12.72l4.71,11.88s-36.48,33.92-69,32.39c-29.52-1.38-48-47.83-48-47.83Z"/><path class="cls-19" d="M1538.08,1507.4h-26.39c-5.52,0-11.68-5.46-13.22-15.44s-12.91-15.45-15.37-23.62c-1.6-5.33,3.21-12.1,6.75-16.14a46.33,46.33,0,0,1,3.4-3.54l4.3-5.45,20.91,4.85s1.54,14.53.93,25.43c-.5,8.77,1.81,18.08,7.85,22.49a13.42,13.42,0,0,0,5.08,2.27C1542.16,1500.37,1538.08,1507.4,1538.08,1507.4Z"/><path class="cls-19" d="M1671.77,1504.86,1601,1505c-1.82-.9-2.55-6.75-2.71-14.22-.07-2.7,0-5.62,0-8.58.3-13.78-2-30-2-30s28.79-8.43,27.68,6.75c-1.72,23.61,16.5,31.48,29.31,34.53,2.72.65,5.19,1.08,7.18,1.39C1671.77,1496.69,1671.77,1504.86,1671.77,1504.86Z"/><path class="cls-19" d="M1657.79,1053.57s14.33,32.39,15.64,54-52.23,329.64-49.61,359.35c.84,9.48-25.18-1-25.18-1s-29.86-153.06-6.06-276.63c13.89-72.15,10-135.77,10-135.77Z"/><path class="cls-19" d="M1571.27,1051.67s-31.15,41.8-34.06,70,7.9,122.43,1.71,150c-4.87,21.68-20.17,38-29.67,96.17-2.57,15.74-6.87,46.82-11.7,75.35,0,0,18.16,10.37,20.91,4.84,15.37-30.94,74.78-145,77.29-165.67,1.78-14.66,19-99.5,52.67-156.43,8.09-13.67-5-68-5-68Z"/><path class="cls-13" d="M1693.28,1060.05s0,.07,0,.2c1.2,22.15-8.43,37.2-9,41.49-2.66,45.25-3.18,168.1-2,188.27,1.35,23.74.51,52.24.51,52.24-32-.94-80.23-12.89-114.16-11.53s-53.59-14.07-53.59-14.07,22-38.12,17.64-111.45,5.08-100.41,14.75-128.4,0-53.63,0-53.63l6.93,1.75c-3.9-6.56-8.45-15.19-8.88-22.36a283.6,283.6,0,0,1,0-32.74l25-54.51c47.65-17.37,82.14-1.63,82.14-1.63s11.52,20.48,19.07,50c2.57,10.07,9.33,27.14.32,35.22v0c-4.51,9.29-.07,15.47,5.9,23.19l0,0c6.64,8.59,15.15,19.09,15.37,37.9Z"/><path class="cls-19" d="M1597.53,914.83c-3-3.24-1.41-6.34.93-11.4a69.41,69.41,0,0,0,6.94-26.32l.82,0,31,7.33s-1.21,8.83-1.7,17.17a1.48,1.48,0,0,1,0,.21c-.44,7.25-.08,15.91-3.48,18.91C1619.86,931.57,1601.53,919.14,1597.53,914.83Z"/><path class="cls-33" d="M1637.25,884.48s-1.21,8.83-1.7,17.17c-17.51-1.43-25.59-13.72-28.94-21.9Z"/><path class="cls-19" d="M1642.76,890.31s-41.44,3.32-43.11-22.52-8.14-42.81,18.25-46,32.17,6.32,34.82,14.81S1653.49,888.78,1642.76,890.31Z"/><path class="cls-32" d="M1636.75,819.94s-9.43,31-26.58,36.62-25,1.4-25,1.4a49.48,49.48,0,0,0,14.29-30.18S1627.27,806.05,1636.75,819.94Z"/><path class="cls-32" d="M1634.09,822.58s8.62,2.61,12.48,8.53a41.91,41.91,0,0,1,7.11,23.37s7.25-21.15-3.11-32.19C1639.59,810.58,1634.09,822.58,1634.09,822.58Z"/><path class="cls-8" d="M1633.68,875.49s.91,3,8.46,2c0,0,6.33-.8,5.92-4.14C1648.06,873.4,1641.75,871.41,1633.68,875.49Z"/><path class="cls-19" d="M1772.66,1013.37s4.5-1.19,12.64,1.35,18.83,1.06,24.42-1.63,17-12.11,13.49-12.87-20.87,4.33-24.94,1.27-7.37-6.1-13.48-4.83-16.84,4.83-16.84,4.83Z"/><path class="cls-19" d="M1786.69,996.4s13.24-3.18,15.15-3.94,1.27,2.15-2.29,3.94-2.93,6.36-2.93,6.36Z"/><path class="cls-13" d="M1645.06,911.08a57,57,0,0,1,31.6,22.23c13,18.32,17.81,31.55,17.81,31.55s-6.75,13.49-27.42,14.88S1645.06,911.08,1645.06,911.08Z"/><path class="cls-24" d="M1677.86,1022.1c-10.18-11.87-37.5-13.48-40.72-16.2s0-3.14,0-3.14c26.48,5.71,34.45-3.41,34.82-3.85C1667.45,1008.2,1671.89,1014.38,1677.86,1022.1Z"/><path class="cls-25" d="M1538.08,1507.4h-26.39c-5.52,0-11.68-5.46-13.22-15.44s-12.91-15.45-15.37-23.62c-1.6-5.33,3.21-12.1,6.75-16.14,0,0,11.26,17.18,13.29,31.93,1.86,13.41,10.83,13.79,24.1,11.85a13.42,13.42,0,0,0,5.08,2.27C1542.16,1500.37,1538.08,1507.4,1538.08,1507.4Z"/><path class="cls-25" d="M1671.77,1504.86,1601,1505c-1.82-.9-2.55-6.75-2.71-14.22v0s12.78,2.8,28.3,7.89c8.91,2.92,18.15-1.63,26.68-5.16,2.72.65,5.19,1.08,7.18,1.39C1671.77,1496.69,1671.77,1504.86,1671.77,1504.86Z"/><path class="cls-25" d="M1585.05,1134.82l-65.89-11.61a6.36,6.36,0,0,1-5.16-7.37l5.38-30.52a6.36,6.36,0,0,1,7.37-5.16l65.89,11.62a6.35,6.35,0,0,1,5.16,7.36l-5.38,30.52A6.36,6.36,0,0,1,1585.05,1134.82Z"/><polygon class="cls-32" points="1555.33 1110.72 1555.21 1110.66 1517.89 1093.06 1518.31 1092.17 1555.51 1109.72 1596.47 1105.95 1596.56 1106.92 1555.33 1110.72"/><path class="cls-32" d="M1554.63,1113.35h0a2.4,2.4,0,0,1-1.94-2.78l.34-2a2.41,2.41,0,0,1,2.78-1.94h0a2.41,2.41,0,0,1,2,2.78l-.35,2A2.41,2.41,0,0,1,1554.63,1113.35Z"/><path class="cls-25" d="M1592.64,1093.3h-.2a1.52,1.52,0,0,1-1.31-1.72c.19-1.46,19.37-146.72-6.1-181.1a1.53,1.53,0,0,1,2.46-1.82C1613.68,944,1595,1086,1594.15,1092A1.52,1.52,0,0,1,1592.64,1093.3Z"/><path class="cls-19" d="M1596.73,1069.18l10-2.13s5.88-.29,8.77,1.19,10.57,2.68,10.39,3.94-9.6,3.68-9.6,3.68l-.26-.15c2.05,8.1,18,15.24,18.29,18.14.41,3.52-7.63,3.94-12,4.26s-14.71-1.53-18.9-7.77c-3-4.57-8.43-11-8.43-11Z"/><path class="cls-19" d="M1578.45,913.67s-18.57-1-32.31,26.76c-13.18,26.65-33.56,73.75-29.09,89.45,2.13,7.47,22.73,26.74,78,49.42,0,0,13.9-7,7.84-11.42,0,0-53.53-48-52.87-51.94.84-5.06,4.81-25.9,38.4-65.33C1597.17,940.28,1578.45,913.67,1578.45,913.67Z"/><path class="cls-13" d="M1583.66,911.21s-24.29,2-38.79,21.84l-14.25,24.17s4.33,19.85,34.09,29.26l18.09-18.87c11.16-11.63,13.14-27.53,7.27-42.54Z"/><text class="cls-34" transform="translate(2063.04 763.1)">PATRONATO </text><path class="cls-35" d="M2173.09,895.46a4.29,4.29,0,0,0,1.88-.22c.57-.19,1.14-.37,1.7-.58a7.26,7.26,0,0,1,3-.55h.31a1.87,1.87,0,0,0,1,.47,10.42,10.42,0,0,0,3.69.34c1.67-.11,3.34-.24,5-.22,2.38,0,4.75.08,7.13.25,1.18.09,2.35.18,3.52.31a63.6,63.6,0,0,1,6.86,1.1,42.35,42.35,0,0,1,9.12,3,56.14,56.14,0,0,1,8.17,4.7,37.45,37.45,0,0,1,6.59,5.73,26.22,26.22,0,0,1,4.49,6.89,23.15,23.15,0,0,1,1.88,7.55,26.59,26.59,0,0,1-.12,5.2c-.16,1.35-.28,2.71-.42,4.07-.07.68-.15,1.36-.22,2l-.15,1.48c-.06.66-.11,1.32-.17,2-.1,1-.21,2.1-.31,3.15s-.18,2.15-.28,3.22c-.07.8-.16,1.6-.23,2.41-.06.63-.1,1.27-.16,1.91-.11,1.22-.23,2.43-.35,3.65-.14,1.42-.27,2.84-.41,4.26-.1,1.11-.21,2.22-.32,3.33-.07.68-.14,1.36-.22,2,0,.45-.1.9-.14,1.35a3.76,3.76,0,0,0,0,.75,1.87,1.87,0,0,0,1.53,1.86,4.07,4.07,0,0,0,.92.12,13.41,13.41,0,0,0,3-.19c2.63-.45,5.27-.81,7.93-1,1.9-.16,3.8-.29,5.7-.29h3.66V972c-.17,0-.33,0-.49.06a5.85,5.85,0,0,1-1.67.05,11.61,11.61,0,0,0-2-.08c-1,.06-2,.14-3,.3a10.66,10.66,0,0,1-3.09.08,3.89,3.89,0,0,0-1.48.07,1.31,1.31,0,0,0-.75.4,1.33,1.33,0,0,1-.91.45l-5.78,1.16c-2.69.54-5.38,1.13-8,1.86a42.42,42.42,0,0,0-9.22,3.6,73.4,73.4,0,0,0-10.21,6.58,43.88,43.88,0,0,0-8.06,8,28.89,28.89,0,0,0-5.8,13.53c.08.36-.35.6-.24.94a2.69,2.69,0,0,1,.09,1,8,8,0,0,1-.21,2.34,11.15,11.15,0,0,1-1.62.36,17.66,17.66,0,0,1-3.63.27l-3,0c-.68,0-1.35-.15-2-.14a.37.37,0,0,1-.35-.21c.58-.35.62-.43.52-1a3.59,3.59,0,0,0,.12-.47c.26-1.51.49-3,.76-4.52a40.6,40.6,0,0,1,1.25-5.23,12.54,12.54,0,0,0,.55-2.35,1.44,1.44,0,0,0-1.34-1.84l-.12,0a10.78,10.78,0,0,0-2.6,0c-.82,0-1.64.12-2.46.22a7.23,7.23,0,0,0-1.53.21l-7.24.16-7.43.15a2.26,2.26,0,0,0-.73.06,2.48,2.48,0,0,0-.86,0c-1.79.24-3.58.41-5.37.56-2,.17-4.08.29-6.13.42-1,.07-2,.11-3,.15-2.69.12-5.37.23-8.06.33-1.55.07-3.1.11-4.65.17-1,0-2,.07-3,.13-2.35.15-4.71.24-7.06.29-2.19,0-4.39,0-6.57-.18-1.47-.1-2.93-.27-4.38-.49s-2.88-.56-4.3-.9a82.62,82.62,0,0,1-11.24-3.49,51.47,51.47,0,0,1-9.33-4.74,34.31,34.31,0,0,1-6.34-5.25,12.58,12.58,0,0,0-1.76-1.74c-.09-.06-.18-.14-.18-.24,0-.34-.25-.51-.47-.69s-.18-.41-.29-.61c-.74-1.42-1.51-2.83-2.24-4.27a16.83,16.83,0,0,1-1.5-4c-.13-.56-.22-1.13-.33-1.69a1.67,1.67,0,0,0-.23-.57,7.78,7.78,0,0,1-.73-3.29,14.48,14.48,0,0,1,.57-3.7l.51-1.9a19.76,19.76,0,0,1,.33-2.77,22.91,22.91,0,0,1,1.73-5.35,36,36,0,0,1,4-6.56l.81-1.09c.28-.26.68-.4.75-.86,0-.1.16-.17.26-.25.36-.31.74-.61,1.08-.93,1.19-1.1,2.38-2.18,3.62-3.21a46,46,0,0,1,10.29-6.54,65.33,65.33,0,0,1,9.4-3.36c4.18-1.19,8.42-2.09,12.67-3l5.41-1.13a.29.29,0,0,0,.34-.19c0-.1,0-.2.08-.3a44.91,44.91,0,0,1,2-6,26,26,0,0,1,5.53-8.17,69,69,0,0,1,6.43-5.66,52.57,52.57,0,0,1,12.66-7.26,64,64,0,0,1,17.14-4.1A1.84,1.84,0,0,0,2173.09,895.46ZM2140.52,936c-.19,0-.37.06-.56.07l-8.6.28c-1.11,0-2.23.09-3.34.13a.93.93,0,0,0-.37,0l-5.16,1.06c-2.71.56-5.41,1.21-8.06,2a41.39,41.39,0,0,0-13.47,6.86,31,31,0,0,0-5.74,5.64,21.68,21.68,0,0,0-4.55,13.5,30.32,30.32,0,0,0,.42,4.94,18.72,18.72,0,0,0,2.21,6.41,21.28,21.28,0,0,0,5.82,6.53,30.52,30.52,0,0,0,7.31,4,51.79,51.79,0,0,0,15.17,3.24c1.23.09,2.47.13,3.71.17,2.8.09,5.59,0,8.38-.21,1.63-.09,3.26-.23,4.89-.3,2.56-.11,5.13-.19,7.69-.26,2.9-.07,5.79-.1,8.69-.17,1.11,0,2.23-.06,3.35-.15,1.64-.13,3.29-.31,4.94-.48a1.55,1.55,0,0,0,.43,0,7.88,7.88,0,0,1,1.61-.1h2.23a2.6,2.6,0,0,0,.56,0,6.27,6.27,0,0,1,1.3-.08h2.35a3.44,3.44,0,0,0,.56,0,6.27,6.27,0,0,1,1.3-.08l2.48,0a2.6,2.6,0,0,0,.56,0,6.18,6.18,0,0,1,1.36-.09h2.42a2.6,2.6,0,0,0,.56,0,6.13,6.13,0,0,1,1.42-.09l2.48,0a2.6,2.6,0,0,0,.56,0,7.36,7.36,0,0,1,1.48-.09h2.17a5.57,5.57,0,0,0,1,0,10.91,10.91,0,0,1,2-.09,13.12,13.12,0,0,0,2.58-.25,6.54,6.54,0,0,0,4.11-2.46,2.9,2.9,0,0,1,.34-.36l2.21-2.09.09-.08,2.29-1.81a44.14,44.14,0,0,1,4.1-2.79c.79-.48,1.6-.94,2.41-1.4,1.35-.77,2.75-1.44,4.15-2.1.68-.32,1.35-.63,2-1a7.37,7.37,0,0,0,1.93-1.44,7.23,7.23,0,0,0,1.74-2.9c.14-.47.31-.94.42-1.43a21,21,0,0,0,.44-2.37,14.73,14.73,0,0,0,.16-2.1,1.55,1.55,0,0,1,0-.37c0-.23.06-.45.06-.68.06-1.57,0-3.14.11-4.71.1-1,0-2,.13-3,.07-.55.13-1.11.22-1.66a18.5,18.5,0,0,1,.64-2.84,2,2,0,0,0,.15-.72.44.44,0,0,0,.12-.34c.09-1.18.17-2.35.26-3.53l.27-3.52c.15-1.76.3-3.51.44-5.26.1-1.26.19-2.51.26-3.77s.11-2.28.17-3.41c0-.17,0-.33,0-.5.12-1.86.15-3.72.16-5.58a13.61,13.61,0,0,0-.77-4.51,15.92,15.92,0,0,0-2.94-5.07,24.23,24.23,0,0,0-4.9-4.36,42.18,42.18,0,0,0-7.77-4.12,34.72,34.72,0,0,0-5.95-1.93,48.3,48.3,0,0,0-5.21-.84c-1.56-.16-3.13-.28-4.7-.32a84.21,84.21,0,0,0-11.34.45c-1.48.16-3,.33-4.43.56-2.68.4-5.34.92-8,1.58a61,61,0,0,0-10,3.34,26.22,26.22,0,0,0-7.72,5.11,33.19,33.19,0,0,0-5.09,6.07,23.72,23.72,0,0,0-3.77,12.8c0,.7,0,1.41,0,2.11a.56.56,0,0,1-.34.59A1.69,1.69,0,0,0,2140.52,936Z"/><path class="cls-36" d="M2195.75,1012.34a8,8,0,0,0,.21-2.34,2.69,2.69,0,0,0-.09-1c-.11-.34.32-.58.24-.94a28.89,28.89,0,0,1,5.8-13.53,43.88,43.88,0,0,1,8.06-8,73.4,73.4,0,0,1,10.21-6.58,42.42,42.42,0,0,1,9.22-3.6c2.65-.73,5.34-1.32,8-1.86l5.78-1.16a1.33,1.33,0,0,0,.91-.45,1.31,1.31,0,0,1,.75-.4,3.89,3.89,0,0,1,1.48-.07,10.66,10.66,0,0,0,3.09-.08c1-.16,2-.24,3-.3a11.61,11.61,0,0,1,2,.08,5.85,5.85,0,0,0,1.67-.05c.16,0,.32,0,.49-.06,0,1.1,0,2.19,0,3.29,0,3.77.1,7.53.17,11.3.06,3.39.13,6.78.23,10.18a12.7,12.7,0,0,0,3.67,8.65,19.49,19.49,0,0,0,4.11,3.18c.37.23.76.43,1.13.64a3.39,3.39,0,0,0,1.28.46,4.28,4.28,0,0,1,1.82.75c.08.06.17.11.25.18a6.6,6.6,0,0,0,2.27,1.23c0,.2-.14.21-.23.26a6,6,0,0,1-2.8.43c-1.38-.11-2.76-.13-4.15-.11q-9.37.11-18.75.17-7.9,0-15.83,0-10.24,0-20.49-.08l-11.85-.12a1.44,1.44,0,0,0-.62,0,.84.84,0,0,0-.54-.06Z"/><path class="cls-37" d="M2256.67,965.51H2253c-1.9,0-3.8.13-5.7.29-2.66.22-5.3.58-7.93,1a13.41,13.41,0,0,1-3,.19,4.07,4.07,0,0,1-.92-.12A1.87,1.87,0,0,1,2234,965a3.76,3.76,0,0,1,0-.75c0-.45.09-.9.14-1.35.08-.68.15-1.36.22-2,.11-1.11.22-2.22.32-3.33.14-1.42.27-2.84.41-4.26.12-1.22.24-2.43.35-3.65.06-.64.1-1.28.16-1.91.07-.81.16-1.61.23-2.41.1-1.07.19-2.14.28-3.22s.21-2.1.31-3.15c.06-.65.11-1.31.17-2l.15-1.48c.07-.68.15-1.36.22-2,.14-1.36.26-2.72.42-4.07a26.59,26.59,0,0,0,.12-5.2,23.15,23.15,0,0,0-1.88-7.55,26.22,26.22,0,0,0-4.49-6.89,37.45,37.45,0,0,0-6.59-5.73,56.14,56.14,0,0,0-8.17-4.7,42.35,42.35,0,0,0-9.12-3,63.6,63.6,0,0,0-6.86-1.1c-1.17-.13-2.34-.22-3.52-.31-2.38-.17-4.75-.22-7.13-.25-1.68,0-3.35.11-5,.22a10.42,10.42,0,0,1-3.69-.34,1.87,1.87,0,0,1-1-.47c.61-.16,1.21-.4,1.84-.54a15.29,15.29,0,0,1,3.43-.45c1.28,0,2.57-.05,3.85,0,1,.06,1.94,0,2.91.18a3,3,0,0,0,.43,0c3.06,0,6.13.07,9.19,0s6-.08,9-.06c1.06,0,2.11.08,3.16.12s2,.13,3,.24q2,.23,4,.54a69.28,69.28,0,0,1,7.91,1.85,70.14,70.14,0,0,1,8.77,3.08c1.2.52,2.38,1.06,3.54,1.67a38.84,38.84,0,0,1,6.74,4.4,25.49,25.49,0,0,1,6,7,21.1,21.1,0,0,1,2,5.06,23.8,23.8,0,0,1,.62,3.35c.08.71.06,1.44.16,2.16.16,1.09,0,2.19.21,3.28a3,3,0,0,1,0,.31c0,2,.11,3.92.17,5.89.11,3.58.11,7.16.05,10.73-.05,2.73,0,5.47-.13,8.19-.09,2.15,0,4.31-.11,6.45C2256.63,960.22,2256.71,962.87,2256.67,965.51Z"/><path class="cls-38" d="M2180.29,997.54a7.23,7.23,0,0,1,1.53-.21c.82-.1,1.64-.17,2.46-.22a10.78,10.78,0,0,1,2.6,0l.12,0a1.44,1.44,0,0,1,1.34,1.84,12.54,12.54,0,0,1-.55,2.35,40.6,40.6,0,0,0-1.25,5.23c-.27,1.5-.5,3-.76,4.52a3.59,3.59,0,0,1-.12.47h-62.94a15.45,15.45,0,0,0-2.72.12,8.71,8.71,0,0,0-1.5.39c-.06,0-.11.12-.16.18-.25,0-.5,0-.74,0-1-.06-1.95-.07-2.92,0a6.59,6.59,0,0,1-1.17-.16,86.16,86.16,0,0,1-10.14-2.36,58.83,58.83,0,0,1-8.62-3.33,40.92,40.92,0,0,1-9.19-6,32.53,32.53,0,0,1-6.2-7.24,15.61,15.61,0,0,1-1.52-3.45,14.62,14.62,0,0,0-.78-2.16.87.87,0,0,1-.07-.48c0-.81,0-1.61-.09-2.42a37.81,37.81,0,0,1-.17-4.64,4.35,4.35,0,0,1,2.61.93,9.58,9.58,0,0,0,1,.72,2.93,2.93,0,0,0,1.85.58c.22.18.46.35.47.69,0,.1.09.18.18.24a12.58,12.58,0,0,1,1.76,1.74,34.31,34.31,0,0,0,6.34,5.25,51.47,51.47,0,0,0,9.33,4.74,82.62,82.62,0,0,0,11.24,3.49c1.42.34,2.85.67,4.3.9s2.91.39,4.38.49c2.18.16,4.38.23,6.57.18,2.35,0,4.71-.14,7.06-.29,1-.06,2-.09,3-.13,1.55-.06,3.1-.1,4.65-.17,2.69-.1,5.37-.21,8.06-.33,1,0,2-.08,3-.15,2-.13,4.09-.25,6.13-.42,1.79-.15,3.58-.32,5.37-.56a2.48,2.48,0,0,1,.86,0,3.74,3.74,0,0,0,1.38.79,12.82,12.82,0,0,0,4.25.72h1.36c1,0,2-.15,3-.13h.12a4.34,4.34,0,0,1,1.29-.11,6.6,6.6,0,0,0,1.6-.1,1.06,1.06,0,0,1,.56,0,6.07,6.07,0,0,0,1.47.1,2.6,2.6,0,0,1,.56.06,3.91,3.91,0,0,0,1.83-.1.91.91,0,0,0,.42-.25.45.45,0,0,0,0-.66,1.05,1.05,0,0,0-.36-.23,2.16,2.16,0,0,0-1-.19A1.78,1.78,0,0,1,2180.29,997.54Z"/><path class="cls-39" d="M2173.09,895.46a1.84,1.84,0,0,1-.61.12,64,64,0,0,0-17.14,4.1,52.57,52.57,0,0,0-12.66,7.26,69,69,0,0,0-6.43,5.66,26,26,0,0,0-5.53,8.17,44.91,44.91,0,0,0-2,6c0,.1,0,.2-.08.3a.29.29,0,0,1-.34.19.39.39,0,0,0-.28-.31c-.39-.18-.79-.35-1.18-.54a57.26,57.26,0,0,1-7.26-4.16c-1.59-1-3.12-2.18-4.67-3.29l-3.69-2.63a59,59,0,0,0-5.54-3.53c-1.66-.92-3.3-1.9-4.9-2.93-2.12-1.36-4.18-2.82-6.24-4.28-2.44-1.75-4.87-3.5-7.39-5.13-1.45-1-2.92-1.88-4.45-2.7l-1.74-1a20.27,20.27,0,0,0-4-1.74,1.39,1.39,0,0,0-.49-.07,1.57,1.57,0,0,1-.2-.83.7.7,0,0,1,.44-.68,2.06,2.06,0,0,1,.84-.22l.8,0h91.27a10.48,10.48,0,0,1,2.09.26,3.14,3.14,0,0,1,.64.25,1.24,1.24,0,0,1,.8,1.33C2173.08,895.21,2173.09,895.33,2173.09,895.46Z"/><path class="cls-40" d="M2076.41,895a1.39,1.39,0,0,1,.49.07,20.27,20.27,0,0,1,4,1.74l1.74,1c1.53.82,3,1.75,4.45,2.7,2.52,1.63,5,3.38,7.39,5.13,2.06,1.46,4.12,2.92,6.24,4.28,1.6,1,3.24,2,4.9,2.93a59,59,0,0,1,5.54,3.53l3.69,2.63c1.55,1.11,3.08,2.24,4.67,3.29a57.26,57.26,0,0,0,7.26,4.16c.39.19.79.36,1.18.54a.39.39,0,0,1,.28.31l-5.41,1.13c-4.25.89-8.49,1.79-12.67,3a65.33,65.33,0,0,0-9.4,3.36,46,46,0,0,0-10.29,6.54c-1.24,1-2.43,2.11-3.62,3.21-.34.32-.72.62-1.08.93-.1.08-.25.15-.26.25-.07.46-.47.6-.75.86a.51.51,0,0,0-.36-.06,8.59,8.59,0,0,0-1.11.39,4,4,0,0,0-1.39,1c-.36.46-.72.94-1,1.44a5.76,5.76,0,0,1-1,1.23,4.29,4.29,0,0,1-3,1.21c-.13-1.09-.25-2.17-.32-3.27s-.16-2.18-.21-3.28c-.17-3.84-.17-7.69-.1-11.53s.15-7.86.14-11.79c0-2.32,0-4.63,0-7,0-3.2.1-6.41.15-9.61,0-2,.07-4,.12-6q0-1,.06-2a5.89,5.89,0,0,0-.18-1.72C2076.47,895.42,2076.45,895.2,2076.41,895Z"/><path class="cls-41" d="M2118.34,1012.28c0-.06.1-.15.16-.18a8.71,8.71,0,0,1,1.5-.39,15.45,15.45,0,0,1,2.72-.12h62.94c.1.58.06.66-.52,1a4.64,4.64,0,0,1-1.29.13q-10.63,0-21.28-.06l-24.63-.1c-3.41,0-6.83,0-10.24-.07-3,0-5.91-.12-8.87-.18Z"/><path class="cls-42" d="M2076.9,951.73a4.29,4.29,0,0,0,3-1.21,5.76,5.76,0,0,0,1-1.23c.33-.5.69-1,1-1.44a4,4,0,0,1,1.39-1,8.59,8.59,0,0,1,1.11-.39.51.51,0,0,1,.36.06l-.81,1.09a36,36,0,0,0-4,6.56,22.91,22.91,0,0,0-1.73,5.35,19.76,19.76,0,0,0-.33,2.77,3,3,0,0,1-.79,0l-.67-.1c0-.7,0-1.4.07-2.1l.18-4.69C2076.79,954.16,2076.85,952.94,2076.9,951.73Z"/><path class="cls-42" d="M2082.18,982.28a2.93,2.93,0,0,1-1.85-.58,9.58,9.58,0,0,1-1-.72,4.35,4.35,0,0,0-2.61-.93c0-.6-.09-1.19-.1-1.79-.07-2-.12-3.9-.17-5.86,0-.14,0-.28,0-.43a7.89,7.89,0,0,1,1.36-.23c.11.56.2,1.13.33,1.69a16.83,16.83,0,0,0,1.5,4c.73,1.44,1.5,2.85,2.24,4.27C2082,981.87,2082.08,982.08,2082.18,982.28Z"/><path class="cls-43" d="M2077.82,971.74a7.89,7.89,0,0,0-1.36.23,4.76,4.76,0,0,1-.51-1.26,11.36,11.36,0,0,1-.59-3.53,11.66,11.66,0,0,1,.89-4.59,1.19,1.19,0,0,1,.23-.43l.67.1a3,3,0,0,0,.79,0l-.51,1.9a14.48,14.48,0,0,0-.57,3.7,7.78,7.78,0,0,0,.73,3.29A1.67,1.67,0,0,1,2077.82,971.74Z"/><path class="cls-44" d="M2196.34,1012.39a.84.84,0,0,1,.54.06A1.1,1.1,0,0,1,2196.34,1012.39Z"/><path class="cls-45" d="M2222.4,950a2,2,0,0,1-.15.72,18.5,18.5,0,0,0-.64,2.84c-.09.55-.15,1.11-.22,1.66-.12,1,0,2-.13,3-.15,1.57-.05,3.14-.11,4.71,0,.23,0,.45-.06.68a1.55,1.55,0,0,0,0,.37,14.73,14.73,0,0,1-.16,2.1,21,21,0,0,1-.44,2.37c-.11.49-.28,1-.42,1.43a7.23,7.23,0,0,1-1.74,2.9,7.37,7.37,0,0,1-1.93,1.44c-.67.34-1.34.65-2,1-1.4.66-2.8,1.33-4.15,2.1-.81.46-1.62.92-2.41,1.4a44.14,44.14,0,0,0-4.1,2.79l-2.29,1.81-.09.08-2.21,2.09a2.9,2.9,0,0,0-.34.36,6.54,6.54,0,0,1-4.11,2.46,13.12,13.12,0,0,1-2.58.25,10.91,10.91,0,0,0-2,.09,5.57,5.57,0,0,1-1,0h-2.17a7.36,7.36,0,0,0-1.48.09,2.6,2.6,0,0,1-.56,0l-2.48,0a6.13,6.13,0,0,0-1.42.09,2.6,2.6,0,0,1-.56,0H2178a6.18,6.18,0,0,0-1.36.09,2.6,2.6,0,0,1-.56,0l-2.48,0a6.27,6.27,0,0,0-1.3.08,3.44,3.44,0,0,1-.56,0h-2.35a6.27,6.27,0,0,0-1.3.08,2.6,2.6,0,0,1-.56,0h-2.23a7.88,7.88,0,0,0-1.61.1,1.55,1.55,0,0,1-.43,0,1.7,1.7,0,0,0-.53-.43l-2.2-1.5c-2.68-1.83-5.36-3.68-8.11-5.4-.72-.46-1.43-.91-2.11-1.42a11.48,11.48,0,0,1-2.57-2.59,6,6,0,0,1-1.13-3.67A8.55,8.55,0,0,1,2147,972c.38-1.23.77-2.45,1.13-3.68,1-3.33,1.81-6.71,2.6-10.09.64-2.74,1.26-5.48,1.89-8.22.33-1.45.67-2.9,1-4.35l1-.63a4.8,4.8,0,0,1,2-.78c1.12-.16,2.24-.38,3.36-.56s2.33-.36,3.49-.53,2.09-.28,3.13-.42,2.21-.31,3.32-.45,2.38-.27,3.57-.41l4-.46,1.29-.13,1.79-.16,3.15-.33c1.11-.1,2.22-.16,3.33-.29.49,0,1-.08,1.48-.12.7-.07,1.4-.15,2.1-.21s1.4-.08,2.1-.16c.51-.07,1-.09,1.54-.14l2-.2c.7-.06,1.41-.07,2.1-.16.54-.07,1.08-.07,1.61-.13a16.88,16.88,0,0,1,4.08,0,10.15,10.15,0,0,1,5.33,2.32,25.36,25.36,0,0,0,2.65,1.94c1.76,1.17,3.61,2.18,5.44,3.24,1.5.86,3,1.72,4.44,2.71A1.8,1.8,0,0,1,2222.4,950Z"/><path class="cls-46" d="M2153.64,945.67c-.34,1.45-.68,2.9-1,4.35-.63,2.74-1.25,5.48-1.89,8.22-.79,3.38-1.62,6.76-2.6,10.09-.36,1.23-.75,2.45-1.13,3.68a8.55,8.55,0,0,0-.41,2.31,6,6,0,0,0,1.13,3.67,11.48,11.48,0,0,0,2.57,2.59c.68.51,1.39,1,2.11,1.42,2.75,1.72,5.43,3.57,8.11,5.4l2.2,1.5a1.7,1.7,0,0,1,.53.43c-1.65.17-3.3.35-4.94.48-1.12.09-2.24.13-3.35.15-2.9.07-5.79.1-8.69.17-2.56.07-5.13.15-7.69.26-1.63.07-3.26.21-4.89.3-2.79.17-5.58.3-8.38.21-1.24,0-2.48-.08-3.71-.17a51.79,51.79,0,0,1-15.17-3.24,30.52,30.52,0,0,1-7.31-4,21.28,21.28,0,0,1-5.82-6.53,18.72,18.72,0,0,1-2.21-6.41,30.32,30.32,0,0,1-.42-4.94,21.68,21.68,0,0,1,4.55-13.5,31,31,0,0,1,5.74-5.64,41.39,41.39,0,0,1,13.47-6.86c2.65-.79,5.35-1.44,8.06-2l5.16-1.06a.93.93,0,0,1,.37,0,1.7,1.7,0,0,0,1,.95,6.17,6.17,0,0,0,2.12.39h3.6c.42,0,.83,0,1.25,0a3.57,3.57,0,0,0,1.22,0,.07.07,0,0,1,.06,0c.61.13,1.23.09,1.84.18a15.18,15.18,0,0,1,2,.39c.17,0,.36.08.54.12,0,.26-.08.53-.15.79q-.83,3.49-1.67,7c-.73,3-1.45,6.11-2.18,9.17s-1.46,6.11-2.16,9.17c-.62,2.7-1.21,5.4-1.81,8.11q-.55,2.54-1.09,5.09a8.54,8.54,0,0,1-.52,1.72c-.19.43-.38.87-.55,1.31a3.93,3.93,0,0,0-.29,1.39,1.71,1.71,0,0,0,.85,1.55,3.87,3.87,0,0,0,1.27.5,11.57,11.57,0,0,0,3.27.25,5.8,5.8,0,0,0,1.58-.3,2.71,2.71,0,0,0,1.85-2.14,9.1,9.1,0,0,0,.13-1.73,7.19,7.19,0,0,1,.21-1.66c.92-3.79,1.86-7.59,2.77-11.38.81-3.42,1.6-6.85,2.4-10.27q.67-2.93,1.36-5.86,1-4.47,2.09-8.93a1.3,1.3,0,0,1,.2-.58c.27.09.55.17.82.28a5.13,5.13,0,0,1,2.4,1.76C2152.88,944.4,2153.25,945,2153.64,945.67Z"/><path class="cls-43" d="M2153.64,945.67c-.39-.63-.76-1.27-1.2-1.87A5.13,5.13,0,0,0,2150,942c-.27-.11-.55-.19-.82-.28.14-.33.46-.47.74-.64a6.34,6.34,0,0,1,2.37-.68c1.31-.18,2.64-.16,4-.25,1.09-.08,2.19-.11,3.28-.16l.19,0c.9-.14,1.81-.08,2.72-.19s1.65-.11,2.47-.16l.19,0,2.34-.21c.68,0,1.36-.09,2-.15,1.11-.11,2.22-.23,3.33-.33s2.14-.17,3.21-.29c.47-.06,1-.09,1.42-.14l1.91-.21,1.73-.16,2.77-.32c1-.1,1.93-.18,2.9-.29s1.92-.23,2.89-.33,1.93-.18,2.9-.29l2.83-.32c.45-.06.9-.1,1.36-.14l1.72-.16,3-.33c1.07-.11,2.14-.19,3.21-.29s2.22-.24,3.33-.32,2.06-.16,3.09-.28a11.52,11.52,0,0,0,2.72-.61,3,3,0,0,0,1.22-.82,1.18,1.18,0,0,0,.34-.65,2.89,2.89,0,0,0-.05-1.17,3,3,0,0,0-2-2.07,6.46,6.46,0,0,0-2-.39,15.91,15.91,0,0,0-3.58.33,47.39,47.39,0,0,1-5.55,1c-1,.08-2,.17-3,.16-.29,0-.58-.08-.87-.08a16.88,16.88,0,0,1-2.34-.24,20.14,20.14,0,0,1-7-2.54,32.43,32.43,0,0,1-3.58-2.46,3.08,3.08,0,0,1-.81-.84,1.91,1.91,0,0,0-.88-.76,3,3,0,0,0-1.14-.26,10.78,10.78,0,0,0-2.27.3,5.32,5.32,0,0,0-1.21.27,6.82,6.82,0,0,0-1.07.74l0,0a1.17,1.17,0,0,1-1.28.14.49.49,0,0,1-.17-.77,1.25,1.25,0,0,1,.47-.31l.76-.26a.62.62,0,0,0,.4-.27,2.76,2.76,0,0,1,.94-.79c.48-.29,1-.57,1.43-.87a2.62,2.62,0,0,0,.48-.4.65.65,0,0,0,.07-.75,1.11,1.11,0,0,0-.31-.3,5.2,5.2,0,0,0-1.82-.75,3.65,3.65,0,0,0-2.41.32,6.52,6.52,0,0,0-1.26.79,18.71,18.71,0,0,1-1.91,1.28c-2.3,1.32-4.48,2.82-6.65,4.34l-1.9,1.39a3.66,3.66,0,0,0-.92.92.71.71,0,0,0,.21,1.08,2.16,2.16,0,0,0,.54.29,7.06,7.06,0,0,0,.89.28l2.24.49a4.75,4.75,0,0,1,1.87.78,2.39,2.39,0,0,1,.8.93.66.66,0,0,1-.4,1,2.67,2.67,0,0,1-.84.22c-.61,0-1.23.13-1.85.14-1,0-1.94.09-2.91.15l-.19,0-2.28.2c-.66.06-1.32.07-2,.17-.45.06-.9.07-1.35.12-.66.08-1.32.14-2,.2l-2,.16c-1.2.11-2.39.24-3.58.33s-2.52.19-3.78.24c-1.53.07-3.06.09-4.59.12-.39,0-.74,0-.87.48,0,.07-.1.12-.16.19l-1-.18a.51.51,0,0,1-.3-.17,1.69,1.69,0,0,1,.72-.45.56.56,0,0,0,.34-.59c0-.7,0-1.41,0-2.11a23.72,23.72,0,0,1,3.77-12.8,33.19,33.19,0,0,1,5.09-6.07,26.22,26.22,0,0,1,7.72-5.11,61,61,0,0,1,10-3.34c2.63-.66,5.29-1.18,8-1.58,1.47-.23,2.95-.4,4.43-.56a84.21,84.21,0,0,1,11.34-.45c1.57,0,3.14.16,4.7.32a48.3,48.3,0,0,1,5.21.84,34.72,34.72,0,0,1,5.95,1.93,42.18,42.18,0,0,1,7.77,4.12,24.23,24.23,0,0,1,4.9,4.36,15.92,15.92,0,0,1,2.94,5.07,13.61,13.61,0,0,1,.77,4.51c0,1.86,0,3.72-.16,5.58,0,.17,0,.33,0,.5-.06,1.13-.1,2.27-.17,3.41s-.16,2.51-.26,3.77c-.14,1.75-.29,3.5-.44,5.26l-.27,3.52c-.09,1.18-.17,2.35-.26,3.53a.44.44,0,0,1-.12.34,1.8,1.8,0,0,0-.49-.38c-1.43-1-2.94-1.85-4.44-2.71-1.83-1.06-3.68-2.07-5.44-3.24a25.36,25.36,0,0,1-2.65-1.94,10.15,10.15,0,0,0-5.33-2.32,16.88,16.88,0,0,0-4.08,0c-.53.06-1.07.06-1.61.13-.69.09-1.4.1-2.1.16l-2,.2c-.51.05-1,.07-1.54.14-.7.08-1.4.1-2.1.16s-1.4.14-2.1.21c-.49,0-1,.07-1.48.12-1.11.13-2.22.19-3.33.29l-3.15.33-1.79.16-1.29.13-4,.46c-1.19.14-2.38.26-3.57.41s-2.21.3-3.32.45-2.09.27-3.13.42-2.33.34-3.49.53-2.24.4-3.36.56a4.8,4.8,0,0,0-2,.78Z"/><path class="cls-47" d="M2180.29,997.54a1.78,1.78,0,0,0,1.12.26,2.16,2.16,0,0,1,1,.19,1.05,1.05,0,0,1,.36.23.45.45,0,0,1,0,.66.91.91,0,0,1-.42.25,3.91,3.91,0,0,1-1.83.1,2.6,2.6,0,0,0-.56-.06,6.07,6.07,0,0,1-1.47-.1,1.06,1.06,0,0,0-.56,0,6.6,6.6,0,0,1-1.6.1,4.34,4.34,0,0,0-1.29.11h-.12c-1,0-2,.17-3,.13h-1.36a12.82,12.82,0,0,1-4.25-.72,3.74,3.74,0,0,1-1.38-.79,2.26,2.26,0,0,1,.73-.06l7.43-.15Z"/><path class="cls-47" d="M2140.52,936a.51.51,0,0,0,.3.17l1,.18-.21,2.21c-.18,0-.37-.07-.54-.12a15.18,15.18,0,0,0-2-.39c-.61-.09-1.23,0-1.84-.18a.07.07,0,0,0-.06,0,3.57,3.57,0,0,1-1.22,0c-.42,0-.83,0-1.25,0h-3.6a6.17,6.17,0,0,1-2.12-.39,1.7,1.7,0,0,1-1-.95c1.11,0,2.23-.1,3.34-.13l8.6-.28C2140.15,936.06,2140.33,936,2140.52,936Z"/><path class="cls-44" d="M2141.66,938.56l.21-2.21c.06-.07.14-.12.16-.19.13-.47.48-.48.87-.48,1.53,0,3.06,0,4.59-.12,1.26,0,2.52-.14,3.78-.24s2.38-.22,3.58-.33l2-.16c.66-.06,1.32-.12,2-.2.45,0,.9-.06,1.35-.12.66-.1,1.32-.11,2-.17l2.28-.2.19,0c1-.06,1.94-.13,2.91-.15.62,0,1.24-.1,1.85-.14a2.67,2.67,0,0,0,.84-.22.66.66,0,0,0,.4-1,2.39,2.39,0,0,0-.8-.93,4.75,4.75,0,0,0-1.87-.78l-2.24-.49a7.06,7.06,0,0,1-.89-.28,2.16,2.16,0,0,1-.54-.29.71.71,0,0,1-.21-1.08,3.66,3.66,0,0,1,.92-.92l1.9-1.39c2.17-1.52,4.35-3,6.65-4.34a18.71,18.71,0,0,0,1.91-1.28,6.52,6.52,0,0,1,1.26-.79,3.65,3.65,0,0,1,2.41-.32,5.2,5.2,0,0,1,1.82.75,1.11,1.11,0,0,1,.31.3.65.65,0,0,1-.07.75,2.62,2.62,0,0,1-.48.4c-.47.3-.95.58-1.43.87a2.76,2.76,0,0,0-.94.79.62.62,0,0,1-.4.27l-.76.26a1.25,1.25,0,0,0-.47.31.49.49,0,0,0,.17.77,1.17,1.17,0,0,0,1.28-.14l0,0a6.82,6.82,0,0,1,1.07-.74,5.32,5.32,0,0,1,1.21-.27,10.78,10.78,0,0,1,2.27-.3,3,3,0,0,1,1.14.26,1.91,1.91,0,0,1,.88.76,3.08,3.08,0,0,0,.81.84,32.43,32.43,0,0,0,3.58,2.46,20.14,20.14,0,0,0,7,2.54,16.88,16.88,0,0,0,2.34.24c.29,0,.58.07.87.08,1,0,2-.08,3-.16a47.39,47.39,0,0,0,5.55-1,15.91,15.91,0,0,1,3.58-.33,6.46,6.46,0,0,1,2,.39,3,3,0,0,1,2,2.07,2.89,2.89,0,0,1,.05,1.17,1.18,1.18,0,0,1-.34.65,3,3,0,0,1-1.22.82,11.52,11.52,0,0,1-2.72.61c-1,.12-2.06.2-3.09.28s-2.22.22-3.33.32-2.14.18-3.21.29l-3,.33-1.72.16c-.46,0-.91.08-1.36.14l-2.83.32c-1,.11-1.94.19-2.9.29s-1.93.23-2.89.33-1.94.19-2.9.29l-2.77.32-1.73.16-1.91.21c-.47.05-.95.08-1.42.14-1.07.12-2.14.19-3.21.29s-2.22.22-3.33.33c-.68.06-1.36.1-2,.15l-2.34.21-.19,0c-.82.05-1.65.06-2.47.16s-1.82,0-2.72.19l-.19,0c-1.09.05-2.19.08-3.28.16-1.32.09-2.65.07-4,.25a6.34,6.34,0,0,0-2.37.68c-.28.17-.6.31-.74.64a1.3,1.3,0,0,0-.2.58q-1,4.45-2.09,8.93-.69,2.94-1.36,5.86c-.8,3.42-1.59,6.85-2.4,10.27-.91,3.79-1.85,7.59-2.77,11.38a7.19,7.19,0,0,0-.21,1.66,9.1,9.1,0,0,1-.13,1.73,2.71,2.71,0,0,1-1.85,2.14,5.8,5.8,0,0,1-1.58.3,11.57,11.57,0,0,1-3.27-.25,3.87,3.87,0,0,1-1.27-.5,1.71,1.71,0,0,1-.85-1.55,3.93,3.93,0,0,1,.29-1.39c.17-.44.36-.88.55-1.31a8.54,8.54,0,0,0,.52-1.72q.54-2.55,1.09-5.09c.6-2.71,1.19-5.41,1.81-8.11.7-3.06,1.44-6.12,2.16-9.17s1.45-6.12,2.18-9.17q.84-3.51,1.67-7C2141.58,939.09,2141.61,938.82,2141.66,938.56Z"/><path class="cls-18" d="M2043.89,1505h-41.63a101.45,101.45,0,0,1,3.32-15,43.7,43.7,0,0,1,2.36-6c4-8.08,29.77-2.94,29.77-2.94s2.38,2,4.25,9.86A82.54,82.54,0,0,1,2043.89,1505Z"/><path class="cls-16" d="M1967.47,869.16s-33.17,5.82-40.67,25.4-49.86,335.84-49.86,335.84,21,16.62,66,10.66S1967.47,869.16,1967.47,869.16Z"/><path class="cls-18" d="M1918.1,1491.87c-.12,5.66-.83,11-2.88,13.14h-82.34c1-3,4-7.46,12.46-8.84,9.61-1.55,24.58-6.17,33.32-15.42a24.67,24.67,0,0,0,6.45-11.68c3.88-17.24,32,5.29,32,5.29A139.35,139.35,0,0,1,1918.1,1491.87Z"/><path class="cls-36" d="M1882.64,1483.48c9.2,2.94,26.79,11.9,38,7.68,7.22-2.72,47.58-119.46,50.19-170.52a133.28,133.28,0,0,1,2.07-15.21c2.39-13.18,6.57-31.28,11.39-51.27,12.91-53.54,30.38-120.52,30-141.93-.58-33.22-99-7-99-7s-6.77,27.26-8.12,66.72c-2.68,78.33-10,210.64-30,302.53A7.89,7.89,0,0,0,1882.64,1483.48Z"/><path class="cls-36" d="M1951,1112.35l52,377.16s22.85,5.51,40.63,1.1c0,0,15.23-200.59,14-249.08s10.94-129.77-2.78-138.73S1951,1112.35,1951,1112.35Z"/><path class="cls-8" d="M2061.39,886.44s-54.69-35.37-93.92-17.28c-6.25,2.88-13.38,10.92-18.48,16.55-14.18,15.62-41.89,263.8-41.89,263.8s78.65,26.64,154.29-9Z"/><path class="cls-16" d="M1964.36,868.26S1909,891,1901.5,908.38s-31.87,124.5-31.87,137.05,42.43,2.81,49.26-17.44c5.68-16.81,24.81-68.47,34.9-101.13Z"/><path class="cls-19" d="M1975.86,885.55c12.09,2.37,29.84-.16,42.84-8.72-5.87-14-8.28-25.09-9.13-32.25,0-.38-.09-.75-.13-1.11a33.43,33.43,0,0,1-.15-7.38h-31.24s-8.55,3.9-8.55,6.6c0,1.45,0,2.83,0,4.15-.07,3.59-.21,6.73-.4,9.42a84.94,84.94,0,0,1-1.6,12.9S1963.65,883.16,1975.86,885.55Z"/><path class="cls-48" d="M1969.07,856.26c23.67,4.58,37.42-8.36,40.5-11.68.43-.47.66-.75.66-.75-.25-.13-.51-.24-.79-.36-8.81-3.56-28.81-.73-40,3.37C1969.4,850.43,1969.26,853.57,1969.07,856.26Z"/><path class="cls-19" d="M2017.3,831c-4.23,22.77-33.61,22-46.3,20.59-3.57-.4-5.82-.85-5.82-.85-4-1.08-6.28-7.42-7.32-15.74-2.08-16.45.54-40.59,3.32-46.76,4.18-9.3,12.06-19.35,41.64-12.1S2022.73,801.78,2017.3,831Z"/><path class="cls-18" d="M1960.08,775.49c4-5.6,12.62-12.44,20.4-16.65,16.73-9.05,38.14.28,38.23.32,24.16,10.62,30.47,29.11,17.66,57.91-13.54,30.45-26.44,27-26.44,27s2.73-1.71,2.49-11.2c0-.54,0-1-.06-1.38a6.38,6.38,0,0,1,2-5.19c3-2.68,4.47-10.78,2-13-3-2.72-7.29.59-8.65,3.13a3.72,3.72,0,0,1-5.3,1.17c-7.52-4.75-2.64-14.26-9.83-20.08s-21.76-.93-32.55-5.57C1945.88,786.68,1957,779.7,1960.08,775.49Z"/><path class="cls-16" d="M1956.71,1253.64c4.76,1.22,9.48,2.23,14.16,3,4.15.71,8.27,1.24,12.4,1.58,23.41,2,46.92-1.25,74.39-9.13,6.19-1.78,12.58-3.79,19.22-6,.71-.24-1.81-72.9-4.71-147.84-.29-7.74-.6-15.51-.9-23.22-.13-3.27-.25-6.52-.38-9.76-2.63-66.29-5.24-126.15-5.79-129.37-1.26-7.3-2.43-13.51-3.71-18.9-3.75-15.71-8.39-24.32-18.53-31.72-1-.75-9.09-4.84-16.24-8.39-5.93-3-11.19-5.52-11.19-5.52h0c-2.36,1.16-5.19,6.56-8.15,14.14-5.45,14-11.32,35.37-15.41,51.35l0,.08h0c-2.63,10.31-4.52,18.35-5,20.66-.92,3.89-2.12,11.43-3.54,21.64-1.93,13.91-4.22,32.78-6.66,54.2q-.37,3.3-.75,6.68c-.28,2.57-.58,5.17-.86,7.79-.1.84-.19,1.69-.28,2.53-.94,8.48-1.88,17.24-2.82,26.14-.78,7.35-11.93,12.67-12.7,20.15-.45,4.39-1.37,44.92-2.57,57.86C1955.77,1160.82,1956.38,1249.29,1956.71,1253.64Z"/><path class="cls-49" d="M2037.42,959.6c0,.15,1.9,67-48.41,75.15s-16.88,10.27-16.88,10.27,94.66-4,96.22-6.52S2037.42,959.6,2037.42,959.6Z"/><path class="cls-49" d="M1994.92,1063.46s.95.67,2.76,1.84l.09,0c7.67,4.9,30.45,18.26,63.62,27.21q5.22,1.43,10.78,2.67c-.29-7.74-.6-15.51-.9-23.22a95.63,95.63,0,0,0,12.47-1.73c-.13-1-.27-2-.4-3-4.22-1.73-8.41-3.4-12.45-5-3.3-1.29-6.48-2.51-9.5-3.65-13.63-5.18-23.72-8.68-23.72-8.68l-40.33,12.77Z"/><path class="cls-16" d="M1984.25,1062.34s5.18,1.29,13.43,3a.12.12,0,0,1,.08,0c15.22,3,40.79,7.34,63.63,7.11,3.37,0,6.68-.17,9.88-.42a95.63,95.63,0,0,0,12.47-1.73c8.35-1.76,15.34-4.74,19.92-9.4,34-34.61-18.54-158.82-29.59-170.9-12.89-14.11-36.42-19.07-49.41-20.77l-1.57-.19c-4.57-.55-7.5-.66-7.66-.67h0l2.72,8.83c.66,2.15,1.43,4.65,2.27,7.43,8,26.13,23.38,77.49,30.17,106.46,2.49,10.6,3.82,18.2,3.21,20.47-2.65,9.89-30.1,15-47.49,17.22-7.26.94-12.76,1.39-14,1.48l-.25,0-1,4.12-2.4,9.9-2.37,9.71Z"/><polygon class="cls-18" points="1889.48 1121.88 2006.17 1116.96 1982.5 971.54 1865.81 976.46 1889.48 1121.88"/><path class="cls-19" d="M1992.06,1030.26s-22.72-1.58-23.86,3.71c-2.65,12.34,19.53,22.48,26.72,21.78S1997.29,1029.44,1992.06,1030.26Z"/><path class="cls-19" d="M1872.19,1006s21.73-6.8,24.06-1.91c5.44,11.39-13.8,26.38-21,27.37S1866.91,1006.39,1872.19,1006Z"/><path class="cls-49" d="M2013.07,861.05s10.1,1.76,14.89,8.64c0,0-36.27,64.81-36.11,64.23S2003.93,869,2013.07,861.05Z"/><path class="cls-49" d="M1968.58,861.92c-3.15,1.19-9.18,7.37-10.54,10.79l-4.25,54.15s9.07-39.74,13.68-57.7A30.29,30.29,0,0,0,1968.58,861.92Z"/><path class="cls-50" d="M1943.82,973.17s-.93-4-6.24-3.57-35.15,1.94-35.15,1.94-5.75-.1-5.22,3.59Z"/><path class="cls-8" d="M1978.05,836.09a12.49,12.49,0,0,1-10.13,2.44c-3.7-.65-5.78-5.47-5.78-5.47S1969.27,831.78,1978.05,836.09Z"/><path class="cls-35" d="M2016,943.67a.63.63,0,0,0,.33,0l.29-.13a1,1,0,0,1,.51-.12h.06c0,.07.11.08.17.1a1.5,1.5,0,0,0,.63.08,6.2,6.2,0,0,1,.86,0c.41,0,.82,0,1.23,0l.6.07a9.46,9.46,0,0,1,1.18.23,6.22,6.22,0,0,1,1.56.65,9.61,9.61,0,0,1,1.41,1,7.4,7.4,0,0,1,1.13,1.23,6.11,6.11,0,0,1,.77,1.48,6.28,6.28,0,0,1,.32,1.63,6.86,6.86,0,0,1,0,1.11c0,.3,0,.59-.07.88s0,.29,0,.44,0,.21,0,.32,0,.28,0,.42,0,.45,0,.68,0,.46,0,.69,0,.35,0,.52,0,.27,0,.41l-.06.78c0,.31-.05.61-.07.92l-.06.72c0,.14,0,.29,0,.43s0,.2,0,.3a.85.85,0,0,0,0,.16c0,.21.08.34.26.4l.16,0a1.76,1.76,0,0,0,.51,0,12.83,12.83,0,0,1,1.36-.22c.33,0,.65-.06,1-.06h.63v1.39h-.09a.66.66,0,0,1-.28,0,2.08,2.08,0,0,0-.35,0,4.35,4.35,0,0,0-.52.06,1.58,1.58,0,0,1-.53,0,.57.57,0,0,0-.26,0,.24.24,0,0,0-.13.09.22.22,0,0,1-.15.1l-1,.24c-.47.12-.93.25-1.38.4a6.89,6.89,0,0,0-1.59.78,12.87,12.87,0,0,0-1.75,1.41,8.81,8.81,0,0,0-1.38,1.74,6.85,6.85,0,0,0-.86,2.12c-.06.26-.1.52-.14.79,0,.07-.06.13,0,.2a.75.75,0,0,1,0,.21,2.07,2.07,0,0,1,0,.5,1.29,1.29,0,0,1-.28.08,2.14,2.14,0,0,1-.62.05h-.51c-.12,0-.23,0-.35,0a.07.07,0,0,1-.06,0c.1-.08.11-.1.09-.22a.44.44,0,0,0,0-.1c0-.33.08-.65.13-1s.12-.76.21-1.13a2.77,2.77,0,0,0,.1-.5c0-.24,0-.36-.23-.4h0a1.7,1.7,0,0,0-.45,0l-.42.05a.75.75,0,0,0-.26,0l-1.24,0-1.28,0a.32.32,0,0,0-.13,0,.22.22,0,0,0-.14,0l-.93.12-1,.09-.52,0-1.38.07-.8,0-.51,0c-.4,0-.81,0-1.21.07a10.57,10.57,0,0,1-1.13,0,6.46,6.46,0,0,1-.75-.11c-.25,0-.5-.12-.74-.19a12.62,12.62,0,0,1-1.93-.75,8.49,8.49,0,0,1-1.6-1,6.49,6.49,0,0,1-1.09-1.13,2.2,2.2,0,0,0-.3-.37.07.07,0,0,1,0-.06.24.24,0,0,0-.08-.15s0-.08-.05-.13l-.39-.91a4.24,4.24,0,0,1-.25-.86c0-.12,0-.24-.06-.36s0-.08,0-.12a2.13,2.13,0,0,1-.13-.71,4.27,4.27,0,0,1,.1-.8l.09-.41a5.61,5.61,0,0,1,.06-.59,5.54,5.54,0,0,1,.29-1.15,8,8,0,0,1,.69-1.41l.13-.24c.05,0,.12-.08.13-.18s0,0,0-.06l.18-.2c.21-.23.41-.47.63-.69a7.75,7.75,0,0,1,1.76-1.4,10.09,10.09,0,0,1,1.61-.73c.72-.25,1.45-.45,2.18-.64l.93-.24a.05.05,0,0,0,.06,0s0,0,0-.07a11,11,0,0,1,.35-1.28,5.85,5.85,0,0,1,1-1.76,14.25,14.25,0,0,1,1.1-1.22,8.82,8.82,0,0,1,2.18-1.56,9.14,9.14,0,0,1,2.94-.88A.19.19,0,0,0,2016,943.67Zm-5.59,8.72-.09,0-1.48.06-.57,0h-.07l-.88.23a13.92,13.92,0,0,0-1.39.43,6.69,6.69,0,0,0-2.31,1.48,5.93,5.93,0,0,0-1,1.21,5.54,5.54,0,0,0-.78,2.9,7.45,7.45,0,0,0,.08,1.06,4.62,4.62,0,0,0,1.37,2.79,5.22,5.22,0,0,0,1.26.86,7.14,7.14,0,0,0,2.6.7l.64,0a11.55,11.55,0,0,0,1.44-.05l.84-.06c.44,0,.88,0,1.32-.06l1.49,0,.57,0c.29,0,.57-.06.85-.1h.08a1.23,1.23,0,0,1,.27,0h.48a.83.83,0,0,1,.22,0h.41a.27.27,0,0,0,.09,0,.9.9,0,0,1,.23,0h.52a.9.9,0,0,1,.23,0h.51a1,1,0,0,1,.25,0h.52a.71.71,0,0,1,.25,0h.55a1.88,1.88,0,0,1,.34,0,1.65,1.65,0,0,0,.44,0,1.12,1.12,0,0,0,.71-.53.35.35,0,0,1,0-.08l.38-.45h0c.13-.13.26-.27.39-.39a6.64,6.64,0,0,1,.71-.6,3.91,3.91,0,0,1,.41-.3c.23-.17.47-.31.71-.46l.35-.2a1.6,1.6,0,0,0,.33-.31,1.67,1.67,0,0,0,.3-.63c0-.1,0-.2.07-.31s.06-.33.08-.51a3.39,3.39,0,0,0,0-.45s0,0,0-.08,0-.09,0-.14c0-.34,0-.68,0-1s0-.42,0-.63,0-.24,0-.36a4.1,4.1,0,0,1,.11-.61.76.76,0,0,0,0-.16.14.14,0,0,0,0-.07c0-.25,0-.51,0-.76s0-.5,0-.76,0-.75.07-1.13,0-.54,0-.81l0-.73V951q0-.6,0-1.2a4,4,0,0,0-.13-1,4,4,0,0,0-.51-1.09,4.74,4.74,0,0,0-.84-.94,7,7,0,0,0-1.33-.88,5.71,5.71,0,0,0-1-.42,6.68,6.68,0,0,0-.89-.18c-.27,0-.54-.06-.81-.07a11.42,11.42,0,0,0-1.94.1c-.26,0-.51.07-.76.12a13,13,0,0,0-1.37.34,8.84,8.84,0,0,0-1.72.72,4.41,4.41,0,0,0-1.32,1.1,7.06,7.06,0,0,0-.88,1.3,6.08,6.08,0,0,0-.64,2.75v.46a.13.13,0,0,1-.06.13A.26.26,0,0,0,2010.4,952.39Z"/><path class="cls-36" d="M2019.88,968.81a2.07,2.07,0,0,0,0-.5.75.75,0,0,0,0-.21c0-.07.06-.13,0-.2,0-.27.08-.53.14-.79a6.85,6.85,0,0,1,.86-2.12,8.81,8.81,0,0,1,1.38-1.74,12.87,12.87,0,0,1,1.75-1.41,6.89,6.89,0,0,1,1.59-.78c.45-.15.91-.28,1.38-.4l1-.24a.22.22,0,0,0,.15-.1.24.24,0,0,1,.13-.09.57.57,0,0,1,.26,0,1.58,1.58,0,0,0,.53,0,4.35,4.35,0,0,1,.52-.06,2.08,2.08,0,0,1,.35,0,.66.66,0,0,0,.28,0h.09v.71c0,.81,0,1.62,0,2.43s0,1.46,0,2.19a3.11,3.11,0,0,0,.63,1.86,3.46,3.46,0,0,0,.7.68l.2.14a.49.49,0,0,0,.22.1.71.71,0,0,1,.31.16s0,0,0,0a1.11,1.11,0,0,0,.39.26.06.06,0,0,1,0,.06.8.8,0,0,1-.48.09,5.61,5.61,0,0,0-.71,0l-3.22,0h-2.72l-3.51,0-2,0h-.1a.17.17,0,0,0-.1,0Z"/><path class="cls-37" d="M2030.34,958.74h-.63c-.33,0-.65,0-1,.06a12.83,12.83,0,0,0-1.36.22,1.76,1.76,0,0,1-.51,0l-.16,0c-.18-.06-.24-.19-.26-.4a.85.85,0,0,1,0-.16c0-.1,0-.2,0-.3s0-.29,0-.43l.06-.72c0-.31,0-.61.07-.92l.06-.78c0-.14,0-.27,0-.41s0-.35,0-.52,0-.46,0-.69,0-.45,0-.68,0-.28,0-.42,0-.22,0-.32,0-.29,0-.44,0-.58.07-.88a6.86,6.86,0,0,0,0-1.11,6.28,6.28,0,0,0-.32-1.63,6.11,6.11,0,0,0-.77-1.48,7.4,7.4,0,0,0-1.13-1.23,9.61,9.61,0,0,0-1.41-1,6.22,6.22,0,0,0-1.56-.65,9.46,9.46,0,0,0-1.18-.23l-.6-.07c-.41,0-.82,0-1.23,0a6.2,6.2,0,0,0-.86,0,1.5,1.5,0,0,1-.63-.08c-.06,0-.13,0-.17-.1l.31-.12a2.41,2.41,0,0,1,.59-.09h.66c.17,0,.34,0,.5,0h.08c.52,0,1,0,1.57,0s1,0,1.56,0l.54,0,.51,0,.68.11a12.17,12.17,0,0,1,2.87,1.06c.2.12.41.23.6.36a6.52,6.52,0,0,1,1.16,1,5.55,5.55,0,0,1,1,1.5,5.78,5.78,0,0,1,.35,1.09,5.93,5.93,0,0,1,.1.72c0,.16,0,.31,0,.47s0,.47,0,.7v.07c0,.42,0,.84,0,1.26,0,.77,0,1.54,0,2.31,0,.59,0,1.18,0,1.76s0,.93,0,1.39S2030.35,958.17,2030.34,958.74Z"/><path class="cls-38" d="M2017.23,965.63a.75.75,0,0,1,.26,0l.42-.05a1.7,1.7,0,0,1,.45,0h0c.18,0,.25.16.23.4a2.77,2.77,0,0,1-.1.5c-.09.37-.15.75-.21,1.13s-.09.64-.13,1a.44.44,0,0,1,0,.1h-10.8a2.43,2.43,0,0,0-.47,0,1.34,1.34,0,0,0-.26.09s0,0,0,0h-.12a4.21,4.21,0,0,0-.5,0,1.2,1.2,0,0,1-.2,0,13.93,13.93,0,0,1-1.75-.51,10.08,10.08,0,0,1-1.48-.72,7,7,0,0,1-1.57-1.28,6.73,6.73,0,0,1-1.07-1.56,4.31,4.31,0,0,1-.26-.74,3.47,3.47,0,0,0-.13-.46.14.14,0,0,1,0-.11c0-.17,0-.34,0-.52,0-.33,0-.66,0-1a.71.71,0,0,1,.45.2,1.29,1.29,0,0,0,.17.16.44.44,0,0,0,.32.12.24.24,0,0,1,.08.15.07.07,0,0,0,0,.06,2.2,2.2,0,0,1,.3.37,6.49,6.49,0,0,0,1.09,1.13,8.49,8.49,0,0,0,1.6,1,12.62,12.62,0,0,0,1.93.75c.24.07.49.14.74.19a6.46,6.46,0,0,0,.75.11,10.57,10.57,0,0,0,1.13,0c.4,0,.81,0,1.21-.07l.51,0,.8,0,1.38-.07.52,0,1-.09.93-.12a.22.22,0,0,1,.14,0,1,1,0,0,0,.24.17,1.71,1.71,0,0,0,.73.15h.23c.18,0,.35,0,.52,0h0a.57.57,0,0,1,.22,0,.86.86,0,0,0,.28,0h.09a1.14,1.14,0,0,0,.26,0h.09a.58.58,0,0,0,.32,0,.13.13,0,0,0,.07-.06.12.12,0,0,0,0-.14l-.06,0a.35.35,0,0,0-.17,0A.22.22,0,0,1,2017.23,965.63Z"/><path class="cls-39" d="M2016,943.67a.19.19,0,0,1-.1,0,9.14,9.14,0,0,0-2.94.88,8.82,8.82,0,0,0-2.18,1.56,14.25,14.25,0,0,0-1.1,1.22,5.85,5.85,0,0,0-1,1.76,11,11,0,0,0-.35,1.28s0,.05,0,.07a.05.05,0,0,1-.06,0,.13.13,0,0,0,0-.07l-.2-.11a9,9,0,0,1-1.25-.9c-.27-.22-.53-.47-.8-.7l-.63-.57c-.31-.27-.63-.53-.95-.76s-.57-.41-.85-.63-.71-.61-1.07-.92-.83-.75-1.26-1.1c-.25-.21-.51-.41-.77-.59l-.3-.2a3.34,3.34,0,0,0-.69-.38h-.08a.39.39,0,0,1,0-.18.16.16,0,0,1,.08-.15.33.33,0,0,1,.14,0h15.81a1.34,1.34,0,0,1,.35,0,.24.24,0,0,1,.11.06.26.26,0,0,1,.14.28Z"/><path class="cls-40" d="M1999.4,943.57h.08a3.34,3.34,0,0,1,.69.38l.3.2c.26.18.52.38.77.59.43.35.85.72,1.26,1.1s.71.63,1.07.92.56.43.85.63.64.49.95.76l.63.57c.27.23.53.48.8.7a9,9,0,0,0,1.25.9l.2.11a.13.13,0,0,1,0,.07l-.93.24c-.73.19-1.46.39-2.18.64a10.09,10.09,0,0,0-1.61.73,7.75,7.75,0,0,0-1.76,1.4c-.22.22-.42.46-.63.69l-.18.2s0,0,0,.06-.08.13-.13.18a.06.06,0,0,0-.06,0,1.54,1.54,0,0,0-.19.08,1,1,0,0,0-.24.22l-.18.31a1,1,0,0,1-.17.26.63.63,0,0,1-.51.26c0-.23,0-.46,0-.7s0-.47,0-.7c0-.83,0-1.66,0-2.48s0-1.69,0-2.54c0-.5,0-1,0-1.49l0-2.07c0-.43,0-.85,0-1.28,0-.14,0-.29,0-.43a2.31,2.31,0,0,0,0-.37A.59.59,0,0,1,1999.4,943.57Z"/><path class="cls-41" d="M2006.59,968.8s0,0,0,0a1.34,1.34,0,0,1,.26-.09,2.43,2.43,0,0,1,.47,0h10.8c0,.12,0,.14-.09.22a.82.82,0,0,1-.22,0h-3.65l-4.23,0-1.76,0c-.51,0-1,0-1.52,0Z"/><path class="cls-44" d="M2020,968.82a.17.17,0,0,1,.1,0S2020,968.84,2020,968.82Z"/><path class="cls-45" d="M2024.46,955.4a.76.76,0,0,1,0,.16,4.1,4.1,0,0,0-.11.61c0,.12,0,.24,0,.36s0,.42,0,.63,0,.68,0,1c0,.05,0,.09,0,.14s0,.06,0,.08a3.39,3.39,0,0,1,0,.45c0,.18,0,.35-.08.51s0,.21-.07.31a1.67,1.67,0,0,1-.3.63,1.6,1.6,0,0,1-.33.31l-.35.2c-.24.15-.48.29-.71.46a3.91,3.91,0,0,0-.41.3,6.64,6.64,0,0,0-.71.6c-.13.12-.26.26-.39.39h0l-.38.45a.35.35,0,0,0,0,.08,1.12,1.12,0,0,1-.71.53,1.65,1.65,0,0,1-.44,0,1.88,1.88,0,0,0-.34,0h-.55a.71.71,0,0,0-.25,0h-.52a1,1,0,0,0-.25,0h-.51a.9.9,0,0,0-.23,0h-.52a.9.9,0,0,0-.23,0,.27.27,0,0,1-.09,0h-.41a.83.83,0,0,0-.22,0h-.48a1.23,1.23,0,0,0-.27,0h-.08s-.06-.06-.09-.09l-.38-.32c-.46-.4-.92-.79-1.39-1.17q-.18-.13-.36-.3a2.23,2.23,0,0,1-.44-.56,1.49,1.49,0,0,1-.19-.79,2,2,0,0,1,.07-.49c.06-.27.13-.53.19-.8.17-.71.31-1.44.45-2.16s.21-1.18.32-1.77c.06-.31.12-.63.17-.94l.17-.13a.72.72,0,0,1,.35-.17l.57-.12.6-.12.54-.09.57-.09.61-.09.69-.1.22,0,.31,0,.54-.07.57-.07.26,0,.36-.05.36,0a2.06,2.06,0,0,1,.26,0l.34,0,.36,0,.28,0a2.35,2.35,0,0,1,.7,0,1.52,1.52,0,0,1,.91.49,3.64,3.64,0,0,0,.46.42c.3.25.62.47.93.7a8.47,8.47,0,0,1,.76.58A.65.65,0,0,1,2024.46,955.4Z"/><path class="cls-46" d="M2012.65,954.47c-.05.31-.11.63-.17.94-.11.59-.21,1.18-.32,1.77s-.28,1.45-.45,2.16c-.06.27-.13.53-.19.8a2,2,0,0,0-.07.49,1.49,1.49,0,0,0,.19.79,2.23,2.23,0,0,0,.44.56q.18.16.36.3c.47.38.93.77,1.39,1.17l.38.32s.07.05.09.09c-.28,0-.56.08-.85.1l-.57,0-1.49,0c-.44,0-.88,0-1.32.06l-.84.06a11.55,11.55,0,0,1-1.44.05l-.64,0a7.14,7.14,0,0,1-2.6-.7,5.22,5.22,0,0,1-1.26-.86,4.62,4.62,0,0,1-1.37-2.79,7.45,7.45,0,0,1-.08-1.06,5.54,5.54,0,0,1,.78-2.9,5.93,5.93,0,0,1,1-1.21,6.69,6.69,0,0,1,2.31-1.48,13.92,13.92,0,0,1,1.39-.43l.88-.23h.07a.31.31,0,0,0,.17.2.94.94,0,0,0,.36.08h.83c.07,0,.14,0,.21,0h0c.11,0,.21,0,.32,0a1.89,1.89,0,0,1,.34.09l.1,0,0,.17c-.09.5-.19,1-.29,1.51s-.25,1.31-.37,2-.25,1.31-.37,2-.21,1.16-.31,1.75c-.07.36-.13.73-.19,1.09a1.54,1.54,0,0,1-.09.37l-.09.28a1,1,0,0,0,0,.3.43.43,0,0,0,.14.34.72.72,0,0,0,.22.1,1.78,1.78,0,0,0,.56.06.83.83,0,0,0,.27-.07.56.56,0,0,0,.32-.46c0-.12,0-.25,0-.37a2.19,2.19,0,0,1,0-.36l.48-2.45c.14-.73.27-1.47.41-2.2.08-.42.15-.84.23-1.26l.36-1.93a.53.53,0,0,1,0-.12l.14.06a1,1,0,0,1,.42.38Z"/><path class="cls-43" d="M2012.65,954.47l-.2-.4a1,1,0,0,0-.42-.38l-.14-.06a.35.35,0,0,1,.13-.14.91.91,0,0,1,.41-.14c.22,0,.45,0,.68-.06l.56,0h0c.16,0,.31,0,.47,0l.42,0h0l.4,0,.35,0,.57-.07.55-.07.25,0,.32,0,.3,0,.48-.06.49-.07.5-.07.5-.06.48-.07.24,0,.29,0,.52-.08c.18,0,.37,0,.55-.06l.57-.07a4.52,4.52,0,0,0,.53-.06,1.57,1.57,0,0,0,.47-.13.48.48,0,0,0,.21-.17.35.35,0,0,0,.06-.14.69.69,0,0,0,0-.25.6.6,0,0,0-.34-.45.81.81,0,0,0-.34-.08,2.19,2.19,0,0,0-.62.07,7.66,7.66,0,0,1-1,.21,4.36,4.36,0,0,1-.51,0h-.15a2.76,2.76,0,0,1-.4-.06,2.91,2.91,0,0,1-1.19-.54,6.2,6.2,0,0,1-.62-.53.86.86,0,0,1-.14-.18.36.36,0,0,0-.15-.17.45.45,0,0,0-.19,0,1.27,1.27,0,0,0-.39.06.73.73,0,0,0-.21.06,1.37,1.37,0,0,0-.18.16h0a.18.18,0,0,1-.22,0,.13.13,0,0,1,0-.17.16.16,0,0,1,.08-.06l.13-.06a.1.1,0,0,0,.07-.06.52.52,0,0,1,.16-.17l.24-.19.09-.08a.19.19,0,0,0,0-.23,1.07,1.07,0,0,0-.32-.16.5.5,0,0,0-.41.07,1.84,1.84,0,0,0-.22.17c-.1.1-.21.19-.32.28a14.18,14.18,0,0,0-1.15.93l-.32.3a.78.78,0,0,0-.16.2.17.17,0,0,0,0,.23l.09.06.15.06.39.11a.88.88,0,0,1,.32.16.53.53,0,0,1,.13.2c0,.11,0,.18-.06.23a.42.42,0,0,1-.15,0l-.32,0-.5,0h0l-.39,0-.34,0-.23,0-.34,0-.34,0-.61.07-.65,0-.79,0c-.07,0-.13,0-.15.11s0,0,0,0l-.18,0a.07.07,0,0,1,0,0,.26.26,0,0,1,.12-.09.13.13,0,0,0,.06-.13v-.46a6.08,6.08,0,0,1,.64-2.75,7.06,7.06,0,0,1,.88-1.3,4.41,4.41,0,0,1,1.32-1.1,8.84,8.84,0,0,1,1.72-.72,13,13,0,0,1,1.37-.34c.25,0,.5-.09.76-.12a11.42,11.42,0,0,1,1.94-.1c.27,0,.54,0,.81.07a6.68,6.68,0,0,1,.89.18,5.71,5.71,0,0,1,1,.42,7,7,0,0,1,1.33.88,4.74,4.74,0,0,1,.84.94,4,4,0,0,1,.51,1.09,4,4,0,0,1,.13,1q0,.6,0,1.2v.11l0,.73c0,.27,0,.54,0,.81s-.05.76-.07,1.13,0,.51,0,.76,0,.51,0,.76a.14.14,0,0,1,0,.07.65.65,0,0,0-.09-.08,8.47,8.47,0,0,0-.76-.58c-.31-.23-.63-.45-.93-.7a3.64,3.64,0,0,1-.46-.42,1.52,1.52,0,0,0-.91-.49,2.35,2.35,0,0,0-.7,0l-.28,0-.36,0-.34,0a2.06,2.06,0,0,0-.26,0l-.36,0-.36.05-.26,0-.57.07-.54.07-.31,0-.22,0-.69.1-.61.09-.57.09-.54.09-.6.12-.57.12a.72.72,0,0,0-.35.17Z"/><path class="cls-47" d="M2017.23,965.63a.22.22,0,0,0,.19,0,.35.35,0,0,1,.17,0l.06,0a.12.12,0,0,1,0,.14.13.13,0,0,1-.07.06.58.58,0,0,1-.32,0h-.09a1.14,1.14,0,0,1-.26,0h-.09a.86.86,0,0,1-.28,0,.57.57,0,0,0-.22,0h0c-.17,0-.34,0-.52,0h-.23a1.71,1.71,0,0,1-.73-.15,1,1,0,0,1-.24-.17.32.32,0,0,1,.13,0l1.28,0Z"/><path class="cls-47" d="M2010.4,952.39a.07.07,0,0,0,0,0l.18,0,0,.47-.1,0a1.89,1.89,0,0,0-.34-.09c-.11,0-.21,0-.32,0h0c-.07,0-.14,0-.21,0h-.83a.94.94,0,0,1-.36-.08.31.31,0,0,1-.17-.2l.57,0,1.48-.06Z"/><path class="cls-44" d="M2010.6,952.94l0-.47s0,0,0,0,.08-.11.15-.11l.79,0,.65,0,.61-.07.34,0,.34,0,.23,0,.34,0,.39,0h0l.5,0,.32,0a.42.42,0,0,0,.15,0c.09,0,.1-.12.06-.23a.53.53,0,0,0-.13-.2.88.88,0,0,0-.32-.16l-.39-.11-.15-.06-.09-.06a.17.17,0,0,1,0-.23.78.78,0,0,1,.16-.2l.32-.3a14.18,14.18,0,0,1,1.15-.93c.11-.09.22-.18.32-.28a1.84,1.84,0,0,1,.22-.17.5.5,0,0,1,.41-.07,1.07,1.07,0,0,1,.32.16.19.19,0,0,1,0,.23l-.09.08-.24.19a.52.52,0,0,0-.16.17.1.1,0,0,1-.07.06l-.13.06a.16.16,0,0,0-.08.06.13.13,0,0,0,0,.17.18.18,0,0,0,.22,0h0a1.37,1.37,0,0,1,.18-.16.73.73,0,0,1,.21-.06,1.27,1.27,0,0,1,.39-.06.45.45,0,0,1,.19,0,.36.36,0,0,1,.15.17.86.86,0,0,0,.14.18,6.2,6.2,0,0,0,.62.53,2.91,2.91,0,0,0,1.19.54,2.76,2.76,0,0,0,.4.06h.15a4.36,4.36,0,0,0,.51,0,7.66,7.66,0,0,0,1-.21,2.19,2.19,0,0,1,.62-.07.81.81,0,0,1,.34.08.6.6,0,0,1,.34.45.69.69,0,0,1,0,.25.35.35,0,0,1-.06.14.48.48,0,0,1-.21.17,1.57,1.57,0,0,1-.47.13,4.52,4.52,0,0,1-.53.06l-.57.07c-.18,0-.37,0-.55.06l-.52.08-.29,0-.24,0-.48.07-.5.06-.5.07-.49.07-.48.06-.3,0-.32,0-.25,0-.55.07-.57.07-.35,0-.4,0h0l-.42,0c-.16,0-.31,0-.47,0h0l-.56,0c-.23,0-.46,0-.68.06a.91.91,0,0,0-.41.14.35.35,0,0,0-.13.14.53.53,0,0,0,0,.12l-.36,1.93c-.08.42-.15.84-.23,1.26-.14.73-.27,1.47-.41,2.2l-.48,2.45a2.19,2.19,0,0,0,0,.36c0,.12,0,.25,0,.37a.56.56,0,0,1-.32.46.83.83,0,0,1-.27.07,1.78,1.78,0,0,1-.56-.06.72.72,0,0,1-.22-.1.43.43,0,0,1-.14-.34,1,1,0,0,1,0-.3l.09-.28a1.54,1.54,0,0,0,.09-.37c.06-.36.12-.73.19-1.09.1-.59.2-1.17.31-1.75s.25-1.31.37-2,.25-1.32.37-2,.2-1,.29-1.51Z"/></svg>